<svg id="cancel"
  xmlns="http://www.w3.org/2000/svg"
  width="27"
  height="27"
  viewBox="0 0 27.5 27.5">
  <circle id="Ellipse_797"
    data-name="Ellipse 797"
    cx="13.75"
    cy="13.75"
    r="13.75"
    transform="translate(0 0)"
    fill="#e24c4b"/>
  <path id="Path_8274"
    data-name="Path 8274"
    d="M74.269,60.521a13.79,13.79,0,0,1-13.75,13.75,13.53,13.53,0,0,1-10.742-5.156,13.566,13.566,0,0,0,8.594,3.008,13.79,13.79,0,0,0,13.75-13.75,13.566,13.566,0,0,0-3.008-8.594A13.53,13.53,0,0,1,74.269,60.521Z"
    transform="translate(-46.769 -46.771)"
    fill="#d1403f"/>
  <path id="Path_8275"
    data-name="Path 8275"
    d="M130.268,130.268a1.349,1.349,0,0,1-1.891,0l-4.383-4.383-4.383,4.383a1.337,1.337,0,1,1-1.891-1.891l4.383-4.383-4.383-4.383a1.337,1.337,0,1,1,1.891-1.891l4.383,4.383,4.383-4.383a1.337,1.337,0,1,1,1.891,1.891l-4.383,4.383,4.383,4.383A1.349,1.349,0,0,1,130.268,130.268Z"
    transform="translate(-110.244 -110.244)"
    fill="#fff"/>
</svg>
