<svg xmlns="http://www.w3.org/2000/svg" width="115.147" height="115.147" viewBox="0 0 115.147 115.147">
  <g id="user" transform="translate(0)">
    <path id="Path_8256" data-name="Path 8256" d="M14.122,113.928l74.366,7a55.1,55.1,0,1,0-74.366-7Z" transform="translate(0 -17.049)" fill="#4ce088"/>
    <g id="Group_3493" data-name="Group 3493" transform="translate(30.163 81.203)">
      <path id="Path_8257" data-name="Path 8257" d="M140.281,377a15.91,15.91,0,0,0,19.482,0,30.415,30.415,0,0,0,6.164-6.5q-.81-.235-1.64-.444a2.541,2.541,0,0,1-1.448-.978c-1.549-2.185-1.978-5.562-2.062-8.012a22.986,22.986,0,0,1-3.316,3.169,12.152,12.152,0,0,1-14.878,0,23,23,0,0,1-3.316-3.169c-.086,2.5-.532,5.978-2.166,8.156a2.2,2.2,0,0,1-1.224.8q-.89.22-1.76.475A30.418,30.418,0,0,0,140.281,377Z" transform="translate(-134.118 -361.069)" fill="#fcad6d"/>
    </g>
    <path id="Path_8258" data-name="Path 8258" d="M149.787,366.777a12.107,12.107,0,0,1-7.2-2.538,23,23,0,0,1-3.316-3.17c-.086,2.5-.532,5.978-2.166,8.156a2.2,2.2,0,0,1-1.224.8q-.89.22-1.76.475a30.418,30.418,0,0,0,6.163,6.5,15.807,15.807,0,0,0,3.309,1.973C147.873,375.617,149.309,369.954,149.787,366.777Z" transform="translate(-103.956 -279.866)" fill="#fd995b"/>
    <g id="Group_3494" data-name="Group 3494" transform="translate(26.547 30.095)">
      <path id="Path_8259" data-name="Path 8259" d="M133.965,134.042c-10.8,1.472-11.828,7.6-11.833,9.842a1.237,1.237,0,0,1-.686,1.114c-5.618,2.733-2.589,15.906-2.589,15.906a6.359,6.359,0,0,1,1.851.735,9.632,9.632,0,0,1,.533-1.971,8.263,8.263,0,0,1,.722-1.443,4.432,4.432,0,0,0,.678-2.708c-.2-2.748-.36-7.907,3.267-9.539,3.073-1.383,6.843-.582,9.247.217a7.634,7.634,0,0,0,4.813,0c2.4-.8,6.173-1.6,9.247-.217,3.617,1.628,3.468,6.761,3.269,9.516a4.474,4.474,0,0,0,.676,2.731,8.307,8.307,0,0,1,.741,1.49,9.636,9.636,0,0,1,.515,1.924,5.033,5.033,0,0,1,2.283-.722c.083-2.88.349-5.985.349-5.985,3.2-15.677-11.453-22.475-23.083-20.89Z" transform="translate(-118.042 -133.818)" fill="#2a428c"/>
      <path id="Path_8260" data-name="Path 8260" d="M133.965,134.045c-10.8,1.472-11.828,7.6-11.833,9.842a1.237,1.237,0,0,1-.686,1.114c-5.618,2.733-2.589,15.906-2.589,15.906a6.359,6.359,0,0,1,1.851.735,9.632,9.632,0,0,1,.533-1.971,8.263,8.263,0,0,1,.722-1.443,4.432,4.432,0,0,0,.678-2.708c-.2-2.748-.36-7.907,3.267-9.539,3.073-1.383,6.843-.582,9.247.217a7.618,7.618,0,0,0,2.023.374c-.1-.18-.217-.358-.342-.535-4.634-6.513,1.807-11.259,3.051-12.088A25.419,25.419,0,0,0,133.965,134.045Z" transform="translate(-118.042 -133.821)" fill="#1c2e7a"/>
    </g>
    <path id="Path_8261" data-name="Path 8261" d="M280.02,254.474c-.841-.771-2.517-.38-3.241.092a10.178,10.178,0,0,1,.031,3l-.855,6.227q0,.753-.045,1.478c2.085.629,3.12-1.243,3.295-2.527a9.562,9.562,0,0,1,.368-1.63C280.127,259.381,282.128,256.406,280.02,254.474Z" transform="translate(-213.858 -196.905)" fill="#fcad6d"/>
    <path id="Path_8262" data-name="Path 8262" d="M112.23,254.474c.841-.771,2.517-.38,3.241.092a10.178,10.178,0,0,0-.031,3l.855,6.227q0,.753.045,1.478c-2.085.629-3.12-1.243-3.295-2.527a9.56,9.56,0,0,0-.368-1.63C112.123,259.381,110.123,256.406,112.23,254.474Z" transform="translate(-86.258 -196.905)" fill="#fd995b"/>
    <path id="Path_8263" data-name="Path 8263" d="M162.026,197.02a8.312,8.312,0,0,0-.741-1.49,4.474,4.474,0,0,1-.676-2.731c.2-2.755.092-8.144-3.525-9.772-3.073-1.383-6.842-.582-9.246.217a7.633,7.633,0,0,1-4.814,0c-2.4-.8-6.173-1.6-9.246-.217-3.627,1.632-3.725,7.047-3.523,9.8a4.431,4.431,0,0,1-.678,2.708,8.271,8.271,0,0,0-.722,1.443,9.958,9.958,0,0,0-.564,4.968l.855,6.229a22.883,22.883,0,0,0,8.846,18.2,12.15,12.15,0,0,0,14.877,0,22.883,22.883,0,0,0,8.846-18.2l.855-6.227a9.958,9.958,0,0,0-.545-4.922Z" transform="translate(-99.364 -141.282)" fill="#f9ba8f"/>
    <g id="Group_3495" data-name="Group 3495" transform="translate(28.83 40.994)">
      <path id="Path_8264" data-name="Path 8264" d="M149.867,226.368a22.883,22.883,0,0,1-8.846-18.2l-.855-6.229a9.956,9.956,0,0,1,.564-4.968,8.269,8.269,0,0,1,.722-1.443,4.43,4.43,0,0,0,.678-2.708c-.183-2.485-.12-7.149,2.575-9.227a7.628,7.628,0,0,1-1.681-.351c-2.4-.8-6.173-1.6-9.246-.217-3.627,1.632-3.725,7.047-3.523,9.8a4.432,4.432,0,0,1-.678,2.708,8.269,8.269,0,0,0-.722,1.443,9.958,9.958,0,0,0-.564,4.968l.855,6.229a22.883,22.883,0,0,0,8.846,18.2,12.147,12.147,0,0,0,13.376.993,12.125,12.125,0,0,1-1.5-.993Z" transform="translate(-128.194 -182.277)" fill="#fcad6d"/>
    </g>
    <path id="Path_8265" data-name="Path 8265" d="M124.764,408.608c-1.388-.114-2.126-.652-3.762-1.574a48.3,48.3,0,0,0-10.779-4.531,29.466,29.466,0,0,1-6.049,6.4,15.413,15.413,0,0,1-18.873,0,29.472,29.472,0,0,1-6.051-6.4,48.569,48.569,0,0,0-10.778,4.533c-1.636.922-2.374,1.461-3.762,1.574-.666.054-1.3.14-1.918.25a55.095,55.095,0,0,0,74.366,7A15.4,15.4,0,0,0,124.764,408.608Z" transform="translate(-48.67 -311.98)" fill="#3c58a0"/>
    <path id="Path_8266" data-name="Path 8266" d="M86.139,412.442a12.176,12.176,0,0,0,2.451-1.588A15.318,15.318,0,0,1,85.3,408.9a29.471,29.471,0,0,1-6.051-6.4,48.567,48.567,0,0,0-10.778,4.533c-1.636.922-2.374,1.461-3.762,1.574-.666.054-1.3.14-1.918.25a55.358,55.358,0,0,0,13.273,10.8C77.388,416.252,80.409,415.241,86.139,412.442Z" transform="translate(-48.669 -311.979)" fill="#2a428c"/>
    <path id="Path_8267" data-name="Path 8267" d="M274.582,15.473A6.532,6.532,0,0,1,281.1,8.96H312.1V6.513A6.532,6.532,0,0,0,305.592,0H271.919a6.532,6.532,0,0,0-6.513,6.513V33.249a6.532,6.532,0,0,0,6.513,6.513h2.663V15.473Z" transform="translate(-205.717 0)" fill="#4fabf7"/>
    <path id="Path_8268" data-name="Path 8268" d="M290.5,0H271.919a6.532,6.532,0,0,0-6.513,6.513V33.249a6.532,6.532,0,0,0,6.513,6.513h2.663V15.473a6.532,6.532,0,0,1,6.513-6.513h9.27c.082-.268.138-.416.138-.416-4.62-4.621,0-8.544,0-8.544Z" transform="translate(-205.717 0)" fill="#1886ea"/>
    <path id="Path_8269" data-name="Path 8269" d="M344.543,37.992H310.871a6.532,6.532,0,0,0-6.513,6.513V71.241a6.532,6.532,0,0,0,6.513,6.513,1.1,1.1,0,0,1,.863,1.776,15.413,15.413,0,0,1-2.008,2.145c-1.385,1.22-.606,3.721,1.151,3.716a14.7,14.7,0,0,0,11.5-5.971,4.213,4.213,0,0,1,3.328-1.666h18.842a6.532,6.532,0,0,0,6.513-6.513V44.5a6.532,6.532,0,0,0-6.513-6.513Z" transform="translate(-235.909 -29.448)" fill="#e9efff"/>
    <path id="Path_8270" data-name="Path 8270" d="M310.871,37.992a6.532,6.532,0,0,0-6.513,6.513V71.241a6.532,6.532,0,0,0,6.513,6.513,1.1,1.1,0,0,1,.863,1.776,15.413,15.413,0,0,1-2.008,2.145c-1.385,1.22-.606,3.721,1.151,3.716a14.7,14.7,0,0,0,11.5-5.971,4.213,4.213,0,0,1,3.328-1.666h8.413c-10.12-5.913-5.673-16.332-5.673-16.332l-1.323-5.966c-10.677-6.26-6.423-17.464-6.423-17.464Z" transform="translate(-235.909 -29.448)" fill="#bec8f7"/>
    <circle id="Ellipse_794" data-name="Ellipse 794" cx="3.13" cy="3.13" r="3.13" transform="translate(77.402 26.008)" fill="#1886ea"/>
    <circle id="Ellipse_795" data-name="Ellipse 795" cx="3.13" cy="3.13" r="3.13" transform="translate(88.079 26.008)" fill="#1886ea"/>
    <circle id="Ellipse_796" data-name="Ellipse 796" cx="3.13" cy="3.13" r="3.13" transform="translate(98.756 26.008)" fill="#4fabf7"/>
    <g id="Group_3496" data-name="Group 3496" transform="translate(0 5.691)">
      <path id="Path_8271" data-name="Path 8271" d="M21.527,98.311c1.984-4.192-.3-9.018-1.871-13.381a36.945,36.945,0,0,1-1.235-22.051A28.389,28.389,0,0,1,31.638,45.493c3.362-1.858,7.121-2.929,10.439-4.866s6.3-5.1,6.505-8.936a8.754,8.754,0,0,0-2.537-6.385A55.127,55.127,0,0,0,5.3,103.258c4.616,1.565,9.81,1.252,13.582-1.739a9.193,9.193,0,0,0,2.648-3.207Z" transform="translate(0 -25.306)" fill="#5efc9e"/>
    </g>
    <g id="Group_3497" data-name="Group 3497" transform="translate(68.378 57.93)">
      <path id="Path_8272" data-name="Path 8272" d="M332.105,296.12a54.87,54.87,0,0,0,13.735-34.957,22.813,22.813,0,0,0-13.7-3.546c-7,.383-13.588,3.463-19.458,7.29a23.981,23.981,0,0,0-6.389,5.541,10.173,10.173,0,0,0-2.081,7.983c.9,4.2,5.043,6.9,9.118,8.26s8.48,1.889,12.2,4.037A39.206,39.206,0,0,1,332.105,296.12Z" transform="translate(-304.039 -257.582)" fill="#5efc9e"/>
    </g>
    <path id="Path_8273" data-name="Path 8273" d="M319.542,479.559a12.677,12.677,0,0,0-2.425-3.617,1.679,1.679,0,0,0-2.881,1.176v4.3A54.68,54.68,0,0,0,319.542,479.559Z" transform="translate(-243.566 -368.508)" fill="#2a428c"/>
  </g>
</svg>
