<svg xmlns="http://www.w3.org/2000/svg" viewBox="0 0 545.75 125.38">
    <defs>
        <style>.cls-1{fill:#fff;}</style>
    </defs>
    <title>Asset 1</title>
    <g id="Layer_2" data-name="Layer 2">
        <g id="Layer_1-2" data-name="Layer 1">
            <g id="Layer_2-2" data-name="Layer 2">
                <g id="Layer_1-2-2" data-name="Layer 1-2">
                    <path class="cls-1" d="M141.09,90c-9,0-18.08.17-27.11,0-6.85-.17-13.57-1.31-19.38-5.35C88.42,80.3,86,73.91,85.87,66.8c-.28-14.79-.11-29.57-.07-44.33,0-5,3.28-8.25,8-8.26,4.46,0,7.58,3.35,7.58,8.27V63.67c.26,7.46,4,11.17,11.48,11.34.86,0,1.73-.06,2.58,0,2.3.22,3-.88,3-3,0-6.52-.07-13,.43-19.53.72-10.47,6.78-17.56,16-21.64,11.29-5,22.89-4.89,33.9.89,9.1,4.77,14.26,12.42,14.22,23,0,7.21-.29,14.43.08,21.62.39,7.82-5.64,13.53-13.59,13.56C160,90,150.59,90,141.09,90Zm17.08-32.42V69.89C158.17,73.1,160,75,163,75c3.34,0,4.9-1.54,4.93-5.15,0-4.72-.12-9.44,0-14.16.2-5.72-2.75-9.31-7.45-11.92-1.72-1-2.46-.74-2.42,1.4C158.22,49.29,158.16,53.41,158.17,57.53Zm-14.58-.06h0V44.88c0-.89.21-2-1.47-1.54-3.88,1.14-8.08,6-8.21,10-.18,5.82-.12,11.65,0,17.47.05,2.62,1.69,4,4.3,4.15,3.24.14,5.26-1.7,5.36-5.2C143.72,65.69,143.59,61.58,143.59,57.47Z"/>
                    <path class="cls-1" d="M352.51,58.53V72.17c0,1.94.7,2.89,2.72,2.8,4.29-.2,8.61-.14,12.87-.57,7-.71,10.17-4.39,10.18-11.37,0-7.38,0-14.76,0-22.14.06-5.71,3.27-8.89,8.57-8.67a7.29,7.29,0,0,1,6.74,5.09,8.42,8.42,0,0,1,.59,2.76c-.06,9.17.17,18.36-.38,27.5-.61,10.06-6.8,16.32-16,19.41-4.41,1.48-9.23,1.84-13.91,2.41a45.47,45.47,0,0,1-8.25,0c-2.35-.13-3.29.84-3.87,3.06-2.46,9.35-8.42,15.76-17.67,18.46a52,52,0,0,1-14,1.53,7.05,7.05,0,0,1-7.47-6.61c0-.2,0-.4,0-.6-.05-4.18,2.86-7.14,7.53-7.5,2.23-.17,4.49.07,6.71-.14,3.57-.34,6.73-1.47,8.29-5.14,1-2.34.67-2.92-1.85-3a94,94,0,0,1-9.78-.41c-11.36-1.68-18.11-8-20.41-19.18a41.72,41.72,0,0,1,2.48-25.22c3-6.88,8.36-11.29,15.83-12.09a98,98,0,0,1,18.76-.24c7.34.62,12.3,6.77,12.35,14.12v12.1Zm-15.6,4.4h0c0-3.26.06-6.52,0-9.77-.06-2.52-.84-4.87-3.28-6-4.23-2-11.43-1.85-13.82,4.63a29,29,0,0,0-1.12,14.7c.89,5.82,4.48,8.43,10.48,8.47,1.54,0,3.1-.09,4.64,0,2.3.18,3.3-.65,3.18-3.06C336.79,68.94,336.91,65.93,336.91,62.93Z"/>
                    <path class="cls-1" d="M196.87,63.81V40.63c0-5,3.42-8.78,7.84-8.74s7.73,3.78,7.73,8.84v44c0,3,.29,6,2.46,8.44,3.62,4,8.31,3.37,12.76,2.45,3.92-.8,5.63-4,6-7.8.15-1.7.38-3.41.38-5.12V40a7.77,7.77,0,0,1,7.49-8A7.86,7.86,0,0,1,249.64,40c0,7.3.28,14.6,0,21.88-.47,10.53,5.42,12.76,14.09,13a20.67,20.67,0,0,0,5.83-1c4.54-1.26,6.9-4.33,6.94-9,.07-7.9,0-15.79,0-23.69,0-3.14.83-6,3.65-7.81a7.83,7.83,0,0,1,12.21,6.39,276.12,276.12,0,0,1-.58,30.58c-.85,9.3-6.88,15.16-15.94,17.47-8.21,2.09-16.47,2.81-24.48-1-1.33-.64-1.68,0-1.7,1.18-.26,13.95-12.69,23.43-26.05,23.35-12.24-.07-21.53-6.17-25-15.5A27.52,27.52,0,0,1,197,87C196.72,79.26,196.87,71.53,196.87,63.81Z"/>
                    <path class="cls-1" d="M529.67,58.92c0-7,.11-13.91,0-20.86-.24-13.76-6.38-24.28-17.93-31.73-.65-.42-1.57-.82-1.76-1.42-.33-1-.63-2.52-.11-3.22A3.72,3.72,0,0,1,513,.39c17.28,5.65,29.17,19,32.14,37.14a55.3,55.3,0,0,1,.56,9c.07,10.55,0,21.11,0,31.66,0,23.61-15.89,42-39.08,46.56-16.62,3.25-37.87-6.29-46.83-22a48,48,0,0,1-6.62-24V48.63a7.94,7.94,0,0,1,4.05-7.28,7.33,7.33,0,0,1,8.28.23c2.81,1.83,3.67,4.65,3.68,7.79V79.75c0,14.75,11.35,27.25,26,29.4,15.29,2.24,30.89-8,34.06-24a23.42,23.42,0,0,0,.38-4.34C529.69,73.51,529.67,66.21,529.67,58.92Z"/>
                    <path class="cls-1" d="M415.43,63.43V45.14C415.5,34,419.59,24.42,426.79,16c9.07-10.57,21-15.7,34.54-16a43.49,43.49,0,0,1,28.89,10.2c10.47,8.53,16.65,19.41,17.24,32.95.49,11.05.51,22.13.41,33.19,0,6.57-5.46,10.47-10.86,8.32a8.12,8.12,0,0,1-5.08-7.93V46.35A30.26,30.26,0,0,0,468,16.66c-17.15-3.85-34.36,8.14-36.5,25.48a59.41,59.41,0,0,0-.46,7.18c0,11.76-.07,23.52,0,35.28.05,8.77,1.82,17.19,7.37,24.19,2.95,3.71,6.86,6.66,10.36,9.94.68.64,1.85,1,2.13,1.78A4.76,4.76,0,0,1,451,124a3.26,3.26,0,0,1-3,1.06c-16.4-5.84-27.33-16.85-31.47-33.95a49.18,49.18,0,0,1-1.07-10.19C415.31,75.11,415.43,69.26,415.43,63.43Z"/>
                    <path class="cls-1" d="M0,53.75V40.62A8.21,8.21,0,0,1,7.36,32.4c3.79-.44,7.39,2.35,8.28,6.56a22.22,22.22,0,0,1,.39,4.6V65.18c0,6.65,3.23,9.82,9.81,9.84H49.6c6.82,0,10.28-3.49,10.31-10.36q.06-11.71,0-23.43a8.39,8.39,0,0,1,3.51-7.35,7.63,7.63,0,0,1,10.67,1.63,7.85,7.85,0,0,1,1,1.94,11.25,11.25,0,0,1,.76,3.76C75.81,50,76,58.89,75.42,67.7c-.77,11.63-8.29,19.88-20.07,21.45A128.58,128.58,0,0,1,19.12,89C7.12,87.18.2,78.59,0,66.4,0,62.16,0,58,0,53.75Z"/>
                    <path class="cls-1" d="M278.59,111.55c-3.31-.35-5.77-1.57-7.14-4.39-.88-1.81-1.19-1.83-2.2,0a8,8,0,0,1-14.37-6.87,7.61,7.61,0,0,1,6.67-5A7.38,7.38,0,0,1,269,98.93c1,1.76,1.34,2.19,2.59.08a7.51,7.51,0,0,1,7.92-3.75,7.87,7.87,0,0,1,6.58,5.83,7.7,7.7,0,0,1-2.66,8.31A27.36,27.36,0,0,1,278.59,111.55Z"/>
                    <path class="cls-1" d="M221.65,29.72A8.2,8.2,0,0,1,213.59,22a8.13,8.13,0,1,1,16.26-.14C229.92,26,226,29.74,221.65,29.72Z"/>
                    <path class="cls-1" d="M371.59,21.66c0,4.72-3.19,8.05-7.77,8.06a8.13,8.13,0,0,1-8.23-7.85,8.28,8.28,0,0,1,8.25-8.15,7.79,7.79,0,0,1,7.75,7.83Z"/>
                    <path class="cls-1" d="M37.59,111.12a7.79,7.79,0,0,1-8.07-7.5c0-.11,0-.23,0-.34a8.33,8.33,0,0,1,8.28-8.13,8.22,8.22,0,0,1,7.76,8,7.66,7.66,0,0,1-7.34,8Z"/>
                </g>
            </g>
        </g>
    </g>
</svg>