<svg id="LaterLogo_Bright-624ed4e5" xmlns="http://www.w3.org/2000/svg" width="116.635" height="39.426" viewBox="0 0 116.635 39.426">
  <path id="Path_8194" data-name="Path 8194" d="M0,46.571H6.571V40H0Z" transform="translate(0 -26.858)" fill="#25c6fe" fill-rule="evenodd"/>
  <path id="Path_8195" data-name="Path 8195" d="M20,66.571h6.571V60H20Z" transform="translate(-13.429 -40.287)" fill="#5d5cb0" fill-rule="evenodd"/>
  <path id="Path_8196" data-name="Path 8196" d="M100,106.571h6.571V100H100Z" transform="translate(-67.145 -67.145)" fill="#00eda4" fill-rule="evenodd"/>
  <path id="Path_8197" data-name="Path 8197" d="M20,6.571h6.571V0H20Z" transform="translate(-13.429)" fill="#ffb404" fill-rule="evenodd"/>
  <path id="Path_8198" data-name="Path 8198" d="M60,66.576h6.571V60.007H60Z" transform="translate(-40.287 -40.292)" fill="#f98c65" fill-rule="evenodd"/>
  <path id="Path_8199" data-name="Path 8199" d="M80,46.571h6.571V40H80Z" transform="translate(-53.716 -26.858)" fill="#70c889" fill-rule="evenodd"/>
  <path id="Path_8200" data-name="Path 8200" d="M40,106.571h6.571V100H40Z" transform="translate(-26.858 -67.145)" fill="#25c6fe" fill-rule="evenodd"/>
  <path id="Path_8201" data-name="Path 8201" d="M335,6.571h6.571V0H335Z" transform="translate(-224.936)" fill="#bddf60" fill-rule="evenodd"/>
  <path id="Path_8202" data-name="Path 8202" d="M335,26.571h6.571V20H335Z" transform="translate(-224.936 -13.429)" fill="#25c6fe" fill-rule="evenodd"/>
  <path id="Path_8203" data-name="Path 8203" d="M315,6.571h6.571V0H315Z" transform="translate(-211.507)" fill="#93a2ff" fill-rule="evenodd"/>
  <g id="Group_3465" data-name="Group 3465" transform="translate(13.142 6.571)">
    <path id="Path_8204" data-name="Path 8204" d="M13.142,19.713H6.571V0H0V26.284H19.713V19.713Z" fill="#263238" fill-rule="evenodd"/>
    <path id="Path_8205" data-name="Path 8205" d="M73.737,34.571a3.615,3.615,0,0,0,3.217-3.444v-.417h-.605c-2.082,0-4.466.606-4.466,2.233C71.882,33.852,72.45,34.571,73.737,34.571Zm2.876-7.607h.265v-.341c0-1.627-1.249-2.157-2.876-2.157a11.632,11.632,0,0,0-5.261,1.855L66.471,21.7a14.743,14.743,0,0,1,8.175-2.535c5.487,0,8.78,2.99,8.78,7.948v12H77.446V37.94a10.342,10.342,0,0,1,.076-1.212h-.076a6.067,6.067,0,0,1-5.526,2.839c-3.634,0-6.623-2.422-6.623-6.283C65.3,27.608,73.585,26.964,76.613,26.964Z" transform="translate(-43.844 -12.87)" fill="#263238" fill-rule="evenodd"/>
    <path id="Path_8206" data-name="Path 8206" d="M126.431,15.249h-2.5V10.14h2.687v-5.6h6.358v5.6h4.087v5.109h-4.087v5.98c0,2.2,2.233,2.5,3.482,2.5a8.652,8.652,0,0,0,.87-.038v5.677a12.587,12.587,0,0,1-1.779.114c-3.1,0-9.121-.833-9.121-7.38Z" transform="translate(-83.215 -3.048)" fill="#263238" fill-rule="evenodd"/>
    <path id="Path_8207" data-name="Path 8207" d="M180.617,26.888a2.653,2.653,0,0,0-2.574-2.8,3.2,3.2,0,0,0-3.141,2.8Zm-2.422-7.72c5.753,0,9.007,4.012,9.007,9.424,0,.643-.152,2.043-.152,2.043h-12.3a4.352,4.352,0,0,0,4.542,3.482,10.219,10.219,0,0,0,5.374-1.968l2.422,4.579a13.16,13.16,0,0,1-8.327,2.839c-6.963,0-10.71-5.033-10.71-10.219C168.052,23.634,171.912,19.168,178.195,19.168Z" transform="translate(-112.838 -12.87)" fill="#263238" fill-rule="evenodd"/>
    <path id="Path_8208" data-name="Path 8208" d="M233.711,19.855h6.282v3.292a10.334,10.334,0,0,1-.076,1.211h.076a6.766,6.766,0,0,1,6.207-4.844,4.428,4.428,0,0,1,.757.076v6.434a6.98,6.98,0,0,0-1.325-.113,4.92,4.92,0,0,0-5.034,3.406,8.829,8.829,0,0,0-.34,2.649v7.38h-6.548Z" transform="translate(-156.925 -13.103)" fill="#263238" fill-rule="evenodd"/>
  </g>
</svg>
