<svg xmlns="http://www.w3.org/2000/svg" width="60.263" height="39.259" viewBox="0 0 60.263 39.259">
  <g id="Group_3290" data-name="Group 3290" transform="translate(-1148.31 -474.983)">
    <path id="Path_738" data-name="Path 738" d="M742.295,13.706a7.866,7.866,0,0,1,4.712-1.533c2.683-.009,5.364,0,8.047,0a16.149,16.149,0,0,1,2.813.126c-1.206.311-2.366.761-3.543,1.162q-5.256,1.835-10.519,3.657c-1.492.539-3.01,1.01-4.484,1.6A8.034,8.034,0,0,1,742.295,13.706Z" transform="translate(409.088 462.818)" fill="#0c52b0"/>
    <path id="Path_739" data-name="Path 739" d="M767.053,12.16c7.99.01,15.978,0,23.968.007a7.783,7.783,0,0,1,5.307,1.961,8.185,8.185,0,0,1,2.54,5.009c.088,3.413.018,6.828.035,10.242q0,6.939,0,13.88a8.251,8.251,0,0,1-2.094,5.8,7.377,7.377,0,0,1-5.5,2.358c-5.285,0-10.57.029-15.854-.029,5.105-2.6,10.239-5.155,15.357-7.734a7.441,7.441,0,0,0,2.494-1.6,4.2,4.2,0,0,0,.735-4.173c-.43-1.09-1.011-2.113-1.5-3.18q-2.165-4.48-4.328-8.963a4.156,4.156,0,0,0-4.774-2.448,8.4,8.4,0,0,0-1.672.728c.755,1.957,1.542,3.9,2.329,5.846a8.8,8.8,0,0,1,.9,3.465,6.2,6.2,0,0,1-3.618,5.721Q771.9,43.016,762.4,46.97l-.031.1c.653,1.458,1.376,2.886,2.066,4.328-5.512.037-11.022.013-16.532.02a16.782,16.782,0,0,1-3.307-.167,7.318,7.318,0,0,1-4.882-3.6,8.13,8.13,0,0,1-1.064-4.245c.025-4.574-.051-9.149.05-13.721.861,2.379,1.6,4.8,2.442,7.189a4.1,4.1,0,0,0,5.364,2.395c7.628-2.671,15.27-5.3,22.9-7.977a4.1,4.1,0,0,0,2.613-3.957,5.332,5.332,0,0,0-.368-1.84q-1.672-4.984-3.339-9.971a24.948,24.948,0,0,0-1.26-3.364m4.147,5.762c.647,2.016,1.333,4.02,2,6.027a11.365,11.365,0,0,1,.783,2.95,6.394,6.394,0,0,1-2.538,5.561A9.149,9.149,0,0,1,768.9,33.6c-6,2.1-12.02,4.15-18.006,6.293q.752,1.841,1.48,3.688a5.453,5.453,0,0,0,1.39,2.294,4.127,4.127,0,0,0,4.224.747q11.29-4.723,22.587-9.426a4.157,4.157,0,0,0,2.449-3.286,4.856,4.856,0,0,0-.438-2.535c-1.568-3.891-3.117-7.791-4.692-11.681a4.17,4.17,0,0,0-3.244-2.617C773.427,16.842,772.294,17.479,771.2,17.922Z" transform="translate(409.66 462.823)" fill="#0c52b0"/>
  </g>
</svg>
