<svg id="Group_3289" data-name="Group 3289" xmlns="http://www.w3.org/2000/svg" width="55.77" height="55.77" viewBox="0 0 55.77 55.77">
  <path id="Path_733" data-name="Path 733" d="M1.5,0h15.6a1.483,1.483,0,0,1,1.066,2.522L2.6,18.143A1.489,1.489,0,0,1,.051,17.109L0,1.488A1.487,1.487,0,0,1,1.5,0M54.3,55.77H38.676a1.483,1.483,0,0,1-1.067-2.522L53.166,37.626a1.49,1.49,0,0,1,2.552,1.034l.051,15.622A1.458,1.458,0,0,1,54.3,55.77M2.321,42.255,42.265,2.32A7.907,7.907,0,0,1,53.449,13.5L13.5,53.449A7.912,7.912,0,0,1,2.321,42.255Z" fill="#ffd23f" fill-rule="evenodd"/>
</svg>
