<svg xmlns="http://www.w3.org/2000/svg" width="108" height="15" viewBox="0 0 108 15">
  <g id="Copy_Right" data-name="Copy Right" transform="translate(-79 -226.375)">
    <text id="خلق_شده_با_در_لندین" data-name="خلق شده با         در لندین" transform="translate(79 226.375)" fill="#fff" font-size="10" font-family="dana-light, dana" font-weight="300"><tspan x="2.926" y="9" xml:space="preserve">خلق شده با         در لندین</tspan></text>
    <path id="like" d="M11.387,4.988A3.233,3.233,0,0,0,8.3,1.826,3.068,3.068,0,0,0,5.672,3.341,2.957,2.957,0,0,0,3.106,1.826,3.233,3.233,0,0,0,.019,4.988a3.26,3.26,0,0,0,.1,1.2A5.154,5.154,0,0,0,1.7,8.825l3.974,3.606L9.711,8.825A5.155,5.155,0,0,0,11.29,6.19,3.268,3.268,0,0,0,11.387,4.988Z" transform="translate(121.445 225.808)" fill="#d62a3d"/>
  </g>
</svg>
