<svg xmlns="http://www.w3.org/2000/svg" width="93.034" height="86.159" viewBox="0 0 93.034 86.159">
  <g id="Group_3268" data-name="Group 3268" transform="translate(-500.001 -2602.681)">
    <circle id="Ellipse_258" data-name="Ellipse 258" cx="32.927" cy="32.927" r="32.927" transform="translate(527.181 2604.314)" fill="#3e64ff" opacity="0.075"/>
    <g id="share" transform="translate(465.884 2597.638)">
      <path id="Path_691" data-name="Path 691" d="M168.982,164.283a17.829,17.829,0,0,1,3.327-34.481,17.838,17.838,0,1,0-.017,35.29A17.885,17.885,0,0,1,168.982,164.283Z" transform="translate(-97.524 -103.184)" fill="#d4e1f4"/>
      <g id="Group_3260" data-name="Group 3260" transform="translate(34.117 5.043)">
        <path id="Path_692" data-name="Path 692" d="M292.228,358.85a7.832,7.832,0,1,0,1.461-15.14l-3.641-14.251a1.03,1.03,0,0,0-2,.51l3.655,14.3a7.827,7.827,0,0,0,.521,14.578Zm-2.866-9.3a5.777,5.777,0,1,1,3.549,7.359A5.777,5.777,0,0,1,289.362,349.552Z" transform="translate(-243.576 -273.133)" fill="#555574"/>
        <path id="Path_693" data-name="Path 693" d="M41.34,287.754a7.244,7.244,0,0,0,6.833-4.84,7.166,7.166,0,0,0,.136-4.342l7.16-3.484a1.03,1.03,0,1,0-.9-1.852l-7.095,3.453a7.229,7.229,0,1,0-6.134,11.067Zm-4.653-4.985a5.175,5.175,0,1,1,4.951,2.917A5.172,5.172,0,0,1,36.687,282.769Z" transform="translate(-34.117 -227.115)" fill="#555574"/>
        <path id="Path_694" data-name="Path 694" d="M212.876,13.062a4.154,4.154,0,0,0,.59.156l1.613,12.4a1.03,1.03,0,0,0,1.02.9,1.049,1.049,0,0,0,.134-.009,1.03,1.03,0,0,0,.888-1.154l-1.6-12.272a4.125,4.125,0,1,0-2.65-.023Zm-.592-4.58a2.069,2.069,0,1,1,.089,1.581A2.072,2.072,0,0,1,212.284,8.482Z" transform="translate(-179.901 -5.043)" fill="#555574"/>
        <path id="Path_695" data-name="Path 695" d="M366.656,266.286a4.134,4.134,0,0,0-3.961.69l-6.86-3.855a1.03,1.03,0,1,0-1.009,1.8l6.634,3.728c-.023.058-.046.116-.067.176a4.131,4.131,0,1,0,5.263-2.534Zm.592,4.58a2.069,2.069,0,1,1-.089-1.58A2.072,2.072,0,0,1,367.248,270.866Z" transform="translate(-299.342 -218.714)" fill="#555574"/>
        <path id="Path_696" data-name="Path 696" d="M363.691,104.628a5.108,5.108,0,0,0-6.8,4.966l-12.171,6.254a1.03,1.03,0,1,0,.941,1.832l11.726-6.025a5.113,5.113,0,1,0,6.3-7.027Zm1.2,5.832a3.051,3.051,0,1,1-.131-2.331A3.051,3.051,0,0,1,364.886,110.46Z" transform="translate(-290.945 -87.295)" fill="#555574"/>
      </g>
      <path id="Path_697" data-name="Path 697" d="M178.69,144.09a19.909,19.909,0,1,0-25.362,12.227A19.891,19.891,0,0,0,178.69,144.09ZM159.88,155.358a17.836,17.836,0,1,1,16.866-11.949A17.836,17.836,0,0,1,159.88,155.358Z" transform="translate(-87.693 -93.259)" fill="#33ade2"/>
      <path id="Path_698" data-name="Path 698" d="M239.584,194.057a3.451,3.451,0,0,0,3.613-3.438,3.613,3.613,0,1,0-7.226,0A3.451,3.451,0,0,0,239.584,194.057Zm0-4.992a1.555,1.555,0,0,1,1.554,1.554,1.565,1.565,0,0,1-3.107,0A1.555,1.555,0,0,1,239.584,189.066Z" transform="translate(-167.207 -150.73)" fill="#33ade2"/>
      <path id="Path_699" data-name="Path 699" d="M229.693,229.824h-.19a5.594,5.594,0,0,0-5.587,5.587v.714a1.339,1.339,0,0,0,1.338,1.338h8.689a1.339,1.339,0,0,0,1.338-1.338v-.714a5.593,5.593,0,0,0-5.587-5.587Zm-3.717,5.578a3.532,3.532,0,0,1,3.527-3.519h.19a3.531,3.531,0,0,1,3.527,3.519Z" transform="translate(-157.221 -186.199)" fill="#33ade2"/>
    </g>
  </g>
</svg>
