<svg xmlns="http://www.w3.org/2000/svg" width="92.034" height="74.281" viewBox="0 0 92.034 74.281">
  <g id="Group_3269" data-name="Group 3269" transform="translate(-226 -2603.887)">
    <circle id="Ellipse_258" data-name="Ellipse 258" cx="32.927" cy="32.927" r="32.927" transform="translate(252.181 2604.314)" fill="#3e64ff" opacity="0.075"/>
    <g id="features" transform="translate(215.989 2593.905)">
      <path id="Path_700" data-name="Path 700" d="M188.642,282.6a1.279,1.279,0,0,0,.277-1.052,4.189,4.189,0,0,1,1.3-3.846,4.111,4.111,0,0,1,1.251-.782,4.1,4.1,0,0,0-4.271.782,4.189,4.189,0,0,0-1.3,3.846,1.279,1.279,0,0,1-.276,1.051,1.258,1.258,0,0,1-.969.453h3.019A1.258,1.258,0,0,0,188.642,282.6Z" transform="translate(-148.277 -226.396)" fill="#d4e1f4"/>
      <path id="Path_701" data-name="Path 701" d="M138.662,342V321.945a2.766,2.766,0,0,1,2.75-2.775h-3.019a2.766,2.766,0,0,0-2.75,2.775V342a2.766,2.766,0,0,0,2.75,2.775h3.019A2.766,2.766,0,0,1,138.662,342Z" transform="translate(-106.665 -262.509)" fill="#d4e1f4"/>
      <path id="Path_702" data-name="Path 702" d="M288.233,344.825l.057-7.457a1.27,1.27,0,0,0-1.495-1.258,3.972,3.972,0,0,1-.742.062,4.165,4.165,0,1,1,.8-8.257,1.273,1.273,0,0,0,1.516-1.239l.057-7.433-3.019-.024-.057,7.457a1.273,1.273,0,0,1-1.516,1.239,4.162,4.162,0,1,0-.8,8.257,3.972,3.972,0,0,0,.742-.062,1.269,1.269,0,0,1,1.495,1.258l-.057,7.457L307.87,345h.022a2.751,2.751,0,0,0,.323-.021Z" transform="translate(-228.318 -262.55)" fill="#d4e1f4"/>
      <path id="Path_703" data-name="Path 703" d="M291.2,138.1a2.77,2.77,0,0,0-2.75,2.755l-.021,2.878c0,.012,0,.024,0,.037s0,.032,0,.048,0,.029-.006.043,0,.031-.008.046-.007.028-.01.042-.007.03-.012.045a.41.41,0,0,1-.015.041c-.006.014-.01.029-.015.042a.423.423,0,0,1-.018.039c-.006.013-.013.027-.02.04s-.014.024-.022.036-.015.026-.023.038-.016.022-.025.034l-.027.036c-.009.012-.018.02-.027.03l-.031.034-.029.027-.035.032-.03.023-.039.029-.033.02-.041.025-.036.018-.043.02-.039.015c-.013.005-.029.011-.043.015l-.043.012-.043.011-.048.008-.042.006-.05,0-.037,0-1.058.011a4.165,4.165,0,1,0-.01,8.33l1,.015.044,0,.045,0,.047.008.043.007.045.012.041.011.044.016.038.015.043.021.036.018.041.025.033.021.038.029c.013.01.021.015.031.024l.034.031.03.028.03.033.028.032c.009.011.017.023.026.035s.018.023.026.035.015.024.022.036l.023.039c.008.013.012.025.018.038s.013.027.019.042.009.026.014.039.011.03.015.045.007.027.01.04.008.03.011.047,0,.027.006.041.005.032.007.049,0,.027,0,.04,0,.032,0,.048l-.066,9.732h3.019l.066-9.732c0-.016,0-.032,0-.048a.3.3,0,0,0,0-.04c0-.017,0-.033-.007-.049s0-.028-.006-.041-.008-.031-.011-.047-.006-.027-.01-.04-.01-.03-.015-.045a.4.4,0,0,0-.014-.039c-.005-.013-.013-.028-.019-.042s-.011-.026-.018-.038-.015-.026-.023-.039-.014-.025-.022-.036l-.026-.035-.025-.035c-.009-.011-.019-.021-.028-.032s-.019-.023-.03-.033l-.03-.028-.034-.031-.031-.024-.038-.029-.034-.021-.041-.025-.036-.018c-.012-.006-.028-.015-.043-.021l-.039-.015-.044-.016-.041-.011-.045-.012-.043-.007-.047-.008-.045,0-.044,0-1-.015a4.165,4.165,0,1,1,.01-8.33l1.058-.011.037,0,.05,0,.042-.006.048-.008.043-.011.043-.012.043-.015.039-.015.043-.02.036-.018.041-.025.033-.02.039-.029.03-.023.035-.032.029-.027.031-.034.027-.03c.009-.01.018-.024.027-.036l.025-.034c.008-.012.015-.025.023-.038s.015-.024.022-.036l.02-.04c.007-.013.013-.026.018-.039s.011-.028.015-.042.01-.027.015-.041.008-.03.012-.045.007-.028.01-.042.005-.031.008-.046,0-.029.006-.043,0-.032,0-.048,0-.024,0-.037l.021-2.878a2.77,2.77,0,0,1,2.75-2.755Z" transform="translate(-231.186 -108.776)" fill="#d4e1f4"/>
      <g id="Group_3261" data-name="Group 3261" transform="translate(27.166 27.513)">
        <path id="Path_704" data-name="Path 704" d="M176.2,126.1H156.488a4.586,4.586,0,0,0-4.561,4.554l-.015,1.987-.159,0a5.977,5.977,0,1,0-.014,11.953h.087l-.06,8.838h-7.684a6.074,6.074,0,0,0-.071-1.469,5.947,5.947,0,0,0-5.271-4.923,5.873,5.873,0,0,0-4.564,1.512,6,6,0,0,0-1.961,4.437q0,.222.017.444H128.2a4.579,4.579,0,0,0-4.561,4.587v20.052a4.579,4.579,0,0,0,4.561,4.587h23.589l24.222.189h.036a4.519,4.519,0,0,0,3.192-1.312,4.566,4.566,0,0,0,1.368-3.246l.147-22.967h.006V130.687A4.579,4.579,0,0,0,176.2,126.1Zm-28.576,12.519a4.155,4.155,0,0,1,4.14-4.165l1.058-.011.037,0,.05,0,.042-.006.048-.008.043-.011.043-.012.043-.015.039-.015.043-.02.036-.018.041-.025.033-.02.039-.029.03-.023.035-.032.029-.027.031-.034.027-.03c.009-.01.018-.024.027-.036l.025-.034c.008-.012.015-.025.023-.038s.015-.024.022-.036l.02-.04c.007-.013.013-.026.018-.039s.011-.028.015-.042.01-.027.015-.041.008-.03.012-.045.007-.028.01-.042.005-.031.008-.046,0-.029.006-.043,0-.032,0-.048,0-.024,0-.037l.021-2.878a2.77,2.77,0,0,1,2.75-2.755H176.2a2.766,2.766,0,0,1,2.75,2.776v22.827h-6.485a1.258,1.258,0,0,0-.969.453,1.279,1.279,0,0,0-.276,1.051,4.189,4.189,0,0,1-1.3,3.846,4.082,4.082,0,0,1-3.172,1.049,4.132,4.132,0,0,1-3.659-3.424,4.229,4.229,0,0,1,.006-1.472,1.281,1.281,0,0,0-.273-1.049,1.264,1.264,0,0,0-.966-.459l-8.278-.067.066-9.732c0-.016,0-.032,0-.048a.3.3,0,0,0,0-.04c0-.017,0-.033-.007-.049s0-.028-.006-.041-.008-.031-.011-.047-.006-.027-.01-.04-.01-.03-.015-.045a.41.41,0,0,0-.014-.039c-.005-.013-.013-.028-.019-.042s-.011-.026-.018-.038-.015-.026-.023-.039-.014-.025-.022-.036-.017-.024-.026-.035l-.026-.035c-.009-.011-.019-.021-.028-.032s-.019-.023-.03-.033l-.03-.028-.034-.031-.031-.024-.038-.029-.034-.021-.041-.025-.036-.018c-.012-.006-.028-.015-.043-.021l-.038-.015-.044-.016-.041-.011-.045-.012-.043-.007-.047-.008-.045,0-.044,0-1-.015a4.152,4.152,0,0,1-4.129-4.165Zm-22.172,39.455V158.023a2.766,2.766,0,0,1,2.75-2.775h4.649a1.259,1.259,0,0,0,.969-.453,1.279,1.279,0,0,0,.277-1.052,4.189,4.189,0,0,1,1.3-3.846,4.084,4.084,0,0,1,3.172-1.049,4.132,4.132,0,0,1,3.659,3.424,4.226,4.226,0,0,1-.006,1.469,1.282,1.282,0,0,0,.277,1.053,1.263,1.263,0,0,0,.972.455h8.285l-.053,6.839a5.936,5.936,0,0,0-6.389,5.326,6.027,6.027,0,0,0,1.494,4.63,5.942,5.942,0,0,0,4.369,1.978c.144,0,.29,0,.435-.013l-.052,6.842H128.2a2.766,2.766,0,0,1-2.751-2.776Zm53.345.207a2.768,2.768,0,0,1-.828,1.967,2.719,2.719,0,0,1-1.921.79h-.022l-22.657-.176.057-7.457a1.27,1.27,0,0,0-1.495-1.258,3.975,3.975,0,0,1-.742.062,4.165,4.165,0,1,1,.8-8.257,1.273,1.273,0,0,0,1.517-1.239l.057-7.457,7.667.062a6.067,6.067,0,0,0,.07,1.478,5.947,5.947,0,0,0,5.271,4.923q.3.029.592.029a5.858,5.858,0,0,0,3.972-1.54,6,6,0,0,0,1.961-4.437c0-.147-.005-.3-.016-.444h5.861Z" transform="translate(-123.639 -126.1)" fill="#555574"/>
        <path id="Path_705" data-name="Path 705" d="M454.806,260.957a.906.906,0,0,0,.906-.906v-1.881a.906.906,0,0,0-1.812,0v1.881a.906.906,0,0,0,.906.906Z" transform="translate(-404.04 -237.463)" fill="#555574"/>
        <path id="Path_706" data-name="Path 706" d="M454.806,173.627a.906.906,0,0,0,.906-.906v-9.848a.906.906,0,1,0-1.812,0v9.848a.906.906,0,0,0,.906.906Z" transform="translate(-404.04 -156.552)" fill="#555574"/>
        <path id="Path_707" data-name="Path 707" d="M457.1,450.223a.906.906,0,0,0,.906-.906v-1.881a.906.906,0,0,0-1.812,0v1.881A.906.906,0,0,0,457.1,450.223Z" transform="translate(-405.986 -398.154)" fill="#555574"/>
        <path id="Path_708" data-name="Path 708" d="M457.1,362.891a.906.906,0,0,0,.906-.906v-9.848a.906.906,0,0,0-1.812,0v9.848A.906.906,0,0,0,457.1,362.891Z" transform="translate(-405.986 -317.243)" fill="#555574"/>
      </g>
      <path id="Path_709" data-name="Path 709" d="M45.056,22.015l-4.191-2.572a6,6,0,0,0-1.25-8.252,5.865,5.865,0,0,0-4.694-1.1,5.954,5.954,0,0,0-3.961,2.763q-.113.186-.211.381l-3.438-2.11a4.547,4.547,0,0,0-6.273,1.531L10.675,29.777a4.608,4.608,0,0,0,1.52,6.3L15.166,37.9a1.208,1.208,0,0,0,1.719-.5,3.676,3.676,0,1,1,6.236,3.823,1.208,1.208,0,0,0,.326,1.764l6.362,3.9a4.507,4.507,0,0,0,2.365.668,4.563,4.563,0,0,0,3.889-2.168l2.173-3.529A1.273,1.273,0,0,0,37.7,40.04a4.181,4.181,0,1,1,3.515-7.588,4.235,4.235,0,0,1,.822.512,1.272,1.272,0,0,0,1.878-.324l2.644-4.294a4.6,4.6,0,0,0-1.5-6.33Zm-.041,5.38-2.34,3.8a6.089,6.089,0,0,0-.684-.38,5.954,5.954,0,0,0-7.247,1.759,6.021,6.021,0,0,0,1.61,8.795l.041.025-1.874,3.043a2.744,2.744,0,0,1-3.764.906l-5.827-3.576a5.488,5.488,0,1,0-9.354-5.74l-2.434-1.494a2.792,2.792,0,0,1-.918-3.818l10.362-17.12a2.735,2.735,0,0,1,3.775-.925l3.971,2.436a1.257,1.257,0,0,0,1.067.119,1.274,1.274,0,0,0,.781-.755,4.146,4.146,0,0,1,3.083-2.6,4.073,4.073,0,0,1,3.261.767,4.185,4.185,0,0,1,.586,6.106,1.261,1.261,0,0,0-.305,1.025,1.275,1.275,0,0,0,.6.9l4.708,2.889a2.79,2.79,0,0,1,.907,3.836Z" fill="#33ade2"/>
    </g>
  </g>
</svg>
