<svg xmlns="http://www.w3.org/2000/svg" width="91.86" height="84.89" viewBox="0 0 91.86 84.89">
  <g id="Group_3267" data-name="Group 3267" transform="translate(-775.174 -2604.314)">
    <circle id="Ellipse_258" data-name="Ellipse 258" cx="32.927" cy="32.927" r="32.927" transform="translate(801.18 2604.314)" fill="#3e64ff" opacity="0.075"/>
    <g id="wallet" transform="translate(775.174 2611.147)">
      <g id="Group_3259" data-name="Group 3259" transform="translate(10.943 2.794)">
        <path id="Path_675" data-name="Path 675" d="M253.793,21.058l4.6-4.6,8.507,8.506L256.563,14.625l-4.6,4.6,5.737,5.737Zm0,0" transform="translate(-216.74 -14.625)" fill="#d4e1f4"/>
        <path id="Path_676" data-name="Path 676" d="M167.517,16.676l-9.962,9.962h3.664l8.13-8.13Zm0,0" transform="translate(-139.631 -16.3)" fill="#d4e1f4"/>
        <path id="Path_677" data-name="Path 677" d="M298.339,83.051H298.3l.017.017Zm0,0" transform="translate(-254.593 -70.514)" fill="#d4e1f4"/>
        <path id="Path_678" data-name="Path 678" d="M165.4,83.051h-.034l.017.017Zm0,0" transform="translate(-146.012 -70.514)" fill="#d4e1f4"/>
        <path id="Path_679" data-name="Path 679" d="M63.391,89.28a6.236,6.236,0,0,1,6.229-6.229H65.956a6.236,6.236,0,0,0-6.229,6.229v20.512q1.866-1.149,3.664-2.4Zm0,0" transform="translate(-59.727 -70.514)" fill="#d4e1f4"/>
        <path id="Path_680" data-name="Path 680" d="M125.415,216.207a1.1,1.1,0,0,0-.664-1.01l-.109-.047a78.969,78.969,0,0,1-16.156-9.355,1.1,1.1,0,0,0-1.319,0c-.389.291-.781.575-1.174.859a78.9,78.9,0,0,0,14.985,8.5l.108.047a1.1,1.1,0,0,1,.665,1.01v9.566a17.46,17.46,0,0,1-1.487,7.123h3.664a17.461,17.461,0,0,0,1.487-7.123Zm0,0" transform="translate(-97.516 -170.591)" fill="#d4e1f4"/>
        <path id="Path_681" data-name="Path 681" d="M310.262,181.234a6.892,6.892,0,0,0-6.647,8.729,6.908,6.908,0,0,1,6.647-5.064h15.257v-3.664Zm0,0" transform="translate(-258.727 -150.709)" fill="#d4e1f4"/>
      </g>
      <path id="Path_682" data-name="Path 682" d="M117.817,31.121h-1.933V21.56a8.439,8.439,0,0,0-8.428-8.428H103.2L90.525.461a1.1,1.1,0,0,0-1.554,0L83.591,5.84l-5-5a1.1,1.1,0,0,0-1.554,0L64.741,13.133H56.155a8.437,8.437,0,0,0-8.428,8.428V44.013h2.2V21.56a6.236,6.236,0,0,1,6.229-6.229h9.461l.017.017.017-.017H89.972l.017.017.017-.017h17.449a6.237,6.237,0,0,1,6.229,6.229v9.561H101.46a9.094,9.094,0,0,0,0,18.189h12.225v9.56a6.236,6.236,0,0,1-6.229,6.229H70.894v2.2h36.561a8.438,8.438,0,0,0,8.428-8.428v-9.56h1.933a1.1,1.1,0,0,0,1.1-1.1V32.22A1.1,1.1,0,0,0,117.817,31.121ZM89.748,2.794l10.339,10.338h-9.2L85.146,7.395Zm-21.9,10.338,9.962-9.962,9.962,9.962Zm48.868,33.979H101.46a6.9,6.9,0,0,1,0-13.791h15.257Zm0,0" transform="translate(-38.982)" fill="#555574"/>
      <path id="Path_683" data-name="Path 683" d="M320.277,200.606a4.1,4.1,0,1,0,4.1-4.1A4.1,4.1,0,0,0,320.277,200.606Zm4.1-1.9a1.9,1.9,0,1,1-1.9,1.9A1.9,1.9,0,0,1,324.375,198.706Zm0,0" transform="translate(-261.597 -160.39)" fill="#555574"/>
      <path id="Path_684" data-name="Path 684" d="M34.514,215.2l-.109-.047A78.968,78.968,0,0,1,18.249,205.8a1.1,1.1,0,0,0-1.319,0A78.979,78.979,0,0,1,.772,215.151l-.109.047A1.1,1.1,0,0,0,0,216.207v9.566c0,6.189,2.957,11.624,8.552,15.72a30.154,30.154,0,0,0,8.443,4.317,1.047,1.047,0,0,0,.308.044,1.108,1.108,0,0,0,.3-.041,31.64,31.64,0,0,0,8.724-4.31c5.791-4.094,8.852-9.534,8.852-15.73v-9.565A1.1,1.1,0,0,0,34.514,215.2Zm-1.534,10.576a15.537,15.537,0,0,1-4.464,10.962,1.1,1.1,0,0,0-2.194.081v1.008a1.1,1.1,0,0,0,.263.714q-.7.581-1.478,1.134a30.409,30.409,0,0,1-7.8,3.931A28.929,28.929,0,0,1,9.8,239.68q-.686-.5-1.311-1.034a1.1,1.1,0,0,0,.369-.821v-1.008a1.1,1.1,0,1,0-2.2,0v.088A15.876,15.876,0,0,1,2.2,225.774v-8.845a81.162,81.162,0,0,0,15.39-8.884,81.184,81.184,0,0,0,15.39,8.884Zm0,0" transform="translate(0 -167.797)" fill="#33ade2"/>
      <path id="Path_685" data-name="Path 685" d="M91.1,370.086a1.1,1.1,0,0,0-1.1,1.1v1.008a1.1,1.1,0,1,0,2.2,0v-1.008A1.1,1.1,0,0,0,91.1,370.086Zm0,0" transform="translate(-73.51 -302.166)" fill="#33ade2"/>
      <path id="Path_686" data-name="Path 686" d="M108.986,370.086a1.1,1.1,0,0,0-1.1,1.1v1.008a1.1,1.1,0,1,0,2.2,0v-1.008A1.1,1.1,0,0,0,108.986,370.086Zm0,0" transform="translate(-88.12 -302.166)" fill="#33ade2"/>
      <path id="Path_687" data-name="Path 687" d="M125.773,371.185v1.008a1.1,1.1,0,1,0,2.2,0v-1.008a1.1,1.1,0,1,0-2.2,0Zm0,0" transform="translate(-102.73 -302.166)" fill="#33ade2"/>
      <path id="Path_688" data-name="Path 688" d="M73.213,370.086a1.1,1.1,0,0,0-1.1,1.1v1.008a1.1,1.1,0,1,0,2.2,0v-1.008A1.1,1.1,0,0,0,73.213,370.086Zm0,0" transform="translate(-58.901 -302.166)" fill="#33ade2"/>
      <path id="Path_689" data-name="Path 689" d="M55.326,370.086a1.1,1.1,0,0,0-1.1,1.1v1.008a1.1,1.1,0,1,0,2.2,0v-1.008A1.1,1.1,0,0,0,55.326,370.086Zm0,0" transform="translate(-44.291 -302.166)" fill="#33ade2"/>
      <path id="Path_690" data-name="Path 690" d="M63.835,294.735a1.1,1.1,0,0,0-1.554,1.555l3.734,3.733a1.1,1.1,0,0,0,1.554,0l6.564-6.563a1.1,1.1,0,0,0-1.554-1.555l-5.786,5.786Zm0,0" transform="translate(-50.617 -238.045)" fill="#33ade2"/>
    </g>
  </g>
</svg>
