<svg xmlns="http://www.w3.org/2000/svg" width="83.034" height="76.23" viewBox="0 0 83.034 76.23">
  <g id="Group_3266" data-name="Group 3266" transform="translate(-1061 -2602.314)">
    <circle id="Ellipse_258" data-name="Ellipse 258" cx="32.927" cy="32.927" r="32.927" transform="translate(1078.181 2602.314)" fill="#3e64ff" opacity="0.075"/>
    <path id="Path_672" data-name="Path 672" d="M46.486,104.339A31.655,31.655,0,0,1,21.84,52.867,31.634,31.634,0,1,0,66.262,97.382,31.458,31.458,0,0,1,46.486,104.339Zm0,0" transform="translate(1052.623 2567.713)" fill="#d4e1f4"/>
    <path id="Path_673" data-name="Path 673" d="M33.24,66.545A33.272,33.272,0,1,1,66.48,33.272,33.294,33.294,0,0,1,33.24,66.545Zm0-63.3A30.026,30.026,0,1,0,63.234,33.272,30.044,30.044,0,0,0,33.24,3.246Zm0,0" transform="translate(1061 2612)" fill="#555574"/>
    <path id="Path_674" data-name="Path 674" d="M145.186,158.554a1.622,1.622,0,0,1-1.148-.476l-8.706-8.717a1.623,1.623,0,0,1,2.287-2.3l.01.01,8.168,8.179,17.9-1.636a1.623,1.623,0,0,1,.295,3.233l-18.655,1.705C145.284,158.552,145.235,158.554,145.186,158.554Zm0,0" transform="translate(948.035 2489.206)" fill="#33ade2"/>
  </g>
</svg>
