<svg xmlns="http://www.w3.org/2000/svg" width="66.501" height="75.858" viewBox="0 0 66.501 75.858">
  <g id="Group_3293" data-name="Group 3293" transform="translate(-1146 -472.983)">
    <g id="Group_3287" data-name="Group 3287" transform="translate(3 -2)">
      <path id="Path_738" data-name="Path 738" d="M742.069,13.589a7.268,7.268,0,0,1,4.354-1.416c2.479-.008,4.956,0,7.435,0a14.922,14.922,0,0,1,2.6.116c-1.114.288-2.186.7-3.274,1.073q-4.857,1.7-9.72,3.379c-1.378.5-2.781.933-4.144,1.477A7.423,7.423,0,0,1,742.069,13.589Z" transform="translate(409.081 462.817)" fill="#0c52b0"/>
      <path id="Path_739" data-name="Path 739" d="M764.894,12.16c7.383.009,14.764,0,22.147.007a7.192,7.192,0,0,1,4.9,1.812,7.563,7.563,0,0,1,2.347,4.628c.081,3.154.016,6.309.032,9.463q0,6.412,0,12.825a7.623,7.623,0,0,1-1.935,5.355,6.816,6.816,0,0,1-5.079,2.179c-4.884,0-9.767.027-14.649-.027,4.717-2.406,9.461-4.763,14.19-7.146a6.875,6.875,0,0,0,2.3-1.478,3.881,3.881,0,0,0,.679-3.856c-.4-1.007-.934-1.952-1.383-2.938q-2-4.14-4-8.282a3.84,3.84,0,0,0-4.411-2.262,7.766,7.766,0,0,0-1.545.672c.7,1.808,1.424,3.6,2.152,5.4a8.131,8.131,0,0,1,.836,3.2A5.73,5.73,0,0,1,778.143,37q-8.769,3.67-17.545,7.323l-.028.09c.6,1.347,1.272,2.667,1.909,4-5.093.034-10.184.012-15.276.019a15.507,15.507,0,0,1-3.055-.154,6.762,6.762,0,0,1-4.511-3.327,7.512,7.512,0,0,1-.983-3.922c.023-4.226-.047-8.453.046-12.678.8,2.2,1.477,4.438,2.256,6.643a3.784,3.784,0,0,0,4.956,2.213c7.048-2.468,14.109-4.9,21.157-7.371a3.785,3.785,0,0,0,2.414-3.656,4.926,4.926,0,0,0-.34-1.7q-1.545-4.605-3.085-9.213a23.051,23.051,0,0,0-1.164-3.108m3.832,5.324c.6,1.863,1.231,3.714,1.851,5.569a10.5,10.5,0,0,1,.724,2.726,5.908,5.908,0,0,1-2.345,5.139,8.454,8.454,0,0,1-2.353,1.054c-5.545,1.94-11.106,3.834-16.638,5.815q.695,1.7,1.368,3.408a5.039,5.039,0,0,0,1.284,2.12,3.814,3.814,0,0,0,3.9.69q10.432-4.364,20.871-8.71a3.841,3.841,0,0,0,2.263-3.037,4.487,4.487,0,0,0-.405-2.343c-1.449-3.6-2.88-7.2-4.335-10.793a3.853,3.853,0,0,0-3-2.418A5.746,5.746,0,0,0,768.726,17.484Z" transform="translate(409.66 462.823)" fill="#0c52b0"/>
    </g>
    <g id="Group_3288" data-name="Group 3288" transform="translate(3 -2)">
      <path id="Path_735" data-name="Path 735" d="M227.288.829a2.972,2.972,0,0,1,.861-.275.7.7,0,0,1,.781.638,2.092,2.092,0,0,1-.333,1.332c-.218.3-.613.338-.933.475a26.224,26.224,0,0,0-4.048,1.861,22.767,22.767,0,0,1,1.448,2.078,21.662,21.662,0,0,0,2.208,3.745,2.25,2.25,0,0,0,1.663.926,4.237,4.237,0,0,0,2.489-.6c.6-.485.319-1.339.123-1.956a1.415,1.415,0,0,1,.245-1.335,1.205,1.205,0,0,1,.721-.6.628.628,0,0,1,.707.487,16.138,16.138,0,0,1,.269,2.857,1.367,1.367,0,0,0,1.155,1.068,12.584,12.584,0,0,0,2.126.082,3.582,3.582,0,0,0,1.615-.316,1.524,1.524,0,0,0-.153-.818,15.005,15.005,0,0,0-.9-2.013,1.083,1.083,0,0,1-.018-.963,2.716,2.716,0,0,1,.906-1.4.579.579,0,0,1,.776.106,3.9,3.9,0,0,1,.558,1.188,9.229,9.229,0,0,1,.549,3.116,3.685,3.685,0,0,1-1.088,2.632,2.837,2.837,0,0,1-1.559.91,5.189,5.189,0,0,1-1.081.05,5.551,5.551,0,0,1-2.673-.429,3.566,3.566,0,0,1-1.126-.872,4.385,4.385,0,0,1-2.924,1.249,3.227,3.227,0,0,1-2.605-.657,7.287,7.287,0,0,1-1.344-1.4,3.427,3.427,0,0,1-1.98,1.8,11.031,11.031,0,0,1-3.5.31,3.4,3.4,0,0,1-2.026-.478,3,3,0,0,1-1.318-2.43c-.027-2.407-.306-4.8-.533-7.193a3.164,3.164,0,0,1,.216-2.02,1.452,1.452,0,0,1,1.669-.721,1.252,1.252,0,0,1,.344.913c-.009,1.414.01,2.828.018,4.241a16.154,16.154,0,0,0,.064,1.712c.019.859.045,1.719.041,2.578a.9.9,0,0,0,.472.755,3.1,3.1,0,0,0,1.352.15,7.281,7.281,0,0,0,3.2-.392c.3-.174.643-.437.641-.82a2.651,2.651,0,0,0-.58-1.662,13.766,13.766,0,0,0-2.989-2.866c-.429-.3-.223-.908-.122-1.332.135-.313.093-.809.492-.923A58.317,58.317,0,0,0,227.288.829Z" transform="translate(948.107 521.866)" fill="#0c52b0"/>
      <path id="Path_736" data-name="Path 736" d="M476.842,6.608a.96.96,0,0,1,1.123.15,2.126,2.126,0,0,1,.131.98c.036.692.022,1.386,0,2.077q.03,3.486-.2,6.967a5.687,5.687,0,0,1-.839,2.6c-.147.265-.463.217-.717.2a.771.771,0,0,1-.205-.549c.033-1.291-.083-2.576-.088-3.866-.072-2.317-.2-4.634-.37-6.947A1.87,1.87,0,0,1,476.842,6.608Z" transform="translate(714.424 516.509)" fill="#0c52b0"/>
      <path id="Path_737" data-name="Path 737" d="M644.688,7.876a1.99,1.99,0,0,1,1.291-1.355c.422-.161,1.121.022,1.064.58.029,2.681.02,5.363-.064,8.043-.1.727-.052,1.468-.167,2.193a6.819,6.819,0,0,1-.638,1.792.973.973,0,0,1-.35.425,2.384,2.384,0,0,1-.511,0,.831.831,0,0,1-.189-.459c-.01-.436.012-.872-.017-1.307-.13-1.406-.005-2.826-.155-4.23-.024-1.615-.171-3.224-.258-4.836A2.29,2.29,0,0,1,644.688,7.876Z" transform="translate(562.194 516.536)" fill="#0c52b0"/>
      <path id="Path_740" data-name="Path 740" d="M423.4,17.211a1.619,1.619,0,0,1,1.269.112,1.311,1.311,0,0,1,.652,1.187,1.391,1.391,0,1,1-2.774-.2A1.438,1.438,0,0,1,423.4,17.211Z" transform="translate(762.297 506.924)" fill="#0c52b0"/>
      <path id="Path_741" data-name="Path 741" d="M502.117,52.92a.686.686,0,0,1,1.147-.067,10.468,10.468,0,0,1,.955,3.057,6.836,6.836,0,0,1,.07,1.658,3.588,3.588,0,0,1-2.074,2.885,7.151,7.151,0,0,1-3.279.511,4.744,4.744,0,0,1-1.761-.323,7.789,7.789,0,0,1-1.912,3.857,4.318,4.318,0,0,1-2.377,1.5,2.092,2.092,0,0,1-1.648-.534,1.77,1.77,0,0,1-.558-1.214c.094-.356.5-.419.809-.468a5.461,5.461,0,0,0,4.244-3.1,1.261,1.261,0,0,0,.123-.827,9.6,9.6,0,0,0-1.28-2.313c-.116-.247.07-.49.169-.707a5.368,5.368,0,0,1,.9-1.376.51.51,0,0,1,.771.161,12.317,12.317,0,0,0,1.164,2.209,1.721,1.721,0,0,0,1.161.623c.727.058,1.456-.013,2.184-.021a3.4,3.4,0,0,0,1.706-.463,9.657,9.657,0,0,0-1.181-3.121A2.579,2.579,0,0,1,502.117,52.92Z" transform="translate(700.902 475.001)" fill="#0c52b0"/>
      <path id="Path_742" data-name="Path 742" d="M44.044,54.853a1.228,1.228,0,0,1,1.277-1.307,1.276,1.276,0,0,1,1.252.906,1.493,1.493,0,0,1,.7-.813,1.35,1.35,0,0,1,1.549.292,1.259,1.259,0,0,1,.065,1.615,1.319,1.319,0,0,1-1.444.439,1.455,1.455,0,0,1-.863-.844,1.308,1.308,0,0,1-1.157.929A1.246,1.246,0,0,1,44.044,54.853Z" transform="translate(1103.279 474.149)" fill="#0c52b0"/>
      <path id="Path_743" data-name="Path 743" d="M11.991,57.287a1.385,1.385,0,0,1,1.939-.923A2.987,2.987,0,0,1,14.91,58a9.226,9.226,0,0,1,.314,2.953A3.387,3.387,0,0,1,13.51,63.44a8.968,8.968,0,0,1-3.679.982,20.781,20.781,0,0,1-2.079.068,11.184,11.184,0,0,1-4.591-.636,3.421,3.421,0,0,1-2.054-2.4,6.834,6.834,0,0,1,.626-4.021.686.686,0,0,1,1.224.056,4.165,4.165,0,0,1-.264,1.433,2.217,2.217,0,0,0,.318,1.915,4.215,4.215,0,0,0,2.757,1.129c1.322.076,2.646.041,3.968,0a11.749,11.749,0,0,0,3.7-.707,6.663,6.663,0,0,0-.988-2.528A2.435,2.435,0,0,1,11.991,57.287Z" transform="translate(1142.038 471.714)" fill="#0c52b0"/>
      <path id="Path_744" data-name="Path 744" d="M138.668,68.251c.444-.147.7.3.844.644a9.473,9.473,0,0,1,.7,5.337,7.65,7.65,0,0,1-3.35,4.7,3.783,3.783,0,0,1-.861.407,2.21,2.21,0,0,1-1.958-.623,1.565,1.565,0,0,1-.417-1,.492.492,0,0,1,.277-.45c.314-.138.674-.057.994-.181a6.8,6.8,0,0,0,3.062-2.2,2.289,2.289,0,0,0,.687-1.829,8.814,8.814,0,0,0-1.188-2.6c-.173-.253.063-.521.165-.75A4.3,4.3,0,0,1,138.668,68.251Z" transform="translate(1022.569 460.9)" fill="#0c52b0"/>
      <path id="Path_745" data-name="Path 745" d="M354.163,149.44a1.3,1.3,0,0,1,1.333-.94,1.279,1.279,0,0,1,1.167,1.63,1.306,1.306,0,0,1-1.843.767,1.409,1.409,0,0,1-.661-.777,1.349,1.349,0,0,1-1.151.945,1.3,1.3,0,0,1-1.411-1.232,1.273,1.273,0,0,1,.837-1.236,2.816,2.816,0,0,1,.889,0A1.431,1.431,0,0,1,354.163,149.44Z" transform="translate(826.202 388.583)" fill="#0c52b0"/>
      <path id="Path_746" data-name="Path 746" d="M579.3,150.78a1.314,1.314,0,0,1,1.722.719,1.273,1.273,0,0,1-.983,1.7,2.427,2.427,0,0,0-3.617-.258,1.265,1.265,0,0,1,.091-1.994,1.417,1.417,0,0,1,1.06-.2,1.345,1.345,0,0,1,.965.871A1.37,1.37,0,0,1,579.3,150.78Z" transform="translate(624.055 386.621)" fill="#0c52b0"/>
      <path id="Path_747" data-name="Path 747" d="M402.39,222.61c.132-.135.266-.268.4-.4.114.128.234.252.338.389-.029.175-.238.272-.345.408Z" transform="translate(780.441 322.173)" fill="#0c52b0"/>
      <path id="Path_748" data-name="Path 748" d="M290.58,223.621c.115-.147.351-.079.512-.141a24.2,24.2,0,0,1,.1,4.22l-.523-.042A22.431,22.431,0,0,0,290.58,223.621Z" transform="translate(881.17 321.029)" fill="#0c52b0"/>
      <path id="Path_749" data-name="Path 749" d="M664.7,223.583l.525-.083a24.1,24.1,0,0,1,.094,4.218l-.522-.042A21.555,21.555,0,0,0,664.7,223.583Z" transform="translate(544.128 321.011)" fill="#0c52b0"/>
      <path id="Path_750" data-name="Path 750" d="M338.76,225.327l.517-.1c.13,1.044.047,2.1.087,3.145,0,.383.519.4.788.309.607-.246.659-.994,1.074-1.424a.755.755,0,0,1,1.123.129,2.077,2.077,0,0,1,.324,1.062c.046.289.417.344.634.212.449-.241.549-.792.67-1.242l.513.114c-.085.373-.316.81-.076,1.168a.4.4,0,0,0,.472-.069,2.27,2.27,0,0,0,.509-1.286c.168.029.336.059.5.091a2.565,2.565,0,0,0-.055,1.106.38.38,0,0,0,.711-.072,2.708,2.708,0,0,0-.337-1.4c.154-.08.307-.162.464-.239a2.564,2.564,0,0,1,.323,1.941.978.978,0,0,1-1.626.118,1.152,1.152,0,0,1-.748.378.873.873,0,0,1-.745-.375,1.075,1.075,0,0,1-1.463.114c-.451.452-1.108.091-1.558-.177a1.375,1.375,0,0,1-1.676.231.888.888,0,0,1-.356-.784,23.53,23.53,0,0,0-.073-2.955m2.849,2.3a1.988,1.988,0,0,0-.427.751c.221.21.63.457.929.264a.939.939,0,0,0-.069-.848C341.958,227.665,341.749,227.5,341.609,227.626Z" transform="translate(837.765 319.453)" fill="#0c52b0"/>
      <path id="Path_751" data-name="Path 751" d="M439.389,224.958l.522-.008c.041,1.359.127,2.717.129,4.076a1.687,1.687,0,0,1-.362,1.119,1.763,1.763,0,0,1-2.684-.07,2.322,2.322,0,0,1,.06-2.2l.478.2a1.773,1.773,0,0,0-.071,1.729,1.213,1.213,0,0,0,1.835-.052,1.1,1.1,0,0,0,.222-.736C439.522,227.669,439.438,226.314,439.389,224.958Z" transform="translate(749.494 319.705)" fill="#0c52b0"/>
      <path id="Path_752" data-name="Path 752" d="M104.27,225.358l.52-.088c.119,1.034.049,2.075.08,3.112-.033.392.477.416.756.362.866-.178.707-1.509,1.6-1.642,1.029-.057,1.348,1.572.548,2.077a1.349,1.349,0,0,1-1.319-.314,1.456,1.456,0,0,1-1.656.3.864.864,0,0,1-.453-.835,23.893,23.893,0,0,0-.072-2.966m2.467,3.076c.249.126.54.4.831.253.287-.322.161-1.06-.338-1.074A2.572,2.572,0,0,0,106.737,228.434Z" transform="translate(1049.016 319.416)" fill="#0c52b0"/>
      <path id="Path_753" data-name="Path 753" d="M396.313,229.88q.217.216.432.432c-.144.146-.288.289-.433.433q-.217-.216-.432-.432Z" transform="translate(786.306 315.263)" fill="#0c52b0"/>
      <path id="Path_754" data-name="Path 754" d="M407.63,230.429c.14-.14.279-.28.42-.419l.434.432q-.21.211-.421.42C407.917,230.719,407.774,230.574,407.63,230.429Z" transform="translate(775.721 315.146)" fill="#0c52b0"/>
      <path id="Path_755" data-name="Path 755" d="M242.88,232.822c.144-.145.287-.289.432-.432.146.143.289.287.433.433l-.432.432Z" transform="translate(924.143 313.002)" fill="#0c52b0"/>
      <path id="Path_756" data-name="Path 756" d="M617.13,233.109c.157-.127.268-.35.467-.4.138.129.267.267.4.4a2.677,2.677,0,0,1-.455.413C617.4,233.391,617.267,233.248,617.13,233.109Z" transform="translate(586.984 312.714)" fill="#0c52b0"/>
      <path id="Path_757" data-name="Path 757" d="M549.536,235.44c.192.056.307.277.461.408a3.778,3.778,0,0,1-.451.412c-.144-.134-.278-.276-.416-.413C549.263,235.709,549.391,235.566,549.536,235.44Z" transform="translate(648.244 310.254)" fill="#0c52b0"/>
      <path id="Path_758" data-name="Path 758" d="M16.05,235.595c.037-.2.272-.308.391-.465.12.157.355.267.391.465-.12.143-.26.269-.391.4C16.31,235.863,16.17,235.738,16.05,235.595Z" transform="translate(1128.493 310.534)" fill="#0c52b0"/>
      <path id="Path_759" data-name="Path 759" d="M27.05,235.7c.034-.193.262-.3.378-.453.146.144.29.289.435.435l-.421.418C27.31,235.971,27.17,235.846,27.05,235.7Z" transform="translate(1118.583 310.426)" fill="#0c52b0"/>
      <path id="Path_760" data-name="Path 760" d="M175.01,235.593c.054-.2.271-.308.4-.463.119.157.356.267.391.465-.121.143-.26.269-.391.4C175.272,235.862,175.133,235.736,175.01,235.593Z" transform="translate(985.287 310.534)" fill="#0c52b0"/>
      <path id="Path_761" data-name="Path 761" d="M186.06,235.7c.031-.193.262-.3.377-.454.146.144.29.289.435.435-.142.139-.281.279-.421.418C186.319,235.971,186.179,235.847,186.06,235.7Z" transform="translate(975.332 310.426)" fill="#0c52b0"/>
      <path id="Path_762" data-name="Path 762" d="M560.25,235.657c.13-.142.272-.272.408-.407.146.145.29.289.435.436-.144.14-.285.28-.429.42A5.518,5.518,0,0,1,560.25,235.657Z" transform="translate(638.227 310.426)" fill="#0c52b0"/>
      <path id="Path_763" data-name="Path 763" d="M476.735,241.3c.159-.075.317-.152.478-.226a3.6,3.6,0,0,1,.385,1.482.928.928,0,0,1-.594.835,4.594,4.594,0,0,1-1.58.127,2.564,2.564,0,0,1-2.2,1.869q-.059-.256-.117-.512a2.271,2.271,0,0,0,1.824-1.347c-.507-.01-1.147.026-1.47-.45a1.41,1.41,0,0,1,.332-1.609.736.736,0,0,1,.933-.052,2.068,2.068,0,0,1,.74,1.582c.5-.044,1.109.141,1.524-.223.272-.486-.1-1.012-.258-1.476m-2.626.571a.95.95,0,0,0-.2.941,1.563,1.563,0,0,0,1.044.182,1.691,1.691,0,0,0-.479-1.121A.261.261,0,0,0,474.109,241.867Z" transform="translate(716.73 305.182)" fill="#0c52b0"/>
      <path id="Path_764" data-name="Path 764" d="M.727,241.424l.449.255a1.24,1.24,0,0,0-.008,1.158,1.968,1.968,0,0,0,1.45.476,2.562,2.562,0,0,0,1.96-.569c.22-.213.252-.545.427-.775.153.029.3.073.454.111-.082.354-.17.8.137,1.077a.809.809,0,0,0,1.03-.053,2.348,2.348,0,0,0,.463-1.093l.511.1a2.25,2.25,0,0,0-.148,1.036c.053.223.358.237.505.107A2.088,2.088,0,0,0,8.5,242c.136-.124.347.028.512.024-.044.41-.231.885.032,1.259.212.128.595.062.624-.228a2.754,2.754,0,0,0-.335-1.389l.457-.244a2.6,2.6,0,0,1,.338,1.919.973.973,0,0,1-1.634.144,1.121,1.121,0,0,1-.826.377.857.857,0,0,1-.663-.37,1.33,1.33,0,0,1-2.075-.363,3.4,3.4,0,0,1-2.713.687,1.932,1.932,0,0,1-1.571-.768A1.79,1.79,0,0,1,.727,241.424Z" transform="translate(1142.515 304.867)" fill="#0c52b0"/>
      <path id="Path_765" data-name="Path 765" d="M159.727,241.46l.449.255a1.24,1.24,0,0,0-.008,1.158,1.862,1.862,0,0,0,1.351.472,3.076,3.076,0,0,0,1.844-.375,1.756,1.756,0,0,0,.607-.98l.49.13a1.13,1.13,0,0,0,.087,1.025c.242.248.621.2.937.206a.978.978,0,0,0,.848-.306,1.541,1.541,0,0,0-.014-1l.5-.138c.162.452-.03,1.058.374,1.4.351.1.884.054,1.047-.334a1.9,1.9,0,0,0-.049-.935l.491-.134c.1.38.084.78.18,1.16.122.384.63.335.9.146.454-.338.5-.979.916-1.351a.743.743,0,0,1,.982.02,1.249,1.249,0,0,1-.064,1.9,1.392,1.392,0,0,1-1.309-.326,1.253,1.253,0,0,1-1.764.122,1.543,1.543,0,0,1-1.868-.01,2.476,2.476,0,0,1-1.668.3,1.218,1.218,0,0,1-1.05-.7,3.4,3.4,0,0,1-2.713.687,1.93,1.93,0,0,1-1.571-.768,1.79,1.79,0,0,1,.077-1.621m11.33.718a4.114,4.114,0,0,0-.482.844c.246.126.524.374.812.267A.674.674,0,0,0,171.057,242.178Z" transform="translate(999.273 304.831)" fill="#0c52b0"/>
      <path id="Path_766" data-name="Path 766" d="M534.216,241.5q.23.12.459.247a1.291,1.291,0,0,0-.037,1.124,1.735,1.735,0,0,0,1.329.507,3.176,3.176,0,0,0,1.867-.355,1.721,1.721,0,0,0,.633-1c.163.042.323.084.487.128a1.106,1.106,0,0,0,.112,1.05,1.415,1.415,0,0,0,.965.18.9.9,0,0,0,.808-.325,1.674,1.674,0,0,0-.02-.983l.495-.135c.164.462-.042,1.1.409,1.422a1.109,1.109,0,0,0,.855-.16c.3-.307.14-.767.08-1.137.166-.039.331-.08.5-.12.093.378.082.772.175,1.149.093.316.476.345.737.234.721-.294.619-1.416,1.418-1.6,1.07-.127,1.428,1.615.56,2.088a1.391,1.391,0,0,1-1.286-.33,1.273,1.273,0,0,1-1.772.124,1.516,1.516,0,0,1-1.838-.012,2.554,2.554,0,0,1-1.71.294,1.208,1.208,0,0,1-1.006-.69,3.536,3.536,0,0,1-2.856.668,1.8,1.8,0,0,1-1.448-.786,1.834,1.834,0,0,1,.086-1.585m11.3.76a3.02,3.02,0,0,0-.464.8,1.771,1.771,0,0,0,.717.306C546.234,243.169,546.057,242.164,545.511,242.26Z" transform="translate(661.892 304.795)" fill="#0c52b0"/>
      <path id="Path_767" data-name="Path 767" d="M314.747,248.9l.268.144a1.776,1.776,0,0,0-.518.724c.241-.015.591.044.606.346a.461.461,0,0,1-.837.258A1.177,1.177,0,0,1,314.747,248.9Z" transform="translate(859.938 298.128)" fill="#0c52b0"/>
      <path id="Path_768" data-name="Path 768" d="M216.71,270.588c.05-.2.274-.311.4-.468a2.338,2.338,0,0,1,.412.457c-.133.141-.275.274-.412.41C216.976,270.854,216.838,270.726,216.71,270.588Z" transform="translate(947.719 279.011)" fill="#0c52b0"/>
      <path id="Path_769" data-name="Path 769" d="M227.75,270.518c.126-.139.264-.267.4-.4a2.139,2.139,0,0,1,.41.458c-.132.142-.274.273-.41.409C228.023,270.829,227.786,270.719,227.75,270.518Z" transform="translate(937.773 279.011)" fill="#0c52b0"/>
      <path id="Path_770" data-name="Path 770" d="M591.537,270.13c.136.133.274.264.405.4-.066.2-.273.309-.4.464-.138-.136-.28-.267-.409-.408C591.211,270.4,591.4,270.282,591.537,270.13Z" transform="translate(610.407 279.002)" fill="#0c52b0"/>
      <path id="Path_771" data-name="Path 771" d="M602.556,270.12c.128.157.347.269.4.467-.13.139-.268.268-.4.4-.137-.135-.278-.266-.406-.407C602.223,270.39,602.425,270.274,602.556,270.12Z" transform="translate(600.479 279.011)" fill="#0c52b0"/>
      <path id="Path_772" data-name="Path 772" d="M510.39,271.312c.143-.145.287-.288.432-.432.144.145.288.288.433.433-.144.145-.288.288-.432.432C510.677,271.6,510.533,271.458,510.39,271.312Z" transform="translate(683.145 278.327)" fill="#0c52b0"/>
      <path id="Path_773" data-name="Path 773" d="M498.75,271.441l.434-.431.433.431-.433.434Q498.965,271.66,498.75,271.441Z" transform="translate(693.631 278.21)" fill="#0c52b0"/>
      <path id="Path_774" data-name="Path 774" d="M504.99,279.792l.4-.392c.132.131.264.262.4.392-.133.133-.265.266-.4.4C505.254,280.057,505.122,279.925,504.99,279.792Z" transform="translate(688.01 270.651)" fill="#0c52b0"/>
    </g>
  </g>
</svg>
