<svg xmlns="http://www.w3.org/2000/svg" width="129" height="129" viewBox="0 0 129 129">
  <g id="pattern2" transform="translate(-727 -3889)" opacity="0.2">
    <circle id="Ellipse_606" data-name="Ellipse 606" cx="1.5" cy="1.5" r="1.5" transform="translate(727 3889)" fill="#14537d"/>
    <circle id="Ellipse_607" data-name="Ellipse 607" cx="1.5" cy="1.5" r="1.5" transform="translate(745 3889)" fill="#14537d"/>
    <circle id="Ellipse_608" data-name="Ellipse 608" cx="1.5" cy="1.5" r="1.5" transform="translate(763 3889)" fill="#14537d"/>
    <circle id="Ellipse_609" data-name="Ellipse 609" cx="1.5" cy="1.5" r="1.5" transform="translate(781 3889)" fill="#14537d"/>
    <circle id="Ellipse_610" data-name="Ellipse 610" cx="1.5" cy="1.5" r="1.5" transform="translate(799 3889)" fill="#14537d"/>
    <circle id="Ellipse_611" data-name="Ellipse 611" cx="1.5" cy="1.5" r="1.5" transform="translate(817 3889)" fill="#14537d"/>
    <circle id="Ellipse_612" data-name="Ellipse 612" cx="1.5" cy="1.5" r="1.5" transform="translate(835 3889)" fill="#14537d"/>
    <circle id="Ellipse_613" data-name="Ellipse 613" cx="1.5" cy="1.5" r="1.5" transform="translate(853 3889)" fill="#14537d"/>
    <circle id="Ellipse_614" data-name="Ellipse 614" cx="1.5" cy="1.5" r="1.5" transform="translate(727 3907)" fill="#14537d"/>
    <circle id="Ellipse_615" data-name="Ellipse 615" cx="1.5" cy="1.5" r="1.5" transform="translate(745 3907)" fill="#14537d"/>
    <circle id="Ellipse_616" data-name="Ellipse 616" cx="1.5" cy="1.5" r="1.5" transform="translate(763 3907)" fill="#14537d"/>
    <circle id="Ellipse_617" data-name="Ellipse 617" cx="1.5" cy="1.5" r="1.5" transform="translate(781 3907)" fill="#14537d"/>
    <circle id="Ellipse_618" data-name="Ellipse 618" cx="1.5" cy="1.5" r="1.5" transform="translate(799 3907)" fill="#14537d"/>
    <circle id="Ellipse_619" data-name="Ellipse 619" cx="1.5" cy="1.5" r="1.5" transform="translate(817 3907)" fill="#14537d"/>
    <circle id="Ellipse_620" data-name="Ellipse 620" cx="1.5" cy="1.5" r="1.5" transform="translate(835 3907)" fill="#14537d"/>
    <circle id="Ellipse_621" data-name="Ellipse 621" cx="1.5" cy="1.5" r="1.5" transform="translate(853 3907)" fill="#14537d"/>
    <circle id="Ellipse_622" data-name="Ellipse 622" cx="1.5" cy="1.5" r="1.5" transform="translate(727 3925)" fill="#14537d"/>
    <circle id="Ellipse_623" data-name="Ellipse 623" cx="1.5" cy="1.5" r="1.5" transform="translate(745 3925)" fill="#14537d"/>
    <circle id="Ellipse_624" data-name="Ellipse 624" cx="1.5" cy="1.5" r="1.5" transform="translate(763 3925)" fill="#14537d"/>
    <circle id="Ellipse_625" data-name="Ellipse 625" cx="1.5" cy="1.5" r="1.5" transform="translate(781 3925)" fill="#14537d"/>
    <circle id="Ellipse_626" data-name="Ellipse 626" cx="1.5" cy="1.5" r="1.5" transform="translate(799 3925)" fill="#14537d"/>
    <circle id="Ellipse_627" data-name="Ellipse 627" cx="1.5" cy="1.5" r="1.5" transform="translate(817 3925)" fill="#14537d"/>
    <circle id="Ellipse_628" data-name="Ellipse 628" cx="1.5" cy="1.5" r="1.5" transform="translate(835 3925)" fill="#14537d"/>
    <circle id="Ellipse_629" data-name="Ellipse 629" cx="1.5" cy="1.5" r="1.5" transform="translate(853 3925)" fill="#14537d"/>
    <circle id="Ellipse_630" data-name="Ellipse 630" cx="1.5" cy="1.5" r="1.5" transform="translate(727 3943)" fill="#14537d"/>
    <circle id="Ellipse_631" data-name="Ellipse 631" cx="1.5" cy="1.5" r="1.5" transform="translate(745 3943)" fill="#14537d"/>
    <circle id="Ellipse_632" data-name="Ellipse 632" cx="1.5" cy="1.5" r="1.5" transform="translate(763 3943)" fill="#14537d"/>
    <circle id="Ellipse_633" data-name="Ellipse 633" cx="1.5" cy="1.5" r="1.5" transform="translate(781 3943)" fill="#14537d"/>
    <circle id="Ellipse_634" data-name="Ellipse 634" cx="1.5" cy="1.5" r="1.5" transform="translate(799 3943)" fill="#14537d"/>
    <circle id="Ellipse_635" data-name="Ellipse 635" cx="1.5" cy="1.5" r="1.5" transform="translate(817 3943)" fill="#14537d"/>
    <circle id="Ellipse_636" data-name="Ellipse 636" cx="1.5" cy="1.5" r="1.5" transform="translate(835 3943)" fill="#14537d"/>
    <circle id="Ellipse_637" data-name="Ellipse 637" cx="1.5" cy="1.5" r="1.5" transform="translate(853 3943)" fill="#14537d"/>
    <circle id="Ellipse_638" data-name="Ellipse 638" cx="1.5" cy="1.5" r="1.5" transform="translate(727 3961)" fill="#14537d"/>
    <circle id="Ellipse_639" data-name="Ellipse 639" cx="1.5" cy="1.5" r="1.5" transform="translate(745 3961)" fill="#14537d"/>
    <circle id="Ellipse_640" data-name="Ellipse 640" cx="1.5" cy="1.5" r="1.5" transform="translate(763 3961)" fill="#14537d"/>
    <circle id="Ellipse_641" data-name="Ellipse 641" cx="1.5" cy="1.5" r="1.5" transform="translate(781 3961)" fill="#14537d"/>
    <circle id="Ellipse_642" data-name="Ellipse 642" cx="1.5" cy="1.5" r="1.5" transform="translate(799 3961)" fill="#14537d"/>
    <circle id="Ellipse_643" data-name="Ellipse 643" cx="1.5" cy="1.5" r="1.5" transform="translate(817 3961)" fill="#14537d"/>
    <circle id="Ellipse_644" data-name="Ellipse 644" cx="1.5" cy="1.5" r="1.5" transform="translate(835 3961)" fill="#14537d"/>
    <circle id="Ellipse_645" data-name="Ellipse 645" cx="1.5" cy="1.5" r="1.5" transform="translate(853 3961)" fill="#14537d"/>
    <circle id="Ellipse_646" data-name="Ellipse 646" cx="1.5" cy="1.5" r="1.5" transform="translate(727 3979)" fill="#14537d"/>
    <circle id="Ellipse_647" data-name="Ellipse 647" cx="1.5" cy="1.5" r="1.5" transform="translate(745 3979)" fill="#14537d"/>
    <circle id="Ellipse_648" data-name="Ellipse 648" cx="1.5" cy="1.5" r="1.5" transform="translate(763 3979)" fill="#14537d"/>
    <circle id="Ellipse_649" data-name="Ellipse 649" cx="1.5" cy="1.5" r="1.5" transform="translate(781 3979)" fill="#14537d"/>
    <circle id="Ellipse_650" data-name="Ellipse 650" cx="1.5" cy="1.5" r="1.5" transform="translate(799 3979)" fill="#14537d"/>
    <circle id="Ellipse_651" data-name="Ellipse 651" cx="1.5" cy="1.5" r="1.5" transform="translate(817 3979)" fill="#14537d"/>
    <circle id="Ellipse_652" data-name="Ellipse 652" cx="1.5" cy="1.5" r="1.5" transform="translate(835 3979)" fill="#14537d"/>
    <circle id="Ellipse_653" data-name="Ellipse 653" cx="1.5" cy="1.5" r="1.5" transform="translate(853 3979)" fill="#14537d"/>
    <circle id="Ellipse_654" data-name="Ellipse 654" cx="1.5" cy="1.5" r="1.5" transform="translate(727 3997)" fill="#14537d"/>
    <circle id="Ellipse_655" data-name="Ellipse 655" cx="1.5" cy="1.5" r="1.5" transform="translate(745 3997)" fill="#14537d"/>
    <circle id="Ellipse_656" data-name="Ellipse 656" cx="1.5" cy="1.5" r="1.5" transform="translate(763 3997)" fill="#14537d"/>
    <circle id="Ellipse_657" data-name="Ellipse 657" cx="1.5" cy="1.5" r="1.5" transform="translate(781 3997)" fill="#14537d"/>
    <circle id="Ellipse_658" data-name="Ellipse 658" cx="1.5" cy="1.5" r="1.5" transform="translate(799 3997)" fill="#14537d"/>
    <circle id="Ellipse_659" data-name="Ellipse 659" cx="1.5" cy="1.5" r="1.5" transform="translate(817 3997)" fill="#14537d"/>
    <circle id="Ellipse_660" data-name="Ellipse 660" cx="1.5" cy="1.5" r="1.5" transform="translate(835 3997)" fill="#14537d"/>
    <circle id="Ellipse_661" data-name="Ellipse 661" cx="1.5" cy="1.5" r="1.5" transform="translate(853 3997)" fill="#14537d"/>
    <circle id="Ellipse_662" data-name="Ellipse 662" cx="1.5" cy="1.5" r="1.5" transform="translate(727 4015)" fill="#14537d"/>
    <circle id="Ellipse_663" data-name="Ellipse 663" cx="1.5" cy="1.5" r="1.5" transform="translate(745 4015)" fill="#14537d"/>
    <circle id="Ellipse_664" data-name="Ellipse 664" cx="1.5" cy="1.5" r="1.5" transform="translate(763 4015)" fill="#14537d"/>
    <circle id="Ellipse_665" data-name="Ellipse 665" cx="1.5" cy="1.5" r="1.5" transform="translate(781 4015)" fill="#14537d"/>
    <circle id="Ellipse_666" data-name="Ellipse 666" cx="1.5" cy="1.5" r="1.5" transform="translate(799 4015)" fill="#14537d"/>
    <circle id="Ellipse_667" data-name="Ellipse 667" cx="1.5" cy="1.5" r="1.5" transform="translate(817 4015)" fill="#14537d"/>
    <circle id="Ellipse_668" data-name="Ellipse 668" cx="1.5" cy="1.5" r="1.5" transform="translate(835 4015)" fill="#14537d"/>
    <circle id="Ellipse_669" data-name="Ellipse 669" cx="1.5" cy="1.5" r="1.5" transform="translate(853 4015)" fill="#14537d"/>
  </g>
</svg>
