<svg xmlns="http://www.w3.org/2000/svg" width="63" height="51" viewBox="0 0 63 51">
  <g id="Pattern" opacity="0.196">
    <circle id="Ellipse_436" data-name="Ellipse 436" cx="1.5" cy="1.5" r="1.5" transform="translate(12)" fill="#212936"/>
    <circle id="Ellipse_451" data-name="Ellipse 451" cx="1.5" cy="1.5" r="1.5" fill="#212936"/>
    <circle id="Ellipse_442" data-name="Ellipse 442" cx="1.5" cy="1.5" r="1.5" transform="translate(24)" fill="#212936"/>
    <circle id="Ellipse_447" data-name="Ellipse 447" cx="1.5" cy="1.5" r="1.5" transform="translate(48 12)" fill="#212936"/>
    <circle id="Ellipse_437" data-name="Ellipse 437" cx="1.5" cy="1.5" r="1.5" transform="translate(12 12)" fill="#212936"/>
    <circle id="Ellipse_452" data-name="Ellipse 452" cx="1.5" cy="1.5" r="1.5" transform="translate(0 12)" fill="#212936"/>
    <circle id="Ellipse_443" data-name="Ellipse 443" cx="1.5" cy="1.5" r="1.5" transform="translate(24 12)" fill="#212936"/>
    <circle id="Ellipse_448" data-name="Ellipse 448" cx="1.5" cy="1.5" r="1.5" transform="translate(36 12)" fill="#212936"/>
    <circle id="Ellipse_438" data-name="Ellipse 438" cx="1.5" cy="1.5" r="1.5" transform="translate(12 24)" fill="#212936"/>
    <circle id="Ellipse_453" data-name="Ellipse 453" cx="1.5" cy="1.5" r="1.5" transform="translate(0 24)" fill="#212936"/>
    <circle id="Ellipse_444" data-name="Ellipse 444" cx="1.5" cy="1.5" r="1.5" transform="translate(24 24)" fill="#212936"/>
    <circle id="Ellipse_449" data-name="Ellipse 449" cx="1.5" cy="1.5" r="1.5" transform="translate(36 24)" fill="#212936"/>
    <circle id="Ellipse_439" data-name="Ellipse 439" cx="1.5" cy="1.5" r="1.5" transform="translate(12 36)" fill="#212936"/>
    <circle id="Ellipse_454" data-name="Ellipse 454" cx="1.5" cy="1.5" r="1.5" transform="translate(0 36)" fill="#212936"/>
    <circle id="Ellipse_445" data-name="Ellipse 445" cx="1.5" cy="1.5" r="1.5" transform="translate(24 36)" fill="#212936"/>
    <circle id="Ellipse_450" data-name="Ellipse 450" cx="1.5" cy="1.5" r="1.5" transform="translate(36 36)" fill="#212936"/>
    <circle id="Ellipse_440" data-name="Ellipse 440" cx="1.5" cy="1.5" r="1.5" transform="translate(12 48)" fill="#212936"/>
    <circle id="Ellipse_455" data-name="Ellipse 455" cx="1.5" cy="1.5" r="1.5" transform="translate(0 48)" fill="#212936"/>
    <circle id="Ellipse_441" data-name="Ellipse 441" cx="1.5" cy="1.5" r="1.5" transform="translate(24 48)" fill="#212936"/>
    <circle id="Ellipse_446" data-name="Ellipse 446" cx="1.5" cy="1.5" r="1.5" transform="translate(60 12)" fill="#212936"/>
  </g>
</svg>
