<svg xmlns="http://www.w3.org/2000/svg" width="164" height="164" viewBox="0 0 164 164">
  <g id="Group_3364" data-name="Group 3364" transform="translate(-469 -97)" opacity="0.849">
    <circle id="Ellipse_671" data-name="Ellipse 671" cx="1.5" cy="1.5" r="1.5" transform="translate(469 97)" fill="#fff"/>
    <circle id="Ellipse_672" data-name="Ellipse 672" cx="1.5" cy="1.5" r="1.5" transform="translate(492 97)" fill="#fff"/>
    <circle id="Ellipse_673" data-name="Ellipse 673" cx="1.5" cy="1.5" r="1.5" transform="translate(515 97)" fill="#fff"/>
    <circle id="Ellipse_674" data-name="Ellipse 674" cx="1.5" cy="1.5" r="1.5" transform="translate(538 97)" fill="#fff"/>
    <circle id="Ellipse_675" data-name="Ellipse 675" cx="1.5" cy="1.5" r="1.5" transform="translate(561 97)" fill="#fff"/>
    <circle id="Ellipse_676" data-name="Ellipse 676" cx="1.5" cy="1.5" r="1.5" transform="translate(584 97)" fill="#fff"/>
    <circle id="Ellipse_677" data-name="Ellipse 677" cx="1.5" cy="1.5" r="1.5" transform="translate(607 97)" fill="#fff"/>
    <circle id="Ellipse_678" data-name="Ellipse 678" cx="1.5" cy="1.5" r="1.5" transform="translate(630 97)" fill="#fff"/>
    <circle id="Ellipse_679" data-name="Ellipse 679" cx="1.5" cy="1.5" r="1.5" transform="translate(469 120)" fill="#fff"/>
    <circle id="Ellipse_680" data-name="Ellipse 680" cx="1.5" cy="1.5" r="1.5" transform="translate(492 120)" fill="#fff"/>
    <circle id="Ellipse_681" data-name="Ellipse 681" cx="1.5" cy="1.5" r="1.5" transform="translate(515 120)" fill="#fff"/>
    <circle id="Ellipse_682" data-name="Ellipse 682" cx="1.5" cy="1.5" r="1.5" transform="translate(538 120)" fill="#fff"/>
    <circle id="Ellipse_683" data-name="Ellipse 683" cx="1.5" cy="1.5" r="1.5" transform="translate(561 120)" fill="#fff"/>
    <circle id="Ellipse_684" data-name="Ellipse 684" cx="1.5" cy="1.5" r="1.5" transform="translate(584 120)" fill="#fff"/>
    <circle id="Ellipse_685" data-name="Ellipse 685" cx="1.5" cy="1.5" r="1.5" transform="translate(607 120)" fill="#fff"/>
    <circle id="Ellipse_686" data-name="Ellipse 686" cx="1.5" cy="1.5" r="1.5" transform="translate(630 120)" fill="#fff"/>
    <circle id="Ellipse_687" data-name="Ellipse 687" cx="1.5" cy="1.5" r="1.5" transform="translate(469 143)" fill="#fff"/>
    <circle id="Ellipse_688" data-name="Ellipse 688" cx="1.5" cy="1.5" r="1.5" transform="translate(492 143)" fill="#fff"/>
    <circle id="Ellipse_689" data-name="Ellipse 689" cx="1.5" cy="1.5" r="1.5" transform="translate(515 143)" fill="#fff"/>
    <circle id="Ellipse_690" data-name="Ellipse 690" cx="1.5" cy="1.5" r="1.5" transform="translate(538 143)" fill="#fff"/>
    <circle id="Ellipse_691" data-name="Ellipse 691" cx="1.5" cy="1.5" r="1.5" transform="translate(561 143)" fill="#fff"/>
    <circle id="Ellipse_692" data-name="Ellipse 692" cx="1.5" cy="1.5" r="1.5" transform="translate(584 143)" fill="#fff"/>
    <circle id="Ellipse_693" data-name="Ellipse 693" cx="1.5" cy="1.5" r="1.5" transform="translate(607 143)" fill="#fff"/>
    <circle id="Ellipse_694" data-name="Ellipse 694" cx="1.5" cy="1.5" r="1.5" transform="translate(630 143)" fill="#fff"/>
    <circle id="Ellipse_695" data-name="Ellipse 695" cx="1.5" cy="1.5" r="1.5" transform="translate(469 166)" fill="#fff"/>
    <circle id="Ellipse_696" data-name="Ellipse 696" cx="1.5" cy="1.5" r="1.5" transform="translate(492 166)" fill="#fff"/>
    <circle id="Ellipse_697" data-name="Ellipse 697" cx="1.5" cy="1.5" r="1.5" transform="translate(515 166)" fill="#fff"/>
    <circle id="Ellipse_698" data-name="Ellipse 698" cx="1.5" cy="1.5" r="1.5" transform="translate(538 166)" fill="#fff"/>
    <circle id="Ellipse_699" data-name="Ellipse 699" cx="1.5" cy="1.5" r="1.5" transform="translate(561 166)" fill="#fff"/>
    <circle id="Ellipse_700" data-name="Ellipse 700" cx="1.5" cy="1.5" r="1.5" transform="translate(584 166)" fill="#fff"/>
    <circle id="Ellipse_701" data-name="Ellipse 701" cx="1.5" cy="1.5" r="1.5" transform="translate(607 166)" fill="#fff"/>
    <circle id="Ellipse_702" data-name="Ellipse 702" cx="1.5" cy="1.5" r="1.5" transform="translate(630 166)" fill="#fff"/>
    <circle id="Ellipse_703" data-name="Ellipse 703" cx="1.5" cy="1.5" r="1.5" transform="translate(469 189)" fill="#fff"/>
    <circle id="Ellipse_704" data-name="Ellipse 704" cx="1.5" cy="1.5" r="1.5" transform="translate(492 189)" fill="#fff"/>
    <circle id="Ellipse_705" data-name="Ellipse 705" cx="1.5" cy="1.5" r="1.5" transform="translate(515 189)" fill="#fff"/>
    <circle id="Ellipse_706" data-name="Ellipse 706" cx="1.5" cy="1.5" r="1.5" transform="translate(538 189)" fill="#fff"/>
    <circle id="Ellipse_707" data-name="Ellipse 707" cx="1.5" cy="1.5" r="1.5" transform="translate(561 189)" fill="#fff"/>
    <circle id="Ellipse_708" data-name="Ellipse 708" cx="1.5" cy="1.5" r="1.5" transform="translate(584 189)" fill="#fff"/>
    <circle id="Ellipse_709" data-name="Ellipse 709" cx="1.5" cy="1.5" r="1.5" transform="translate(607 189)" fill="#fff"/>
    <circle id="Ellipse_710" data-name="Ellipse 710" cx="1.5" cy="1.5" r="1.5" transform="translate(630 189)" fill="#fff"/>
    <circle id="Ellipse_711" data-name="Ellipse 711" cx="1.5" cy="1.5" r="1.5" transform="translate(469 212)" fill="#fff"/>
    <circle id="Ellipse_712" data-name="Ellipse 712" cx="1.5" cy="1.5" r="1.5" transform="translate(492 212)" fill="#fff"/>
    <circle id="Ellipse_713" data-name="Ellipse 713" cx="1.5" cy="1.5" r="1.5" transform="translate(515 212)" fill="#fff"/>
    <circle id="Ellipse_714" data-name="Ellipse 714" cx="1.5" cy="1.5" r="1.5" transform="translate(538 212)" fill="#fff"/>
    <circle id="Ellipse_715" data-name="Ellipse 715" cx="1.5" cy="1.5" r="1.5" transform="translate(561 212)" fill="#fff"/>
    <circle id="Ellipse_716" data-name="Ellipse 716" cx="1.5" cy="1.5" r="1.5" transform="translate(584 212)" fill="#fff"/>
    <circle id="Ellipse_717" data-name="Ellipse 717" cx="1.5" cy="1.5" r="1.5" transform="translate(607 212)" fill="#fff"/>
    <circle id="Ellipse_718" data-name="Ellipse 718" cx="1.5" cy="1.5" r="1.5" transform="translate(630 212)" fill="#fff"/>
    <circle id="Ellipse_719" data-name="Ellipse 719" cx="1.5" cy="1.5" r="1.5" transform="translate(469 235)" fill="#fff"/>
    <circle id="Ellipse_720" data-name="Ellipse 720" cx="1.5" cy="1.5" r="1.5" transform="translate(492 235)" fill="#fff"/>
    <circle id="Ellipse_721" data-name="Ellipse 721" cx="1.5" cy="1.5" r="1.5" transform="translate(515 235)" fill="#fff"/>
    <circle id="Ellipse_722" data-name="Ellipse 722" cx="1.5" cy="1.5" r="1.5" transform="translate(538 235)" fill="#fff"/>
    <circle id="Ellipse_723" data-name="Ellipse 723" cx="1.5" cy="1.5" r="1.5" transform="translate(561 235)" fill="#fff"/>
    <circle id="Ellipse_724" data-name="Ellipse 724" cx="1.5" cy="1.5" r="1.5" transform="translate(584 235)" fill="#fff"/>
    <circle id="Ellipse_725" data-name="Ellipse 725" cx="1.5" cy="1.5" r="1.5" transform="translate(607 235)" fill="#fff"/>
    <circle id="Ellipse_726" data-name="Ellipse 726" cx="1.5" cy="1.5" r="1.5" transform="translate(630 235)" fill="#fff"/>
    <circle id="Ellipse_727" data-name="Ellipse 727" cx="1.5" cy="1.5" r="1.5" transform="translate(469 258)" fill="#fff"/>
    <circle id="Ellipse_728" data-name="Ellipse 728" cx="1.5" cy="1.5" r="1.5" transform="translate(492 258)" fill="#fff"/>
    <circle id="Ellipse_729" data-name="Ellipse 729" cx="1.5" cy="1.5" r="1.5" transform="translate(515 258)" fill="#fff"/>
    <circle id="Ellipse_730" data-name="Ellipse 730" cx="1.5" cy="1.5" r="1.5" transform="translate(538 258)" fill="#fff"/>
    <circle id="Ellipse_731" data-name="Ellipse 731" cx="1.5" cy="1.5" r="1.5" transform="translate(561 258)" fill="#fff"/>
    <circle id="Ellipse_732" data-name="Ellipse 732" cx="1.5" cy="1.5" r="1.5" transform="translate(584 258)" fill="#fff"/>
    <circle id="Ellipse_733" data-name="Ellipse 733" cx="1.5" cy="1.5" r="1.5" transform="translate(607 258)" fill="#fff"/>
    <circle id="Ellipse_734" data-name="Ellipse 734" cx="1.5" cy="1.5" r="1.5" transform="translate(630 258)" fill="#fff"/>
  </g>
</svg>
