<svg xmlns="http://www.w3.org/2000/svg" width="136" height="237.807" viewBox="0 0 136 237.807">
  <g id="Big_Leaf_Plant" data-name="Big Leaf Plant" transform="translate(0 -0.193)" opacity="0.429">
    <g id="Big_Ass_Leaf" data-name="Big Ass Leaf" transform="translate(23)">
      <path id="leaf" d="M24.191.174a16.736,16.736,0,0,1,8.562.909C38.4,3.5,40.008,10.232,39.931,15.7c-.084,5.888-1.323,12.319,3.115,17.063,2.04,2.181,4.579,3.85,6.582,6.071a28.73,28.73,0,0,1,5.064,8.005C56.977,52.2,58.1,58.5,56.009,64.117c-1.839,4.947-6.465,9.413-5.465,15.038,1.043,5.869,6.91,10.355,10.578,14.726,4.151,4.947,7.973,11.269,8.6,17.756.6,6.217-2.081,12.5-6.2,17.2-8.228,9.39-20.6,13.994-33.068,13.965-5.295-.012-11.29-.254-15.859-3.123a8.785,8.785,0,0,1-3-3.265,10.6,10.6,0,0,0-2.9-2.925,17.336,17.336,0,0,1-5.52-7.434c-4.525-11.3-.908-25.272,5.426-35.3,1.5-2.377,2.73-4.664,2-7.5-.761-2.957-2.631-5.624-4.285-8.166a65.772,65.772,0,0,1-4.778-7.625A17.433,17.433,0,0,1,.066,58.528,30.548,30.548,0,0,1,6.56,42.576c3.415-4.531,7.424-8.867,7.433-14.8C14,21.478,9.831,15.881,11.608,9.483a12.2,12.2,0,0,1,4.6-6.956C18.488,1,21.5.505,24.191.174Z" transform="translate(0.193 0.193)" fill="#dde3e9"/>
      <path id="middle_thing" data-name="middle thing" d="M1.382,1.183A1.438,1.438,0,0,1,3.213.052c1.03.29,1.01,1.261.983,2.126A28.8,28.8,0,0,0,5.128,10c1.317,5.362,3.751,10.3,5.679,15.454s2.831,10.46,1.7,15.906c-1.065,5.135-2.739,10.136-3.83,15.277-.961,4.531-1.984,9.31-.52,13.83,1.408,4.351,4.522,7.894,6.764,11.825A56.12,56.12,0,0,1,21.9,108.75a49.885,49.885,0,0,1-.98,12.9c-.571,2.437-1.339,5.73-3.41,7.412-.955.776-2.588,1.044-3.391-.1-.754-1.078-.093-2.746.147-3.894a59.518,59.518,0,0,0,1-15.1,54.941,54.941,0,0,0-2.339-14.441A49.027,49.027,0,0,0,6.821,83.5C4.24,79.641,1.558,75.769.491,71.191c-1.083-4.649-.2-9.38.974-13.941,1.245-4.824,2.875-9.509,4.56-14.2A25.117,25.117,0,0,0,7.343,29.362C5.552,19.906.758,11.03,1.382,1.183Z" transform="translate(21.135 9.244)" fill="#c5cfd6"/>
    </g>
    <g id="Big_Ass_Leaf-2" data-name="Big Ass Leaf" transform="translate(32 11)">
      <path id="leaf-2" data-name="leaf" d="M90.892,1.581a21.5,21.5,0,0,1,9.592,5.53c5.373,5.785,3.724,14.527.758,20.913C98.05,34.9,93.212,41.8,95.94,49.69c1.254,3.625,3.362,6.909,4.551,10.562a36.8,36.8,0,0,1,1.749,12.043c-.129,7.482-2.122,15.466-7.531,20.979-4.763,4.853-12.551,7.688-14.332,14.817-1.858,7.437,2.684,15.765,4.7,22.811,2.283,7.974,3.455,17.393.784,25.34-2.559,7.617-9.02,13.6-16.334,16.979-14.613,6.743-31.58,5.706-46.232-.827-6.221-2.774-13.145-6.181-17.011-11.933a11.244,11.244,0,0,1-1.809-5.4A13.568,13.568,0,0,0,2.6,150.118,22.2,22.2,0,0,1,.02,138.508c.615-15.628,12.214-30.16,24.936-38.643,3.015-2.01,5.662-4.056,6.293-7.764.659-3.87-.139-7.978-.748-11.826-.6-3.8-1.537-7.591-1.612-11.447a22.4,22.4,0,0,1,2.959-11.271c3.6-6.64,9.379-11.676,16.021-15.355,6.4-3.544,13.392-6.548,16.523-13.518C67.712,21.3,65.747,12.547,71.2,5.958,73.458,3.229,76.625.807,80.262.182,83.749-.417,87.558.569,90.892,1.581Z" transform="translate(0 0)" fill="#dde3e9"/>
      <path id="middle_thing-2" data-name="middle thing" d="M51.651.81A1.839,1.839,0,0,1,54.387.44c1.057.882.528,2.014.046,3.017a37.151,37.151,0,0,0-2.98,9.688c-1.248,7-.968,14.088-1.389,21.16s-2.128,13.791-6.289,19.6c-3.923,5.481-8.49,10.485-12.446,15.96-3.487,4.826-7.174,9.91-7.812,15.994-.614,5.857,1.191,11.659,1.773,17.461,1.2,12.01-1.084,23.712-5.6,34.786a64.194,64.194,0,0,1-7.867,14.661c-1.939,2.566-4.554,6.037-7.858,6.929-1.524.411-3.578-.131-3.922-1.9-.323-1.664,1.321-3.278,2.2-4.5a76.6,76.6,0,0,0,9.034-17.239,70.9,70.9,0,0,0,4.778-18.215,63.42,63.42,0,0,0-.895-17.339c-1.014-5.9-2.143-11.862-1.009-17.807,1.151-6.038,4.647-11.141,8.4-15.887,3.971-5.021,8.323-9.676,12.743-14.312a32.314,32.314,0,0,0,8.673-15.407C46.79,25.023,45.791,12.065,51.651.81Z" transform="translate(32 12.986)" fill="#c5cfd6"/>
    </g>
    <g id="Big_Ass_Leaf-3" data-name="Big Ass Leaf" transform="translate(0 55)">
      <path id="leaf-3" data-name="leaf" d="M13.435,0c5.952,0,11.184,3.124,14.789,7.558,4.22,5.19,5.073,11.528,6.787,17.714A15.783,15.783,0,0,0,39.9,33.5c2.338,1.9,5.306,2.283,8.1,3.212A18.821,18.821,0,0,1,59.9,48.5c2.176,6.659-.129,13.374.268,20.122.364,6.2,6.534,10.064,11.5,13.035,4.895,2.93,9.3,5.672,10.778,11.379,1.563,6.053,2.088,12.809-.077,18.788-3.605,9.956-14.156,14.34-24.35,15.02-9.252.617-20.885-.352-27.833-7-4.158-3.98-5.663-9.547-5.476-15.085a45.516,45.516,0,0,1,1.7-10.184,45.576,45.576,0,0,0,1.727-7.145c.646-6.484-5.406-7.73-10.557-9.51A25.046,25.046,0,0,1,3.255,65.425C.288,59.881-.957,53.658.822,47.554A20.813,20.813,0,0,1,5.613,39.2c.984-1.059,2.37-1.942,3.258-3.054a4.086,4.086,0,0,0,.363-3.6C7.913,26.931,3.8,22.278,2.327,16.668,1,11.605,1.784,5.3,6.458,2.038A12.292,12.292,0,0,1,13.435,0Z" transform="translate(0 0)" fill="#c5cfd6"/>
      <path id="middle_thing-3" data-name="middle thing" d="M3.37.641C9.678,7.3,11.393,16.325,11.9,25.076c.282,4.907-.012,10.083,1.444,14.843,1.246,4.074,4.166,7.188,7.175,10.131C26.574,55.975,33.331,62,35.1,70.574c1.04,5.032.338,10.23,1.775,15.207a41.668,41.668,0,0,0,6.4,12.788c2.253,3.076,5.188,5.431,7.65,8.3.751.875,1.827,2.164,1.517,3.4-.363,1.447-2.224,1.905-3.545,1.678-3.079-.53-5.671-3.442-7.684-5.558a47.9,47.9,0,0,1-7.479-10.159,42.448,42.448,0,0,1-4.851-13.2c-.806-4.827-.4-9.858-2.245-14.491-3.1-7.8-10.607-12.4-16.037-18.471C3.845,42.494,4.854,33.072,5.547,23.759c.381-5.118.759-10.9-1.852-15.57C2.7,6.406.476,4.743.047,2.715-.345.858,1.8-1.019,3.37.641Z" transform="translate(18.175 14)" fill="#afb9c5"/>
    </g>
    <path id="Base" d="M0,0C0,38.058,6.211,58,39,58S78,38.058,78,0Z" transform="translate(28 180)" fill="#8f95a0"/>
  </g>
</svg>
