<svg xmlns="http://www.w3.org/2000/svg" width="71.218" height="71.215" viewBox="0 0 71.218 71.215">
  <g id="search" transform="translate(-55.104 -55.116)">
    <path id="Path_8155" data-name="Path 8155" d="M88.614,127.965a31.612,31.612,0,0,1,19.675-53.851C107.4,74.04,106.51,74,105.611,74a31.612,31.612,0,1,0,0,63.224c.9,0,1.792-.04,2.678-.114a31.374,31.374,0,0,1-19.675-9.145Z" transform="translate(-15.522 -15.513)" fill="rgba(0,0,0,0.05)"/>
    <path id="Path_8156" data-name="Path 8156" d="M154.437,136.062a13.281,13.281,0,0,0,5.81-1.333l8.914,2.89a5.418,5.418,0,0,1,3.6,3.688q.028.1.052.205a5.029,5.029,0,0,1,.12,1.152v4.448h2.5v-4.448a7.487,7.487,0,0,0-.186-1.72q-.036-.15-.076-.3a7.909,7.909,0,0,0-5.243-5.4l-8.555-2.774v-3.535a13.163,13.163,0,0,0,5.993-8.695l.458-1.575a4.471,4.471,0,0,0,2.767-5.246,3.632,3.632,0,0,0-2.113-2.5v-5.549a14.042,14.042,0,1,0-28.084,0v5.547a3.632,3.632,0,0,0-2.118,2.5,4.47,4.47,0,0,0,2.767,5.246l.458,1.575a13.164,13.164,0,0,0,5.993,8.695v3.535l-8.555,2.774a7.909,7.909,0,0,0-5.243,5.4q-.041.149-.076.3a7.494,7.494,0,0,0-.186,1.72v4.448h2.5v-4.448a5.026,5.026,0,0,1,.121-1.152q.024-.1.052-.205a5.418,5.418,0,0,1,3.6-3.688l8.914-2.89A13.276,13.276,0,0,0,154.437,136.062Zm.986-30.023a17.065,17.065,0,0,0,7.889,4.38,27.255,27.255,0,0,1-11.1-3.746Q153.9,106.415,155.423,106.039Zm-12.526-.672a11.543,11.543,0,1,1,23.085,0V108.4a15.629,15.629,0,0,1-7.761-3.194,19.735,19.735,0,0,0,5.426-2.857,1.25,1.25,0,0,0-1.521-1.984c-6.262,4.8-17.507,4.3-17.619,4.291a1.25,1.25,0,0,0-1.312,1.191l-.212,4.645a.452.452,0,0,1-.086.252Zm1.053,14.349a1.209,1.209,0,0,0-.028-.118l-.635-2.184a1.25,1.25,0,0,0-1.012-1,1.961,1.961,0,0,1-1.624-1.936,1.981,1.981,0,0,1,.056-.47,1.131,1.131,0,0,1,.685-.8,2.964,2.964,0,0,0,4.087-2.607l.156-3.43c.724,0,1.725-.022,2.908-.1,7.6,6.427,18.278,6.095,18.737,6.077h.012a1.151,1.151,0,0,1,.875.862,1.969,1.969,0,0,1-1.567,2.406,1.25,1.25,0,0,0-1.012,1l-.635,2.184a1.2,1.2,0,0,0-.028.118,10.671,10.671,0,0,1-20.975,0Zm10.487,11.2a13.13,13.13,0,0,0,4.44-.772v2.47a10.831,10.831,0,0,1-8.88,0v-2.47a13.129,13.129,0,0,0,4.439.772Z" transform="translate(-64.348 -29.744)" fill="#f66047"/>
    <path id="Path_8157" data-name="Path 8157" d="M115.45,113.441A34.464,34.464,0,1,0,65.711,65.721a34.466,34.466,0,1,0,47.722,49.741l10.451,10.45a1.428,1.428,0,1,0,2.02-2.02Zm-47.714-.989a31.613,31.613,0,1,1,44.916-.216,1.414,1.414,0,0,0-.427.427,31.608,31.608,0,0,1-44.49-.211Z" transform="translate(0)" fill="#1b262c"/>
  </g>
</svg>
