<svg xmlns="http://www.w3.org/2000/svg" width="71.21" height="82.607" viewBox="0 0 71.21 82.607">
  <g id="remove" transform="translate(-0.253)">
    <path id="Path_8164" data-name="Path 8164" d="M43.017,76.284,21.944,76.4a5.905,5.905,0,0,1-5.934-5.877l-.253-52.717a5.926,5.926,0,0,1,.362-2.069,5.916,5.916,0,0,0-3.866,5.573l.253,52.717A5.906,5.906,0,0,0,18.44,79.9l24.729-.136a18.862,18.862,0,0,1-.177-2.576C42.993,76.888,43,76.586,43.017,76.284Zm0,0" transform="translate(-9.898 -12.981)" fill="rgba(5,5,5,0.05)"/>
    <g id="Group_3382" data-name="Group 3382" transform="translate(0.253 0)">
      <path id="Path_8165" data-name="Path 8165" d="M2.931,66.657a8.127,8.127,0,0,0,5.758,2.369h.04l25.38-.144-.012-2.1-25.38.144a6.081,6.081,0,0,1-6.11-6.052L2.356,8.331a6.082,6.082,0,0,1,6.052-6.11l24.316-.116.047,9.872a8.183,8.183,0,0,0,8.182,8.144h.04l9.873-.047L51,44.811l2.1-.012-.14-25.524v-.3a1.049,1.049,0,0,0-.313-.743L34.547.339a1.05,1.05,0,0,0-.639-.3L33.531,0c-.035,0-.07,0-.1,0L8.4.12A8.183,8.183,0,0,0,.253,8.342L.506,60.882A8.132,8.132,0,0,0,2.931,66.657ZM40.983,18.019h-.03a6.081,6.081,0,0,1-6.079-6.052l-.04-8.389,14.57,14.4Zm0,0" transform="translate(-0.253 0)" fill="#1b262c"/>
      <path id="Path_8166" data-name="Path 8166" d="M140.278,221.52a1.051,1.051,0,0,0,0,2.1h3.565a1.051,1.051,0,0,0,0-2.1Zm0,0" transform="translate(-114.879 -182.71)" fill="#1b262c"/>
      <path id="Path_8167" data-name="Path 8167" d="M92.482,171.684a1.051,1.051,0,0,0-1.051-1.051h-29.6a1.051,1.051,0,1,0,0,2.1h29.6A1.051,1.051,0,0,0,92.482,171.684Zm0,0" transform="translate(-50.177 -140.738)" fill="#1b262c"/>
      <path id="Path_8168" data-name="Path 8168" d="M61.832,221.52a1.051,1.051,0,1,0,0,2.1h9.226a1.051,1.051,0,0,0,0-2.1Zm0,0" transform="translate(-50.177 -182.71)" fill="#1b262c"/>
    </g>
    <path id="Path_8169" data-name="Path 8169" d="M265.5,355.559a1.051,1.051,0,0,0-1.051-1.051H250.258a1.051,1.051,0,1,0,0,2.1h14.191A1.051,1.051,0,0,0,265.5,355.559Zm0,0" transform="translate(-205.338 -292.399)" fill="#f66047"/>
    <path id="Path_8170" data-name="Path 8170" d="M223.579,268.932a19.45,19.45,0,1,0-19.447,19.447A19.449,19.449,0,0,0,223.579,268.932Zm-36.222,4.425a17.347,17.347,0,1,1,16.775,12.919A17.346,17.346,0,0,1,187.357,273.357Zm0,0" transform="translate(-152.115 -205.772)" fill="#f66047"/>
  </g>
</svg>
