<svg id="user" xmlns="http://www.w3.org/2000/svg" width="71.453" height="81.807" viewBox="0 0 71.453 81.807">
  <path id="Path_8094" data-name="Path 8094" d="M129.6,25.087a16.016,16.016,0,0,0-17.685,15.925V49a1.17,1.17,0,0,0,.539-.14,1.115,1.115,0,0,0,.592-.944l.284-6.239a1.17,1.17,0,0,1,1.229-1.116c.01,0,.26.013.706.02a16.037,16.037,0,0,1,14.335-15.5Z" transform="translate(-100.281 -22.721)" fill="#1b262c" opacity="0.06"/>
  <path id="Path_8095" data-name="Path 8095" d="M101.653,148.955q-.011-.056-.026-.11l-.86-2.96a1.17,1.17,0,0,0-.952-.953A3.153,3.153,0,0,1,97.3,141.08a2.029,2.029,0,0,1,1.432-1.5A3.472,3.472,0,0,0,103.7,136.6l.232-5.094c.382,0,.85,0,1.388-.007-.056-.048-.114-.094-.17-.142-1.956.139-3.554.158-4.563.149l-.232,5.094a3.463,3.463,0,0,1-4.964,2.976,2.029,2.029,0,0,0-1.432,1.5,3.153,3.153,0,0,0,2.511,3.853,1.17,1.17,0,0,1,.952.953l.86,2.96q.016.054.026.11a14.812,14.812,0,0,0,16.258,12A14.852,14.852,0,0,1,101.653,148.955Z" transform="translate(-85.252 -111.296)" fill="#1b262c" opacity="0.06"/>
  <path id="Path_8096" data-name="Path 8096" d="M172.294,319.753v-3.4a17.148,17.148,0,0,1-3.344-.979v4.381a15.032,15.032,0,0,0,8.144,1.369A14.91,14.91,0,0,1,172.294,319.753Z" transform="translate(-147.779 -264.54)" fill="#1b262c" opacity="0.06"/>
  <path id="Path_8097" data-name="Path 8097" d="M59.518,362.91q.035-.148.075-.294a7.784,7.784,0,0,1,5.174-5.3L75,354q-.715-.281-1.407-.628l-12.17,3.946a7.783,7.783,0,0,0-5.174,5.3q-.04.147-.075.294A7.257,7.257,0,0,0,56,364.574v7.458h3.344v-7.458A7.257,7.257,0,0,1,59.518,362.91Z" transform="translate(-53.714 -296.183)" fill="#1b262c" opacity="0.06"/>
  <rect id="Rectangle_476" data-name="Rectangle 476" width="18.158" height="1.892" transform="translate(45.154 68.745) rotate(-45)" fill="#1b262c" opacity="0.06"/>
  <path id="Path_8098" data-name="Path 8098" d="M293.8,436.8l-1.338-1.338-2.625,7.875,2.007-.669Z" transform="translate(-248.457 -364.551)" fill="#1b262c" opacity="0.06"/>
  <path id="Path_8099" data-name="Path 8099" d="M400.4,323.682l2.705-2.705-1.338-1.338-2.705,2.705,6.273,6.273h0Z" transform="translate(-339.418 -268.094)" fill="#1b262c" opacity="0.06"/>
  <path id="Path_8100" data-name="Path 8100" d="M78.849,66.5V61.1a17.174,17.174,0,0,0,8.063-11.512l.695-2.39a5.5,5.5,0,0,0,3.638-6.532,4.378,4.378,0,0,0-2.852-3.13v-7.8a18.353,18.353,0,1,0-36.707,0v7.8a4.379,4.379,0,0,0-2.859,3.133,5.5,5.5,0,0,0,3.638,6.532l.7,2.39A17.172,17.172,0,0,0,61.223,61.1v5.4L49.38,70.339a10.118,10.118,0,0,0-6.709,6.909q-.052.191-.1.383a9.554,9.554,0,0,0-.236,2.195v8.628a1.17,1.17,0,0,0,1.17,1.17H83.057V87.283H44.678V79.826a7.257,7.257,0,0,1,.175-1.663q.034-.148.075-.294a7.784,7.784,0,0,1,5.174-5.3l12.17-3.946a17.389,17.389,0,0,0,15.528,0l12.17,3.946a8.1,8.1,0,0,1,2.4,1.247l1.412-1.867a10.44,10.44,0,0,0-3.086-1.608ZM71.522,30.066a23.084,23.084,0,0,0,14.531,6.664v.6c-3.234-.079-12.8-.79-20.388-6.169l.1-.014a49.872,49.872,0,0,0,5.753-1.084Zm-17.494-.339a16.012,16.012,0,1,1,32.025,0v4.646a21.6,21.6,0,0,1-11.925-5.058A26.665,26.665,0,0,0,82.1,25.27a1.17,1.17,0,1,0-1.425-1.858c-4.442,3.407-10.7,4.822-15.165,5.41a54.719,54.719,0,0,1-8.837.457A1.17,1.17,0,0,0,55.443,30.4l-.284,6.239a1.115,1.115,0,0,1-.592.944,1.17,1.17,0,0,1-.539.14Zm1.423,19.368a1.116,1.116,0,0,0-.027-.11l-.86-2.96a1.17,1.17,0,0,0-.952-.953,3.141,3.141,0,0,1-2.6-3.1,3.175,3.175,0,0,1,.09-.752,2.029,2.029,0,0,1,1.432-1.5A3.472,3.472,0,0,0,57.5,36.741l.232-5.094c1.008.01,2.607-.01,4.563-.149,5.219,4.476,11.628,6.462,16.135,7.34a42.252,42.252,0,0,0,8.842.836c.026,0,.051,0,.077-.007a2.048,2.048,0,0,1,1.627,1.551,3.152,3.152,0,0,1-2.511,3.853,1.17,1.17,0,0,0-.952.953l-.86,2.96a1.111,1.111,0,0,0-.027.11,14.842,14.842,0,0,1-29.172,0Zm8.114,17.554V62.267a17.154,17.154,0,0,0,12.945,0v4.381A15.054,15.054,0,0,1,63.565,66.648Z" transform="translate(-42.337 -11.373)" fill="#1b262c"/>
  <path id="Path_8101" data-name="Path 8101" d="M296.6,303.081a1.17,1.17,0,0,0-1.655,0l-18.856,18.855c-.016.016-.03.033-.044.049l-.026.029a1.2,1.2,0,0,0-.082.11h0a1.147,1.147,0,0,0-.067.119l-.013.028a1.119,1.119,0,0,0-.043.1c0,.006-.005.011-.007.017l-3.964,11.892a1.171,1.171,0,0,0,1.48,1.481L285.21,331.8l.019-.008q.052-.018.1-.042l.029-.014a1.165,1.165,0,0,0,.117-.066l0,0a1.2,1.2,0,0,0,.11-.082l.029-.026c.017-.014.033-.028.049-.044l18.855-18.855a1.17,1.17,0,0,0,0-1.655ZM284.84,329.037l-6.274-6.273,12.839-12.839,6.273,6.273ZM274.8,332.806l2.625-7.875,5.25,5.25Zm24.536-18.263-6.273-6.273,2.705-2.705,6.273,6.273Z" transform="translate(-233.413 -254.019)" fill="#f66047"/>
</svg>
