<svg xmlns="http://www.w3.org/2000/svg" width="67.737" height="80.24" viewBox="0 0 67.737 80.24">
  <g id="edit-file" transform="translate(-0.222 0)">
    <path id="Path_8158" data-name="Path 8158" d="M50.678,74.4,22.2,74.516a5.773,5.773,0,0,1-5.8-5.746l-.247-51.54a5.779,5.779,0,0,1,.355-2.023,5.784,5.784,0,0,0-3.78,5.448l.247,51.54a5.774,5.774,0,0,0,5.8,5.746l29.659-.134C48.316,76.979,50.664,74.7,50.678,74.4Zm0,0" transform="translate(-10.359 -12.602)" fill="rgba(0,0,0,0.05)"/>
    <g id="Group_3381" data-name="Group 3381" transform="translate(0.222 0)">
      <path id="Path_8159" data-name="Path 8159" d="M8.47,67.485h.039l28.24-.141-.01-2.055L8.5,65.43a5.945,5.945,0,0,1-5.974-5.916L2.278,8.145A5.946,5.946,0,0,1,8.195,2.171l23.774-.113.047,9.652a8,8,0,0,0,8,7.962h.039l9.652-.046.134,32.407,2.055-.009-.137-33.178v-.3a1.028,1.028,0,0,0-.305-.726L33.751.33a1.028,1.028,0,0,0-.626-.291L32.757,0c-.034,0-.066,0-.1,0L8.184.118A8,8,0,0,0,.222,8.155L.469,59.523A8.009,8.009,0,0,0,8.47,67.485ZM40.043,17.616A5.945,5.945,0,0,1,34.07,11.7l-.04-8.2,14.245,14.08Zm0,0" transform="translate(-0.222 0)" fill="#1b262c"/>
      <path id="Path_8160" data-name="Path 8160" d="M140.223,221.516a1.028,1.028,0,1,0,0,2.055h3.485a1.028,1.028,0,1,0,0-2.055Zm0,0" transform="translate(-115.391 -183.573)" fill="#1b262c"/>
      <path id="Path_8161" data-name="Path 8161" d="M91.743,171.657a1.028,1.028,0,0,0-1.028-1.028H61.778a1.028,1.028,0,0,0,0,2.055H90.715A1.027,1.027,0,0,0,91.743,171.657Zm0,0" transform="translate(-50.382 -141.402)" fill="#1b262c"/>
      <path id="Path_8162" data-name="Path 8162" d="M61.778,221.516a1.028,1.028,0,0,0,0,2.055H70.8a1.028,1.028,0,0,0,0-2.055Zm0,0" transform="translate(-50.382 -183.573)" fill="#1b262c"/>
    </g>
    <path id="Path_8163" data-name="Path 8163" d="M180.818,289.538a1.035,1.035,0,0,0,.325-.053l12.183-4.061.021-.009c.027-.01.055-.021.082-.033l.034-.016c.029-.014.056-.03.084-.047l.02-.012a.948.948,0,0,0,.094-.07l.023-.021c.015-.013.03-.025.044-.039l22.741-22.742a1.027,1.027,0,0,0,0-1.453l-8.122-8.121a1.027,1.027,0,0,0-1.453,0L184.152,275.6c-.006.005-.009.012-.015.017a.976.976,0,0,0-.11.135l-.008.011a1,1,0,0,0-.082.155c-.007.015-.013.03-.018.046s-.011.025-.016.037l-4.061,12.183a1.028,1.028,0,0,0,.976,1.353Zm26.8-34.5,6.669,6.669-3.014,3.013-6.668-6.668Zm-4.467,4.467,6.668,6.668L193,283l-3.333-3.334-3.335-3.334ZM185.328,278.23l2.885,2.885L191.1,284l-8.655,2.885Zm0,0" transform="translate(-148.81 -209.298)" fill="#f66047"/>
  </g>
</svg>
