<svg xmlns="http://www.w3.org/2000/svg" width="88.972" height="83.679" viewBox="0 0 88.972 83.679">
  <g id="immigration" transform="translate(-10 -24.634)">
    <path id="Path_8130" data-name="Path 8130" d="M64.79,105.982a13.874,13.874,0,0,0-15.707,13.777v5.465a.138.138,0,0,0,.072.094l.708.363.326-5.359a1.086,1.086,0,0,1,1.139-1.018c.025,0,.531.024,1.383.021A13.915,13.915,0,0,1,64.79,105.982Z" transform="translate(-32.015 -66.538)" fill="rgba(0,0,0,0.05)"/>
    <path id="Path_8131" data-name="Path 8131" d="M66.319,198.453a1.388,1.388,0,0,0,2.018-1.124c0-.007,0-.014,0-.02l.336-5.513.455,0c-.05-.042-.1-.082-.15-.124-1.666.116-3.037.131-3.922.122l-.336,5.513a.1.1,0,0,1,0,.02,1.384,1.384,0,0,1-.053.277Z" transform="translate(-44.781 -136.832)" fill="rgba(0,0,0,0.05)"/>
    <path id="Path_8132" data-name="Path 8132" d="M41.266,228.627v-1.859a1.085,1.085,0,0,0-.9-1.069,2.674,2.674,0,0,1-2.215-2.64,2.724,2.724,0,0,1,.018-.315,1.342,1.342,0,0,1-.152-.067l-1.771-.91a2.291,2.291,0,0,1-.668-.522,1.69,1.69,0,0,0-.966,1.174,2.685,2.685,0,0,0,2.138,3.281,1.085,1.085,0,0,1,.9,1.069v1.859A13.579,13.579,0,0,0,53.059,242.1,13.618,13.618,0,0,1,41.266,228.627Z" transform="translate(-20.1 -161.056)" fill="rgba(0,0,0,0.05)"/>
    <path id="Path_8133" data-name="Path 8133" d="M100.561,347.5v-2.686a15.659,15.659,0,0,1-3.617-.855V347.5a15.432,15.432,0,0,0,7.675,1.047,15.33,15.33,0,0,1-4.058-1.047Z" transform="translate(-71.221 -261.575)" fill="rgba(0,0,0,0.05)"/>
    <path id="Path_8134" data-name="Path 8134" d="M141.193,375.982a17.615,17.615,0,0,0,4.669-.63l-1.608-.686a17.539,17.539,0,0,1-4.869,1.222A17.666,17.666,0,0,0,141.193,375.982Z" transform="translate(-105.987 -286.733)" fill="rgba(0,0,0,0.05)"/>
    <path id="Path_8135" data-name="Path 8135" d="M29.324,378.522l7.428-3.17a17.445,17.445,0,0,1-2.009-.686l-9.035,3.856A6.846,6.846,0,0,0,22,383.985v8.89h3.617v-8.89A6.846,6.846,0,0,1,29.324,378.522Z" transform="translate(-9.83 -286.733)" fill="rgba(0,0,0,0.05)"/>
    <g id="Group_3380" data-name="Group 3380" transform="translate(40.749 24.634)">
      <path id="Path_8136" data-name="Path 8136" d="M180.041,317.782h2.17v10.63h-2.17Z" transform="translate(-180.04 -264.77)" fill="#1b262c"/>
      <path id="Path_8137" data-name="Path 8137" d="M233.559,27.964h-6.043V25.719a1.085,1.085,0,0,0-1.085-1.085H193.676a1.085,1.085,0,0,0-1.085,1.085v2.245H184.74a4.707,4.707,0,0,0-4.7,4.7V43.073h2.17V32.666a2.534,2.534,0,0,1,2.532-2.532h7.851v1.8a1.085,1.085,0,0,0,1.085,1.085h32.755a1.085,1.085,0,0,0,1.085-1.085v-1.8h6.043a2.534,2.534,0,0,1,2.532,2.532V92.673a2.534,2.534,0,0,1-2.532,2.532H191.25v2.17h42.308a4.707,4.707,0,0,0,4.7-4.7V32.666A4.707,4.707,0,0,0,233.559,27.964Zm-8.213,2.888H194.761V26.8h30.585Z" transform="translate(-180.038 -24.634)" fill="#1b262c"/>
      <path id="Path_8138" data-name="Path 8138" d="M405.736,221.686H397.8a1.085,1.085,0,0,0,0,2.17h7.933a1.085,1.085,0,0,0,0-2.17Z" transform="translate(-357.534 -186.052)" fill="#1b262c"/>
      <path id="Path_8139" data-name="Path 8139" d="M356.157,222.771a1.085,1.085,0,0,0,1.085,1.085H359.9a1.085,1.085,0,0,0,0-2.17h-2.661A1.085,1.085,0,0,0,356.157,222.771Z" transform="translate(-324.308 -186.052)" fill="#1b262c"/>
      <path id="Path_8140" data-name="Path 8140" d="M429.468,286.582h-2.693a1.085,1.085,0,1,0,0,2.17h2.693a1.085,1.085,0,0,0,0-2.17Z" transform="translate(-381.266 -239.212)" fill="#1b262c"/>
      <path id="Path_8141" data-name="Path 8141" d="M325.478,287.667a1.085,1.085,0,0,0,1.085,1.085h14.369a1.085,1.085,0,1,0,0-2.17H326.563A1.085,1.085,0,0,0,325.478,287.667Z" transform="translate(-299.177 -239.212)" fill="#1b262c"/>
      <path id="Path_8142" data-name="Path 8142" d="M301.13,286.582h-.969a1.085,1.085,0,1,0,0,2.17h.969a1.085,1.085,0,1,0,0-2.17Z" transform="translate(-277.55 -239.212)" fill="#1b262c"/>
      <path id="Path_8143" data-name="Path 8143" d="M240.3,288.752h6.152a1.085,1.085,0,1,0,0-2.17H240.3a1.085,1.085,0,0,0,0,2.17Z" transform="translate(-228.511 -239.212)" fill="#1b262c"/>
      <path id="Path_8144" data-name="Path 8144" d="M413.543,346.563h-6.209a1.085,1.085,0,1,0,0,2.17h6.209a1.085,1.085,0,1,0,0-2.17Z" transform="translate(-365.342 -288.346)" fill="#1b262c"/>
      <path id="Path_8145" data-name="Path 8145" d="M381.485,346.563a1.085,1.085,0,0,0,0,2.17h.78a1.085,1.085,0,1,0,0-2.17Z" transform="translate(-344.167 -288.346)" fill="#1b262c"/>
      <path id="Path_8146" data-name="Path 8146" d="M331.985,346.563a1.085,1.085,0,1,0,0,2.17h5.9a1.085,1.085,0,1,0,0-2.17Z" transform="translate(-303.619 -288.346)" fill="#1b262c"/>
      <path id="Path_8147" data-name="Path 8147" d="M240.3,348.733h11.8a1.085,1.085,0,1,0,0-2.17H240.3a1.085,1.085,0,0,0,0,2.17Z" transform="translate(-228.511 -288.346)" fill="#1b262c"/>
      <path id="Path_8148" data-name="Path 8148" d="M438.5,170.6h-.7a1.085,1.085,0,0,0,0,2.17h.7a1.085,1.085,0,0,0,0-2.17Z" transform="translate(-390.296 -144.204)" fill="#1b262c"/>
      <path id="Path_8149" data-name="Path 8149" d="M369.424,172.77h7.691a1.085,1.085,0,0,0,0-2.17h-7.691a1.085,1.085,0,0,0,0,2.17Z" transform="translate(-334.287 -144.204)" fill="#1b262c"/>
      <path id="Path_8150" data-name="Path 8150" d="M406.554,120.6H398.8a1.085,1.085,0,1,0,0,2.17h7.752a1.085,1.085,0,0,0,0-2.17Z" transform="translate(-358.353 -103.246)" fill="#1b262c"/>
      <path id="Path_8151" data-name="Path 8151" d="M369.424,122.77h.639a1.085,1.085,0,0,0,0-2.17h-.639a1.085,1.085,0,0,0,0,2.17Z" transform="translate(-334.287 -103.246)" fill="#1b262c"/>
      <path id="Path_8152" data-name="Path 8152" d="M233.81,105.92a11.935,11.935,0,1,0,11.935,11.935A11.935,11.935,0,0,0,233.81,105.92Zm0,21.7a9.765,9.765,0,1,1,9.765-9.765A9.765,9.765,0,0,1,233.81,127.62Z" transform="translate(-214.309 -91.221)" fill="#1b262c"/>
      <path id="Path_8153" data-name="Path 8153" d="M262.744,144.322l-7.159,7.159-2.326-2.326a1.085,1.085,0,1,0-1.534,1.534l3.092,3.093a1.085,1.085,0,0,0,1.534,0l7.926-7.926a1.085,1.085,0,1,0-1.534-1.534Z" transform="translate(-238.5 -122.418)" fill="#1b262c"/>
    </g>
    <path id="Path_8154" data-name="Path 8154" d="M48.244,146.542l-.059-.027-8.56-3.653v-5.288a15.772,15.772,0,0,0,7.3-13.294v-1.038a4.857,4.857,0,0,0,2.974-5.687,3.888,3.888,0,0,0-2.86-2.875v-4.749a16.068,16.068,0,0,0-32.137,0v4.863a3.88,3.88,0,0,0-2.492,2.761,4.858,4.858,0,0,0,2.974,5.688v1.038A15.782,15.782,0,0,0,23.553,138.1v4.767l-8.56,3.653-.059.027A9.027,9.027,0,0,0,10,153.824q0,.045,0,.09v10.022a1.085,1.085,0,0,0,1.085,1.085H52.093a1.085,1.085,0,0,0,1.085-1.085V153.914c0-.03,0-.06,0-.09a9.028,9.028,0,0,0-4.93-7.282ZM17.068,109.929a13.9,13.9,0,0,1,27.8,0v4.94c-2.689.291-10.9.729-17.487-3.641,4.529-.6,10.049-1.994,14.143-5.134a1.085,1.085,0,1,0-1.32-1.722c-7.448,5.713-20.754,5.11-20.886,5.1a1.086,1.086,0,0,0-1.139,1.018l-.326,5.359-.708-.363a.138.138,0,0,1-.072-.094Zm.482,14.35V122.42a1.085,1.085,0,0,0-.9-1.069,2.685,2.685,0,0,1-2.138-3.281,1.69,1.69,0,0,1,.966-1.174,2.291,2.291,0,0,0,.669.522l1.772.91A1.388,1.388,0,0,0,19.94,117.2c0-.007,0-.014,0-.02l.336-5.513c.886.008,2.256-.006,3.922-.122,8.862,7.539,21.4,5.434,21.94,5.34a1.082,1.082,0,0,0,.321-.114,1.719,1.719,0,0,1,1.328,1.3,2.684,2.684,0,0,1-2.138,3.281,1.085,1.085,0,0,0-.9,1.069v1.859a13.6,13.6,0,1,1-27.2,0Zm13.6,15.77a15.678,15.678,0,0,0,6.305-1.316v3.9a15.444,15.444,0,0,1-11.733,0v-3.542a15.7,15.7,0,0,0,5.428.963Zm19.858,22.8H12.17V153.96a6.846,6.846,0,0,1,3.707-5.463l9.035-3.856a17.6,17.6,0,0,0,13.355,0L47.3,148.5a6.846,6.846,0,0,1,3.705,5.463Z" transform="translate(0 -56.708)" fill="#f66047"/>
  </g>
</svg>
