<svg xmlns="http://www.w3.org/2000/svg" width="16.187" height="14.818" viewBox="0 0 16.187 14.818">
  <path id="company_name" data-name="company name" d="M976.33,542.425c0-.014,0-.028,0-.042a14.073,14.073,0,0,0-.169-1.993,3.459,3.459,0,0,0-1.634-2.649,8.029,8.029,0,0,0-3.213-.8,2.209,2.209,0,0,0-2.215-2.106h-2.018a2.22,2.22,0,0,0-2.215,2.138c-.259.032-.519.067-.78.108a8.34,8.34,0,0,0-1.547.365h0a3.329,3.329,0,0,0-1.494.985,4.242,4.242,0,0,0-.778,2.407c-.042.477-.081,1.009-.1,1.565,0,.007,0,.015,0,.022s0,.007,0,.011c-.015.391-.022.792-.01,1.2.013.464.028.854.062,1.251a6.12,6.12,0,0,0,.821,2.843,3.944,3.944,0,0,0,3.023,1.608,35.515,35.515,0,0,0,4.038.311h.09a27.7,27.7,0,0,0,4.04-.333,5.456,5.456,0,0,0,2.882-1.06,4.108,4.108,0,0,0,1.093-2.917c.075-.893.143-1.874.128-2.881C976.328,542.449,976.33,542.438,976.33,542.425Zm-9.254-6.674H969.1a1.294,1.294,0,0,1,1.283,1.1,26.161,26.161,0,0,0-4.586.015A1.3,1.3,0,0,1,967.077,535.75Zm-5.329,3.262a2.455,2.455,0,0,1,1.1-.706,7.471,7.471,0,0,1,1.375-.321,25.49,25.49,0,0,1,6.6-.172l.229.023a7.734,7.734,0,0,1,3.026.705,2.6,2.6,0,0,1,1.176,2,12.4,12.4,0,0,1,.141,1.43h-4.139v-.436a.458.458,0,1,0-.915,0v.436h-4.567v-.436a.458.458,0,1,0-.915,0v.436H961.1c.022-.367.049-.723.078-1.049A3.434,3.434,0,0,1,961.748,539.013Zm13.538,6.254a3.332,3.332,0,0,1-.789,2.309,4.688,4.688,0,0,1-2.406.839,26.447,26.447,0,0,1-3.993.323,34.694,34.694,0,0,1-3.935-.3,2.973,2.973,0,0,1-2.365-1.2,5.293,5.293,0,0,1-.675-2.42c-.032-.375-.047-.75-.059-1.2-.007-.246-.007-.49,0-.731h3.8v.736a.458.458,0,1,0,.915,0v-.736h4.567v.736a.458.458,0,1,0,.915,0v-.736h4.157C975.407,543.711,975.348,544.52,975.286,545.267Z" transform="translate(-960.143 -534.835)" fill="#aeb8d5" opacity="0.999"/>
</svg>
