<svg xmlns="http://www.w3.org/2000/svg" width="14.35" height="16.449" viewBox="0 0 14.35 16.449">
  <g id="text-v3" transform="translate(-746.333 -490.908)">
    <path id="Path_74" data-name="Path 74" d="M759.8,494.636l-2.247-2.541a3.517,3.517,0,0,0-2.634-1.187h-5.557a3.033,3.033,0,0,0-3.029,3.029v10.39a3.033,3.033,0,0,0,3.029,3.029h8.292a3.033,3.033,0,0,0,3.029-3.029v-7.362A3.513,3.513,0,0,0,759.8,494.636Zm-.127,9.691a2.023,2.023,0,0,1-2.02,2.02h-8.292a2.022,2.022,0,0,1-2.02-2.02v-10.39a2.022,2.022,0,0,1,2.02-2.02h5.557a2.508,2.508,0,0,1,1.878.846l2.247,2.541a2.506,2.506,0,0,1,.629,1.661Z" transform="translate(0 0)" fill="#aeb8d5"/>
    <path id="Path_75" data-name="Path 75" d="M763.6,522.174h-6.251a.5.5,0,0,0,0,1.009H763.6a.5.5,0,1,0,0-1.009Z" transform="translate(-6.974 -20.75)" fill="#aeb8d5"/>
    <path id="Path_76" data-name="Path 76" d="M763.6,515.644h-6.251a.5.5,0,0,0,0,1.009H763.6a.5.5,0,1,0,0-1.009Z" transform="translate(-6.974 -16.416)" fill="#aeb8d5"/>
    <path id="Path_77" data-name="Path 77" d="M757.346,510.123h2.64a.5.5,0,1,0,0-1.009h-2.64a.5.5,0,0,0,0,1.009Z" transform="translate(-6.974 -12.082)" fill="#aeb8d5"/>
  </g>
</svg>
