<svg xmlns="http://www.w3.org/2000/svg" width="16.737" height="16.741" viewBox="0 0 16.737 16.741">
  <g id="telephone" transform="translate(0.099 0.1)" opacity="0.85">
    <path id="Path_101" data-name="Path 101" d="M4.251,11a17.548,17.548,0,0,0,5.837,4.572,9.085,9.085,0,0,0,3.266.967c.079,0,.154.007.233.007a2.7,2.7,0,0,0,2.1-.9.075.075,0,0,0,.014-.017,8.832,8.832,0,0,1,.661-.685c.161-.154.326-.315.483-.48a1.655,1.655,0,0,0-.007-2.464l-2.06-2.06a1.667,1.667,0,0,0-1.206-.555,1.723,1.723,0,0,0-1.22.552l-1.227,1.227c-.113-.065-.23-.123-.339-.178a4.238,4.238,0,0,1-.377-.206A12.986,12.986,0,0,1,7.3,7.948,7.478,7.478,0,0,1,6.256,6.276c.322-.291.624-.6.915-.895.1-.106.209-.213.315-.319a1.757,1.757,0,0,0,.569-1.234,1.743,1.743,0,0,0-.569-1.234L6.465,1.573c-.12-.12-.233-.236-.35-.356C5.889.984,5.653.744,5.42.528A1.709,1.709,0,0,0,4.213,0a1.759,1.759,0,0,0-1.22.531L1.711,1.813A2.634,2.634,0,0,0,.926,3.5,6.343,6.343,0,0,0,1.4,6.241,15.952,15.952,0,0,0,4.251,11ZM1.763,3.571a1.813,1.813,0,0,1,.545-1.165L3.583,1.131A.923.923,0,0,1,4.213.84a.876.876,0,0,1,.617.3c.23.213.446.435.679.672.117.12.236.24.356.363L6.887,3.194a.931.931,0,0,1,.322.641.931.931,0,0,1-.322.641c-.106.106-.213.216-.319.322-.319.322-.617.627-.946.919L5.6,5.734a.67.67,0,0,0-.171.761c0,.01.007.017.01.027a8.067,8.067,0,0,0,1.2,1.957,13.706,13.706,0,0,0,3.3,3.009,4.906,4.906,0,0,0,.452.247,4.238,4.238,0,0,1,.377.206l.038.021a.716.716,0,0,0,.332.086.727.727,0,0,0,.511-.233l1.282-1.282a.907.907,0,0,1,.627-.305.861.861,0,0,1,.607.305L16.244,12.6a.827.827,0,0,1-.01,1.292c-.144.154-.295.3-.456.456a9.871,9.871,0,0,0-.716.744,1.882,1.882,0,0,1-1.47.624c-.058,0-.12,0-.178-.007a8.253,8.253,0,0,1-2.954-.884A16.671,16.671,0,0,1,4.9,10.468,15.269,15.269,0,0,1,2.194,5.96,5.528,5.528,0,0,1,1.763,3.571Z" transform="translate(-0.912 0)" fill="#aeb8d5" stroke="#aeb8d5" stroke-width="0.2"/>
  </g>
</svg>
