<svg xmlns="http://www.w3.org/2000/svg" width="16.482" height="20.62" viewBox="0 0 16.482 20.62">
  <g id="Group_342" data-name="Group 342" transform="translate(0 0)" opacity="0.847">
    <path id="Path_25" data-name="Path 25" d="M641.805,239.43a5.235,5.235,0,1,0-5.235-5.235A5.241,5.241,0,0,0,641.805,239.43Zm0-9.3a4.06,4.06,0,1,1-4.06,4.06A4.065,4.065,0,0,1,641.805,230.135Z" transform="translate(-633.564 -228.96)" fill="#aeb8d5"/>
    <path id="Path_26" data-name="Path 26" d="M641.644,261.574h-9.012a3.74,3.74,0,0,0-3.735,3.735v.373a3.74,3.74,0,0,0,3.735,3.735h9.012a3.74,3.74,0,0,0,3.735-3.735v-.373A3.74,3.74,0,0,0,641.644,261.574Zm2.56,4.108a2.563,2.563,0,0,1-2.56,2.56h-9.012a2.563,2.563,0,0,1-2.56-2.56v-.373a2.563,2.563,0,0,1,2.56-2.56h9.012a2.563,2.563,0,0,1,2.56,2.56Z" transform="translate(-628.897 -248.798)" fill="#aeb8d5"/>
  </g>
</svg>
