<svg xmlns="http://www.w3.org/2000/svg" width="126" height="26" viewBox="0 0 126 26">
  <g id="_9a7f17d" data-name="9a7f17d" transform="translate(0 -1.5)">
    <path id="Path_647" data-name="Path 647" d="M58.462,11.5,54,7l-4.462,4.5L48,9.552,54,3.5l6,6.052Zm12.3-10V6.27H66V8.73h4.766V13.5h2.468V8.73H78V6.27H73.234V1.5Z" transform="translate(48)" fill="#020303" fill-rule="evenodd"/>
    <g id="Group_3256" data-name="Group 3256" transform="translate(94 17.5)">
      <path id="Path_648" data-name="Path 648" d="M16.408,10a20.449,20.449,0,0,1-5.678-.824A24.082,24.082,0,0,1,2.244,4.7L0,2.754,2.066,0,4.31,1.95a21,21,0,0,0,7.276,3.808,17.344,17.344,0,0,0,4.822.7A16.938,16.938,0,0,0,27.69,1.95L29.934,0,32,2.754,29.758,4.7A20.012,20.012,0,0,1,16.408,10" fill="#f39122" fill-rule="evenodd"/>
    </g>
    <g id="Group_3257" data-name="Group 3257" transform="translate(0 1.5)">
      <path id="Path_649" data-name="Path 649" d="M33.42,14.746q0,3.759-3.6,3.76H22.75q-3.72,0-3.72-3.76L19.06,0H16.4V14.87a6.144,6.144,0,0,0,1.708,4.59,6.365,6.365,0,0,0,4.64,1.664h7.074q6.258,0,6.258-6.254V9.324H33.42v5.42Z" transform="translate(16.4)" fill="#020203" fill-rule="evenodd"/>
      <path id="Path_650" data-name="Path 650" d="M49.2,26h3.28V22.75H49.2ZM17.948,19.412a.437.437,0,0,0,.042-.044l.164-.2q.178-.216.336-.448a7.577,7.577,0,0,0,1.472-4.5c-.02-.334-.04-.624-.04-.958q0-5.652,3.356-5.654,3.387,0,3.386,5.716,0,5.424-3.386,5.424a2.751,2.751,0,0,1-2.284-1.076,10.246,10.246,0,0,1-1.324,2.3,5.671,5.671,0,0,0,3.608,1.15q6.24,0,6.242-7.89A9.181,9.181,0,0,0,27.85,7.4a5.513,5.513,0,0,0-4.572-2.11q-5.928,0-6.132,7.5c-.014.594-.026,1.186-.036,1.78a6.028,6.028,0,0,1-.416,1.856,2.953,2.953,0,0,1-2.84,2.08h-7.3q-3.84,0-3.84-3.76L2.748,0H0V14.87a6.034,6.034,0,0,0,1.764,4.59,6.663,6.663,0,0,0,4.718,1.662v0h7.372a5.268,5.268,0,0,0,3.862-1.474s.168-.168.232-.24M73.8,26h3.28V22.75H73.8ZM82,18.506V21.12H79.284v0H60.68a6.706,6.706,0,0,1-4.8-1.666,6.03,6.03,0,0,1-1.764-4.59V0h2.748l-.032,14.746q0,3.756,3.844,3.76h18.6v-.128h-.01A11.127,11.127,0,0,0,78,12.878a7.236,7.236,0,0,0-2.824-2.772,8.516,8.516,0,0,0-4.11-1V6.64q5.4,0,8.31,3.512A12.725,12.725,0,0,1,82,18.506" fill="#020203" fill-rule="evenodd"/>
    </g>
  </g>
</svg>
