<svg xmlns="http://www.w3.org/2000/svg" width="1366.672" height="266.741" viewBox="0 0 1366.672 266.741">
  <g id="bg" transform="translate(59.769 -333.995)">
    <path id="Path_666" data-name="Path 666" d="M-3223.078-1178.11s77.066,160.566,141.266,39.045,255.053-46.11,255.053-46.11,148.123,35.562,228.347-23.9,216.353-116.106,309.862,30.964,297.732-30.218,431.472,35.69" transform="translate(3163.76 1605.835)" fill="none" stroke="#e7ecf8" stroke-width="1" opacity="0.396"/>
    <path id="Path_710" data-name="Path 710" d="M-3223.078-1178.11s77.065,160.566,141.266,39.045,255.053-46.11,255.053-46.11,148.123,35.562,228.347-23.9,216.353-116.106,309.863,30.964,297.732-30.218,431.472,35.69" transform="translate(3163.76 1646.835)" fill="none" stroke="#e7ecf8" stroke-width="1" opacity="0.75"/>
    <path id="Path_711" data-name="Path 711" d="M-3223.078-1178.11s77.066,160.566,141.266,39.045,255.053-46.11,255.053-46.11,148.123,35.562,228.347-23.9,216.353-116.106,309.862,30.964,297.732-30.218,431.472,35.69" transform="translate(3163.76 1693.835)" fill="none" stroke="#e7ecf8" stroke-width="1" opacity="0.4"/>
  </g>
</svg>
