<svg xmlns="http://www.w3.org/2000/svg" width="16.456" height="16.811" viewBox="0 0 16.456 16.811">
  <g id="copy-v1" transform="translate(-1073.676 -252.759)">
    <path id="Path_25" data-name="Path 25" d="M1083.931,265.029h-8.241a2.017,2.017,0,0,1-2.014-2.015v-8.24a2.017,2.017,0,0,1,2.014-2.015h8.241a2.017,2.017,0,0,1,2.015,2.015v8.24A2.017,2.017,0,0,1,1083.931,265.029Zm-8.241-11.242a.987.987,0,0,0-.986.986v8.24a.987.987,0,0,0,.986.986h8.241a.987.987,0,0,0,.986-.986v-8.24a.987.987,0,0,0-.986-.986Z" fill="#34495e"/>
    <path id="Path_26" data-name="Path 26" d="M1094.722,278.275h-6.391a2.448,2.448,0,0,1-2.446-2.446v-.219a.514.514,0,0,1,1.029,0v.219a1.419,1.419,0,0,0,1.417,1.417h6.391a2.408,2.408,0,0,0,2.4-2.4v-6.391a1.419,1.419,0,0,0-1.417-1.417.514.514,0,1,1,0-1.029,2.449,2.449,0,0,1,2.446,2.446v6.391A3.437,3.437,0,0,1,1094.722,278.275Z" transform="translate(-8.023 -8.705)" fill="#34495e"/>
  </g>
</svg>
