<svg width="248" height="299" viewBox="0 0 248 299" fill="none" xmlns="http://www.w3.org/2000/svg">
<path d="M227.075 299L37.208 283.409L58.1329 24.184L248 39.7747L227.075 299Z" fill="url(#paint0_linear)"/>
<path d="M224.799 295.299L40.0469 280.124L60.4094 27.8846L245.162 43.056L224.799 295.299Z" fill="#6C63FF"/>
<path d="M235.719 255.412L48.6437 291.657L0 36.245L187.075 0L235.719 255.412Z" fill="url(#paint1_linear)"/>
<path d="M232.543 252.461L50.5088 287.731L3.17578 39.1963L185.21 3.92981L232.543 252.461Z" fill="#E0E0E0"/>
<path d="M213.107 19.2913H22.6118V279.375H213.107V19.2913Z" fill="url(#paint2_linear)"/>
<path d="M210.544 22.7939H25.1792V275.868H210.544V22.7939Z" fill="white"/>
<path d="M87.6433 66.4596C87.845 83.3939 101.623 96.9576 118.414 96.7479C135.205 96.5382 148.661 82.6483 148.452 65.7102C148.386 59.4151 146.388 53.2926 142.729 48.1736C139.07 43.0546 133.926 39.1869 127.996 37.0955L128.089 44.9937C128.131 47.74 127.084 50.3909 125.177 52.3655C123.271 54.3401 120.66 55.4776 117.918 55.5286C115.18 55.5442 112.547 54.4739 110.594 52.5515C108.642 50.6292 107.529 48.0111 107.498 45.2694L107.405 37.3712C101.529 39.6044 96.4811 43.5933 92.9461 48.7968C89.411 54.0003 87.5597 60.1667 87.6433 66.4596Z" fill="url(#paint3_linear)"/>
<path d="M148.464 63.2327C148.464 46.2945 134.853 32.556 118.058 32.556C101.263 32.556 87.6514 46.2867 87.6514 63.2327C87.6404 69.5288 89.5643 75.6758 93.1621 80.8394C96.7598 86.0029 101.857 89.9329 107.762 92.0959V84.1976C107.76 81.4559 108.842 78.8247 110.771 76.8791C112.7 74.9335 115.32 73.8316 118.058 73.8142C120.796 73.8316 123.415 74.9335 125.345 76.8791C127.274 78.8247 128.355 81.4559 128.353 84.1976V92.0998C134.259 89.9366 139.356 86.006 142.954 80.8416C146.552 75.6773 148.476 69.5294 148.464 63.2327Z" fill="#6C63FF"/>
<path d="M118.077 70.8047C124.532 70.8047 129.765 65.5265 129.765 59.0156C129.765 52.5046 124.532 47.2264 118.077 47.2264C111.622 47.2264 106.389 52.5046 106.389 59.0156C106.389 65.5265 111.622 70.8047 118.077 70.8047Z" fill="white" stroke="white" stroke-miterlimit="10"/>
<path d="M118.058 73.8142C115.32 73.8317 112.7 74.9336 110.771 76.8792C108.841 78.8248 107.76 81.4559 107.762 84.1977V92.0998C114.415 94.5057 121.7 94.5057 128.354 92.0998V84.1977C128.356 81.4559 127.274 78.8248 125.345 76.8792C123.415 74.9336 120.796 73.8317 118.058 73.8142Z" fill="white" stroke="white" stroke-miterlimit="10"/>
<path d="M106.289 58.3632C105.35 56.5301 104.92 54.4783 105.044 52.4221C105.177 50.3605 106.106 48.4317 107.634 47.0439C109.337 45.58 111.644 45.0635 113.874 44.8849C116.104 44.7063 118.364 44.815 120.559 44.3762C122.377 44.0031 124.101 43.2711 125.633 42.223C127.164 41.175 128.472 39.8318 129.479 38.272C129.618 40 129.758 41.7668 129.428 43.4598C129.099 45.1529 128.23 46.8381 126.764 47.7312C128.54 46.9041 128.346 48.8457 127.962 50.0068C128.843 51.0785 130.979 51.2571 131.088 52.6434C131.197 54.0297 131.177 55.4625 130.642 56.7401C130.107 58.0176 130.681 60.2737 129.308 60.3708" fill="white"/>
<path d="M106.289 58.3632C105.35 56.5301 104.92 54.4783 105.044 52.4221C105.177 50.3605 106.106 48.4317 107.634 47.0439C109.337 45.58 111.644 45.0635 113.874 44.8849C116.104 44.7063 118.364 44.815 120.559 44.3762C122.377 44.0031 124.101 43.2711 125.633 42.223C127.164 41.175 128.472 39.8318 129.479 38.272C129.618 40 129.758 41.7668 129.428 43.4598C129.099 45.1529 128.23 46.8381 126.764 47.7312C128.54 46.9041 128.346 48.8457 127.962 50.0068C128.843 51.0785 130.979 51.2571 131.088 52.6434C131.197 54.0297 131.177 55.4625 130.642 56.7401C130.107 58.0176 130.681 60.2737 129.308 60.3708" stroke="white" stroke-miterlimit="10"/>
<path d="M127.415 47.4751C127.415 47.4751 135.558 48.1935 129.765 60.402L127.415 47.4751Z" fill="white"/>
<path d="M67.7234 222.891H42.5439V248.287H67.7234V222.891Z" fill="url(#paint4_linear)"/>
<path d="M65.5481 225.081H44.7119V246.096H65.5481V225.081Z" fill="#6C63FF"/>
<path d="M148.464 117.806H87.6904V122.186H148.464V117.806Z" fill="#69F0AE"/>
<path d="M190.139 123.938H87.6904V128.318H190.139V123.938Z" fill="#E0E0E0"/>
<path d="M190.139 130.065H87.6904V134.445H190.139V130.065Z" fill="#E0E0E0"/>
<path d="M148.464 172.539H87.6904V176.919H148.464V172.539Z" fill="#69F0AE"/>
<path d="M190.139 178.666H87.6904V183.046H190.139V178.666Z" fill="#E0E0E0"/>
<path d="M190.139 184.797H87.6904V189.178H190.139V184.797Z" fill="#E0E0E0"/>
<path d="M148.464 227.267H87.6904V231.647H148.464V227.267Z" fill="#6C63FF"/>
<path d="M190.139 233.399H87.6904V237.779H190.139V233.399Z" fill="#E0E0E0"/>
<path d="M190.139 239.53H87.6904V243.91H190.139V239.53Z" fill="#E0E0E0"/>
<defs>
<linearGradient id="paint0_linear" x1="132.091" y1="291.231" x2="153.212" y2="31.9113" gradientUnits="userSpaceOnUse">
<stop stop-color="#808080" stop-opacity="0.25"/>
<stop offset="0.54" stop-color="#808080" stop-opacity="0.12"/>
<stop offset="1" stop-color="#808080" stop-opacity="0.1"/>
</linearGradient>
<linearGradient id="paint1_linear" x1="202486" y1="197807" x2="165575" y2="5847.18" gradientUnits="userSpaceOnUse">
<stop stop-color="#808080" stop-opacity="0.25"/>
<stop offset="0.54" stop-color="#808080" stop-opacity="0.12"/>
<stop offset="1" stop-color="#808080" stop-opacity="0.1"/>
</linearGradient>
<linearGradient id="paint2_linear" x1="98685.8" y1="187139" x2="98685.8" y2="12940.2" gradientUnits="userSpaceOnUse">
<stop stop-color="#808080" stop-opacity="0.25"/>
<stop offset="0.54" stop-color="#808080" stop-opacity="0.12"/>
<stop offset="1" stop-color="#808080" stop-opacity="0.1"/>
</linearGradient>
<linearGradient id="paint3_linear" x1="119.985" y1="96.2527" x2="116.878" y2="36.3928" gradientUnits="userSpaceOnUse">
<stop stop-opacity="0.12"/>
<stop offset="0.55" stop-opacity="0.09"/>
<stop offset="1" stop-opacity="0.02"/>
</linearGradient>
<linearGradient id="paint4_linear" x1="9010.72" y1="16460.8" x2="9010.72" y2="14800" gradientUnits="userSpaceOnUse">
<stop stop-color="#808080" stop-opacity="0.25"/>
<stop offset="0.54" stop-color="#808080" stop-opacity="0.12"/>
<stop offset="1" stop-color="#808080" stop-opacity="0.1"/>
</linearGradient>
</defs>
</svg>
