<svg xmlns="http://www.w3.org/2000/svg" width="373.292" height="285.317" viewBox="0 0 373.292 285.317">
  <g id="Group_1" data-name="Group 1" transform="translate(-52.6 -338.939)">
    <path id="Path_1" data-name="Path 1" d="M425.35,339.31V623.58c-21.11,2.76-43.63-3.22-63.69-12.62-36.14-16.94-68.38-45.09-107.23-52.15-22.96-4.19-46.27-.5-69.4-3.07-34.79-3.87-78.11-24.95-95.54-57.8-17.76-33.49-6.26-72.82-14.03-107.85-4.01-18.05-13.04-34.55-22.86-50.78Z" fill="#d9daee"/>
    <path id="Path_2" data-name="Path 2" d="M425.35,339.31V566.73c-9.09.1-18.29-1.1-27.31-2.37-13.56-1.9-27.41-4.02-39.5-10.39-10.64-5.63-19.36-14.2-28.35-22.19-16.91-15.02-35.51-28.38-56.03-37.98-26.84-12.49-56.11-18.75-84-28.6-27.34-9.62-52.27-22.16-69.52-51.83-11.92-20.52-12.91-46.75-3.81-68.65q1.14-2.76,2.48-5.41Z" fill="#aab9df"/>
    <path id="Path_3" data-name="Path 3" d="M311.647,461.91a2.483,2.483,0,1,1,3.485-.428A2.481,2.481,0,0,1,311.647,461.91Z" fill="#fff"/>
    <path id="Path_4" data-name="Path 4" d="M306.315,437.259a1.4,1.4,0,1,1,1.961-.241A1.4,1.4,0,0,1,306.315,437.259Z" fill="#fff"/>
    <path id="Path_5" data-name="Path 5" d="M279.2,464.128a1.553,1.553,0,1,1,2.178-.269A1.551,1.551,0,0,1,279.2,464.128Z" fill="#fff"/>
    <path id="Path_6" data-name="Path 6" d="M276.2,489.361a1.708,1.708,0,1,1,2.4-.295A1.707,1.707,0,0,1,276.2,489.361Z" fill="#fff"/>
    <path id="Path_7" data-name="Path 7" d="M240.757,470.727a1.708,1.708,0,1,1,2.4-.295A1.707,1.707,0,0,1,240.757,470.727Z" fill="#fff"/>
    <path id="Path_8" data-name="Path 8" d="M183.093,424.873a1.863,1.863,0,1,1,2.614-.321A1.861,1.861,0,0,1,183.093,424.873Z" fill="#fff"/>
    <path id="Path_9" data-name="Path 9" d="M183.688,374.518a1.708,1.708,0,1,1,2.4-.3A1.707,1.707,0,0,1,183.688,374.518Z" fill="#fff"/>
    <path id="Path_10" data-name="Path 10" d="M181.51,341.3a1.239,1.239,0,0,1-2.11-1.26.919.919,0,0,1,.16-.27,1.22,1.22,0,0,1,.88-.46h.19a1.132,1.132,0,0,1,.67.25A1.231,1.231,0,0,1,181.51,341.3Z" fill="#fff"/>
    <path id="Path_11" data-name="Path 11" d="M126.94,359.715a1.552,1.552,0,1,1,2.179-.267A1.55,1.55,0,0,1,126.94,359.715Z" fill="#fff"/>
    <path id="Path_12" data-name="Path 12" d="M135.247,390.633a1.708,1.708,0,1,1,2.4-.294A1.706,1.706,0,0,1,135.247,390.633Z" fill="#fff"/>
    <path id="Path_13" data-name="Path 13" d="M222.027,430.48a2.794,2.794,0,1,1,3.92-.482A2.792,2.792,0,0,1,222.027,430.48Z" fill="#fff"/>
    <path id="Path_14" data-name="Path 14" d="M230.014,398.114a2.794,2.794,0,1,1,3.921-.482A2.791,2.791,0,0,1,230.014,398.114Z" fill="#fff"/>
    <path id="Path_15" data-name="Path 15" d="M210.13,365.635a2.794,2.794,0,1,1,3.921-.482A2.791,2.791,0,0,1,210.13,365.635Z" fill="#fff"/>
    <path id="Path_16" data-name="Path 16" d="M184.244,398.982a2.949,2.949,0,1,1,4.138-.508A2.945,2.945,0,0,1,184.244,398.982Z" fill="#fff"/>
    <path id="Path_17" data-name="Path 17" d="M162.777,377.085a2.949,2.949,0,1,1,4.139-.508A2.946,2.946,0,0,1,162.777,377.085Z" fill="#fff"/>
    <path id="Path_18" data-name="Path 18" d="M242.353,423.121a2.794,2.794,0,1,1,3.921-.481A2.79,2.79,0,0,1,242.353,423.121Z" fill="#fff"/>
    <path id="Path_19" data-name="Path 19" d="M212.878,431.6a2.794,2.794,0,1,1,3.921-.482A2.791,2.791,0,0,1,212.878,431.6Z" fill="#fff"/>
    <path id="Path_20" data-name="Path 20" d="M210.187,402.317a2.794,2.794,0,1,1,3.921-.482A2.792,2.792,0,0,1,210.187,402.317Z" fill="#fff"/>
    <path id="Path_21" data-name="Path 21" d="M262.423,452.594a2.638,2.638,0,1,1,3.7-.454A2.634,2.634,0,0,1,262.423,452.594Z" fill="#fff"/>
    <path id="Path_22" data-name="Path 22" d="M262.268,409.492a2.639,2.639,0,1,1,3.7-.455A2.636,2.636,0,0,1,262.268,409.492Z" fill="#fff"/>
    <path id="Path_23" data-name="Path 23" d="M294.484,500.264l18.693-40.313-48.37-8.644-20.488-30.2-20.571,7.169-9.723,1.857L212.1,399.872l-26.2-2.749-20.838-22.195" fill="none" stroke="#fff" stroke-linecap="round" stroke-linejoin="round" stroke-width="0.767"/>
    <path id="Path_24" data-name="Path 24" d="M243.364,420.367l-11.125-24.493-20.386-32.44" fill="none" stroke="#fff" stroke-miterlimit="10" stroke-width="0.767"/>
    <path id="Path_25" data-name="Path 25" d="M294.667,408.851a1.4,1.4,0,1,1,1.961-.241A1.4,1.4,0,0,1,294.667,408.851Z" fill="#fff"/>
    <path id="Path_26" data-name="Path 26" d="M269.334,396.933a1.4,1.4,0,1,1,1.961-.241A1.4,1.4,0,0,1,269.334,396.933Z" fill="#fff"/>
    <path id="Path_27" data-name="Path 27" d="M240.3,362.814a1.242,1.242,0,1,1,1.743-.214A1.24,1.24,0,0,1,240.3,362.814Z" fill="#fff"/>
    <path id="Path_28" data-name="Path 28" d="M278.593,432.927a1.087,1.087,0,1,1,1.525-.187A1.085,1.085,0,0,1,278.593,432.927Z" fill="#fff"/>
    <path id="Path_29" data-name="Path 29" d="M225.8,358.185a1.242,1.242,0,1,1,1.743-.214A1.241,1.241,0,0,1,225.8,358.185Z" fill="#fff"/>
    <path id="Path_30" data-name="Path 30" d="M327.8,431.2a1.552,1.552,0,1,1,2.179-.268A1.551,1.551,0,0,1,327.8,431.2Z" fill="#fff"/>
    <path id="Path_31" data-name="Path 31" d="M154.4,352.808a1.553,1.553,0,1,1,2.179-.268A1.55,1.55,0,0,1,154.4,352.808Z" fill="#fff"/>
    <path id="Path_32" data-name="Path 32" d="M127.9,358.49l1.5-.38.13-.03,24.32-6.12,1.5-.38.56-1.44,4.16-10.83" fill="none" stroke="#fff" stroke-miterlimit="10" stroke-width="0.767"/>
    <path id="Path_33" data-name="Path 33" d="M177.7,339.31l1.7.73,1.14.49" fill="none" stroke="#fff" stroke-miterlimit="10" stroke-width="0.767"/>
    <path id="Path_34" data-name="Path 34" d="M322,353.2a2.483,2.483,0,1,1,2.482-2.483A2.482,2.482,0,0,1,322,353.2Z" fill="#fff"/>
    <path id="Path_35" data-name="Path 35" d="M297.8,374.931a1.552,1.552,0,1,1,1.551-1.552A1.551,1.551,0,0,1,297.8,374.931Z" fill="#fff"/>
    <path id="Path_36" data-name="Path 36" d="M310.988,396.656a1.707,1.707,0,1,1,1.707-1.707A1.706,1.706,0,0,1,310.988,396.656Z" fill="#fff"/>
    <path id="Path_37" data-name="Path 37" d="M271.587,403.794a1.707,1.707,0,1,1,1.707-1.707A1.706,1.706,0,0,1,271.587,403.794Z" fill="#fff"/>
    <path id="Path_38" data-name="Path 38" d="M197.9,403.173a1.862,1.862,0,1,1,1.861-1.862A1.862,1.862,0,0,1,197.9,403.173Z" fill="#fff"/>
    <path id="Path_39" data-name="Path 39" d="M167.345,363.137a1.707,1.707,0,1,1,1.707-1.707A1.707,1.707,0,0,1,167.345,363.137Z" fill="#fff"/>
    <path id="Path_40" data-name="Path 40" d="M144.65,339.31a1.251,1.251,0,0,1-.73.24,1.228,1.228,0,0,1-.73-.24Z" fill="#fff"/>
    <path id="Path_41" data-name="Path 41" d="M124.842,345.136a1.707,1.707,0,1,1,1.706-1.707A1.706,1.706,0,0,1,124.842,345.136Z" fill="#fff"/>
    <path id="Path_42" data-name="Path 42" d="M113.519,386.414a1.552,1.552,0,1,1,1.551-1.552A1.552,1.552,0,0,1,113.519,386.414Z" fill="#fff"/>
    <path id="Path_43" data-name="Path 43" d="M139.113,405.656a1.707,1.707,0,1,1,1.707-1.707A1.706,1.706,0,0,1,139.113,405.656Z" fill="#fff"/>
    <path id="Path_44" data-name="Path 44" d="M232.031,383.621a2.794,2.794,0,1,1,2.793-2.794A2.793,2.793,0,0,1,232.031,383.621Z" fill="#fff"/>
    <path id="Path_45" data-name="Path 45" d="M218.38,353.2a2.793,2.793,0,1,1,2.793-2.793A2.792,2.792,0,0,1,218.38,353.2Z" fill="#fff"/>
    <path id="Path_46" data-name="Path 46" d="M184.36,339.31a2.765,2.765,0,0,1-3.31,0Z" fill="#fff"/>
    <path id="Path_47" data-name="Path 47" d="M182.858,382.069a2.949,2.949,0,1,1,2.947-2.949A2.948,2.948,0,0,1,182.858,382.069Z" fill="#fff"/>
    <path id="Path_48" data-name="Path 48" d="M152.454,378.034a2.949,2.949,0,1,1,2.947-2.948A2.948,2.948,0,0,1,152.454,378.034Z" fill="#fff"/>
    <path id="Path_49" data-name="Path 49" d="M243.51,365.309a2.793,2.793,0,1,1,2.793-2.793A2.792,2.792,0,0,1,243.51,365.309Z" fill="#fff"/>
    <path id="Path_50" data-name="Path 50" d="M225.516,390.138a2.793,2.793,0,1,1,2.792-2.793A2.792,2.792,0,0,1,225.516,390.138Z" fill="#fff"/>
    <path id="Path_51" data-name="Path 51" d="M205.35,368.723a2.793,2.793,0,1,1,2.792-2.793A2.792,2.792,0,0,1,205.35,368.723Z" fill="#fff"/>
    <path id="Path_52" data-name="Path 52" d="M277.482,376.172a2.638,2.638,0,1,1,2.637-2.638A2.638,2.638,0,0,1,277.482,376.172Z" fill="#fff"/>
    <path id="Path_53" data-name="Path 53" d="M253.44,339.67a2.64,2.64,0,0,1-5.28,0c0-.12.01-.24.02-.36h5.24C253.43,339.43,253.44,339.55,253.44,339.67Z" fill="#fff"/>
    <path id="Path_54" data-name="Path 54" d="M332.116,393.987,322,350.722l-43.434,22.967-34.747-11.173-11.79,18.311-6.515,7.449L205.35,365.62l-22.337,13.966-30.094-4.655" fill="none" stroke="#fff" stroke-linecap="round" stroke-linejoin="round" stroke-width="0.767"/>
    <path id="Path_55" data-name="Path 55" d="M242.61,362.52l-.4-.21-1.34-.7-.85-.44-18.98-9.9-2.29-1.2-2.81-1.01-27.03-9.75" fill="none" stroke="#fff" stroke-miterlimit="10" stroke-width="0.767"/>
    <path id="Path_56" data-name="Path 56" d="M278.1,350.723a1.087,1.087,0,1,1,1.085-1.086A1.086,1.086,0,0,1,278.1,350.723Z" fill="#fff"/>
    <path id="Path_57" data-name="Path 57" d="M130.892,364.068a1.552,1.552,0,1,1,1.551-1.552A1.551,1.551,0,0,1,130.892,364.068Z" fill="#fff"/>
    <path id="Path_58" data-name="Path 58" d="M140.11,339.31l-13.65,3.58-1.46.38.53,1.72,4,13.09.91,2.95.45,1.49-.94,1.21-15.48,19.91-.95,1.22" fill="none" stroke="#fff" stroke-miterlimit="10" stroke-width="0.767"/>
    <path id="Path_59" data-name="Path 59" d="M410.313,432.013a1.862,1.862,0,1,1,1.861-1.862A1.862,1.862,0,0,1,410.313,432.013Z" fill="#fff"/>
    <path id="Path_60" data-name="Path 60" d="M379.754,391.976a1.707,1.707,0,1,1,1.706-1.707A1.707,1.707,0,0,1,379.754,391.976Z" fill="#fff"/>
    <path id="Path_61" data-name="Path 61" d="M356.33,368.389a1.242,1.242,0,1,1,1.241-1.241A1.241,1.241,0,0,1,356.33,368.389Z" fill="#fff"/>
    <path id="Path_62" data-name="Path 62" d="M337.25,373.975a1.707,1.707,0,1,1,1.707-1.707A1.706,1.706,0,0,1,337.25,373.975Z" fill="#fff"/>
    <path id="Path_63" data-name="Path 63" d="M323.134,352.25a1.552,1.552,0,1,1,1.551-1.552A1.551,1.551,0,0,1,323.134,352.25Z" fill="#fff"/>
    <path id="Path_64" data-name="Path 64" d="M325.926,415.253a1.551,1.551,0,1,1,1.552-1.552A1.551,1.551,0,0,1,325.926,415.253Z" fill="#fff"/>
    <path id="Path_65" data-name="Path 65" d="M351.522,434.5a1.707,1.707,0,1,1,1.706-1.707A1.707,1.707,0,0,1,351.522,434.5Z" fill="#fff"/>
    <path id="Path_66" data-name="Path 66" d="M395.111,368.7a2.793,2.793,0,1,1,2.792-2.793A2.793,2.793,0,0,1,395.111,368.7Z" fill="#fff"/>
    <path id="Path_67" data-name="Path 67" d="M395.266,410.908a2.949,2.949,0,1,1,2.947-2.948A2.947,2.947,0,0,1,395.266,410.908Z" fill="#fff"/>
    <path id="Path_68" data-name="Path 68" d="M364.862,406.874a2.949,2.949,0,1,1,2.947-2.949A2.948,2.948,0,0,1,364.862,406.874Z" fill="#fff"/>
    <path id="Path_69" data-name="Path 69" d="M417.758,397.563a2.793,2.793,0,1,1,2.793-2.793A2.793,2.793,0,0,1,417.758,397.563Z" fill="#fff"/>
    <path id="Path_70" data-name="Path 70" d="M365.33,403.77l2.47.38,24.52,3.8,3.1.48,2.57-1.6,17.28-10.81,2.49-1.56,2,2.25,5.59,6.28" fill="none" stroke="#fff" stroke-linecap="round" stroke-linejoin="round" stroke-width="0.767"/>
    <path id="Path_71" data-name="Path 71" d="M425.35,376.81l-27.61-9.95h-.01l-2.62-.95" fill="none" stroke="#fff" stroke-miterlimit="10" stroke-width="0.767"/>
    <path id="Path_72" data-name="Path 72" d="M417.138,347.9a1.242,1.242,0,1,1,1.241-1.242A1.242,1.242,0,0,1,417.138,347.9Z" fill="#fff"/>
    <path id="Path_73" data-name="Path 73" d="M402.867,353.181a1.242,1.242,0,1,1,1.241-1.241A1.241,1.241,0,0,1,402.867,353.181Z" fill="#fff"/>
    <path id="Path_74" data-name="Path 74" d="M343.3,392.908a1.552,1.552,0,1,1,1.551-1.552A1.551,1.551,0,0,1,343.3,392.908Z" fill="#fff"/>
    <path id="Path_75" data-name="Path 75" d="M325.926,413.7,343.3,391.356,337.4,372.113l18.925-4.965" fill="none" stroke="#fff" stroke-miterlimit="10" stroke-width="0.767"/>
    <path id="Path_76" data-name="Path 76" d="M410.313,541.9a1.862,1.862,0,1,1,1.861-1.862A1.862,1.862,0,0,1,410.313,541.9Z" fill="#fff"/>
    <path id="Path_77" data-name="Path 77" d="M379.754,501.865a1.706,1.706,0,1,1,1.706-1.707A1.707,1.707,0,0,1,379.754,501.865Z" fill="#fff"/>
    <path id="Path_78" data-name="Path 78" d="M356.33,478.277a1.242,1.242,0,1,1,1.241-1.241A1.241,1.241,0,0,1,356.33,478.277Z" fill="#fff"/>
    <path id="Path_79" data-name="Path 79" d="M337.25,483.865a1.707,1.707,0,1,1,1.707-1.707A1.707,1.707,0,0,1,337.25,483.865Z" fill="#fff"/>
    <path id="Path_80" data-name="Path 80" d="M323.134,462.139a1.552,1.552,0,1,1,1.551-1.552A1.552,1.552,0,0,1,323.134,462.139Z" fill="#fff"/>
    <path id="Path_81" data-name="Path 81" d="M325.926,525.143a1.552,1.552,0,1,1,1.552-1.553A1.553,1.553,0,0,1,325.926,525.143Z" fill="#fff"/>
    <path id="Path_82" data-name="Path 82" d="M351.522,544.385a1.707,1.707,0,1,1,1.706-1.707A1.707,1.707,0,0,1,351.522,544.385Z" fill="#fff"/>
    <path id="Path_83" data-name="Path 83" d="M395.111,478.589a2.794,2.794,0,1,1,2.792-2.795A2.795,2.795,0,0,1,395.111,478.589Z" fill="#fff"/>
    <path id="Path_84" data-name="Path 84" d="M395.266,520.8a2.948,2.948,0,1,1,2.947-2.948A2.947,2.947,0,0,1,395.266,520.8Z" fill="#fff"/>
    <path id="Path_85" data-name="Path 85" d="M364.862,516.762a2.949,2.949,0,1,1,2.947-2.948A2.947,2.947,0,0,1,364.862,516.762Z" fill="#fff"/>
    <path id="Path_86" data-name="Path 86" d="M417.758,507.452a2.794,2.794,0,1,1,2.793-2.794A2.793,2.793,0,0,1,417.758,507.452Z" fill="#fff"/>
    <path id="Path_87" data-name="Path 87" d="M365.33,513.66l2.46.38,24.53,3.79,3.1.48,2.56-1.6,17.29-10.8,2.49-1.56,2,2.25,5.59,6.28" fill="none" stroke="#fff" stroke-linecap="round" stroke-linejoin="round" stroke-width="0.767"/>
    <path id="Path_88" data-name="Path 88" d="M425.35,486.7l-27.62-9.96-2.62-.95" fill="none" stroke="#fff" stroke-miterlimit="10" stroke-width="0.767"/>
    <path id="Path_89" data-name="Path 89" d="M387.044,436.068a1.242,1.242,0,1,1,1.241-1.241A1.241,1.241,0,0,1,387.044,436.068Z" fill="#fff"/>
    <path id="Path_90" data-name="Path 90" d="M417.138,457.794a1.242,1.242,0,1,1,1.241-1.242A1.242,1.242,0,0,1,417.138,457.794Z" fill="#fff"/>
    <path id="Path_91" data-name="Path 91" d="M367.5,446.62a1.862,1.862,0,1,1,1.862-1.862A1.862,1.862,0,0,1,367.5,446.62Z" fill="#fff"/>
    <path id="Path_92" data-name="Path 92" d="M402.867,463.07a1.242,1.242,0,1,1,1.241-1.242A1.241,1.241,0,0,1,402.867,463.07Z" fill="#fff"/>
    <path id="Path_93" data-name="Path 93" d="M343.3,502.8a1.551,1.551,0,1,1,1.551-1.551A1.55,1.55,0,0,1,343.3,502.8Z" fill="#fff"/>
    <path id="Path_94" data-name="Path 94" d="M325.926,523.59,343.3,501.245,337.4,482l18.925-4.967" fill="none" stroke="#fff" stroke-miterlimit="10" stroke-width="0.767"/>
  </g>
</svg>
