<svg width="505" height="400" viewBox="0 0 505 400" fill="none" xmlns="http://www.w3.org/2000/svg">
<g clip-path="url(#clip0)">
<path opacity="0.1" d="M208.835 67.598C240.789 66.4912 271.227 56.2152 300.288 44.9702C329.348 33.7252 358.132 21.2652 389.321 15.3082C409.381 11.4762 432.324 10.9351 448.483 21.6489C464.041 31.9789 469.067 49.7614 471.767 66.2797C473.802 78.7053 474.996 91.7802 469.422 103.414C465.556 111.491 458.689 118.279 453.944 126.042C437.419 152.959 449.096 186.153 467.003 212.435C475.396 224.768 485.147 236.539 491.625 249.653C498.103 262.767 501.105 277.815 495.437 291.205C489.813 304.486 476.418 314.442 461.913 321.452C432.442 335.693 397.729 339.766 363.854 342.073C288.892 347.184 213.535 344.97 138.376 342.757C110.56 341.935 82.6247 341.104 55.2625 336.819C40.0657 334.438 24.3802 330.666 13.3454 321.546C-0.656555 309.971 -4.12744 290.368 5.2533 275.857C20.9981 251.513 64.5001 245.467 75.52 219.337C81.5731 204.958 75.3521 188.942 66.554 175.601C47.674 146.992 16.0313 121.89 14.3625 89.1878C13.2171 66.7224 28.4336 44.2324 51.9546 33.6022C76.6062 22.4212 110.801 23.8378 128.98 42.2795C147.712 61.2819 180.624 68.572 208.835 67.598Z" fill="#6C63FF"/>
<path d="M290.008 339.663L459 338.841L475.791 299.602L416.416 295.307L426.765 252.285L309.328 237.119L421.783 198.17L411.849 195.819L231.023 225.21L240.981 292.351L255.215 329.249L290.008 339.663Z" fill="#6C63FF"/>
<path d="M456.408 322.406C456.408 322.406 446.04 320.754 439.819 328.054C439.819 328.054 444.381 331.635 454.196 326.676L456.408 322.406Z" fill="#6C63FF"/>
<path d="M457.494 322.244C457.494 322.244 464.11 330.356 460.851 339.387C460.851 339.387 455.46 337.238 454.872 326.288L457.494 322.244Z" fill="#6C63FF"/>
<path d="M463.438 308.909C463.438 308.909 459.291 301.328 442.702 311.939C442.702 311.939 444.914 317.035 452.241 316.622C459.568 316.208 461.503 312.903 463.438 308.909Z" fill="#6C63FF"/>
<path d="M464.51 308.362C464.51 308.362 473.115 307.379 473.95 327.006C473.95 327.006 468.494 328.132 464.618 321.924C460.743 315.716 462.332 312.234 464.51 308.362Z" fill="#6C63FF"/>
<path d="M469.521 292.705C469.521 292.705 464.683 279.345 447.126 288.849C447.126 288.849 451.135 301.107 467.724 297.25L469.521 292.705Z" fill="#6C63FF"/>
<path d="M474.913 272.733C474.913 272.733 465.789 259.235 449.614 271.75C449.614 271.75 455.282 284.421 473.53 277.535L474.913 272.733Z" fill="#6C63FF"/>
<path d="M476.848 253.726C476.848 253.726 466.203 241.325 450.187 253.726C450.187 253.726 460.279 264.607 476.848 256.894V253.726Z" fill="#6C63FF"/>
<path d="M478.507 235.265C478.507 235.265 467.724 222.318 452.379 234.576C452.379 234.576 464.544 246.008 478.507 238.295V235.265Z" fill="#6C63FF"/>
<path d="M477.539 218.874C477.539 218.874 466.183 202.209 451.826 213.503C451.826 213.503 463.991 227.827 477.539 222.042V218.874Z" fill="#6C63FF"/>
<path d="M474.913 199.729C474.913 199.729 462.885 183.201 448.923 195.873C448.923 195.873 463.162 210.197 474.913 202.76V199.729Z" fill="#6C63FF"/>
<path d="M470.903 182.616C470.903 182.616 456.664 167.082 444.242 173.27C444.242 173.27 459.079 189.768 471.526 186.738L470.903 182.616Z" fill="#6C63FF"/>
<path d="M465.927 166.393C465.927 166.393 449.496 147.366 439.937 153.721C439.937 153.721 452.043 168.479 467.092 169.954L465.927 166.393Z" fill="#6C63FF"/>
<path d="M458.743 147.577C458.743 147.577 444.361 132.043 433.854 135.899C433.854 135.899 446.158 152.014 460.674 152.428L458.743 147.577Z" fill="#6C63FF"/>
<path d="M452.241 129.977C452.241 129.977 436.343 115.102 429.431 117.718C429.431 117.718 440.905 134.247 452.932 133.282L452.241 129.977Z" fill="#6C63FF"/>
<path d="M445.882 113.724C445.882 113.724 432.196 95.9517 424.725 97.329C424.725 97.329 433.025 113.173 445.882 115.53V113.724Z" fill="#6C63FF"/>
<path d="M438.979 91.8097C438.979 91.8097 426.883 78.1888 420.346 78.2183C420.346 78.2183 429.895 96.4189 439.478 96.2516L438.979 91.8097Z" fill="#6C63FF"/>
<path d="M434.891 77.2197L423.205 48.8464C423.205 48.8464 422.622 74.4945 436.377 82.4831L434.891 77.2197Z" fill="#6C63FF"/>
<path d="M430.147 45.9294C430.147 45.9294 428.211 22.2342 429.455 20.3059C429.455 20.3059 421.102 40.0068 430.226 56.3972L430.147 45.9294Z" fill="#6C63FF"/>
<path d="M469.975 292.39C469.975 292.39 482.091 284.908 489.936 303.212C489.936 303.212 479.154 310.345 468.548 297.058L469.975 292.39Z" fill="#6C63FF"/>
<path d="M475.303 271.971C475.303 271.971 490.164 265.217 497.372 284.328C497.372 284.328 485.893 292.198 473.95 276.802L475.303 271.971Z" fill="#6C63FF"/>
<path d="M477.539 254.862C477.539 254.862 488.184 242.461 504.2 254.862C504.2 254.862 494.108 265.743 477.539 258.03V254.862Z" fill="#6C63FF"/>
<path d="M478.872 235.265C478.872 235.265 489.655 222.318 505 234.576C505 234.576 492.835 246.008 478.872 238.295V235.265Z" fill="#6C63FF"/>
<path d="M477.539 219.347C477.539 219.347 485.103 200.679 501.544 208.707C501.544 208.707 492.657 225.26 478.211 222.446L477.539 219.347Z" fill="#6C63FF"/>
<path d="M473.96 199.636C473.96 199.636 481.479 180.643 498.152 189.449C498.152 189.449 487.942 206.857 474.7 202.568L473.96 199.636Z" fill="#6C63FF"/>
<path d="M469.299 182.709C469.299 182.709 472.261 161.887 486.085 160.023C486.085 160.023 483.153 181.981 471.16 186.463L469.299 182.709Z" fill="#6C63FF"/>
<path d="M465.576 166.432C465.576 166.432 466.731 141.345 478.161 140.469C478.161 140.469 477.776 159.511 466.865 169.984L465.576 166.432Z" fill="#6C63FF"/>
<path d="M457.558 146.874C457.558 146.874 460.965 126.012 471.876 123.464C471.876 123.464 470.523 143.667 458.639 151.995L457.558 146.874Z" fill="#6C63FF"/>
<path d="M450.947 130.149C450.947 130.149 451.061 108.417 457.726 105.224C457.726 105.224 461.858 124.9 452.878 132.923L450.947 130.149Z" fill="#6C63FF"/>
<path d="M445.373 113.478C445.373 113.478 446.306 91.1014 453.208 87.9482C453.208 87.9482 455.568 105.657 446.405 114.944L445.373 113.478Z" fill="#6C63FF"/>
<path d="M438.017 93.5954C438.017 93.5954 438.056 75.3948 442.983 71.125C442.983 71.125 447.881 91.062 440.589 97.2551L438.017 93.5954Z" fill="#6C63FF"/>
<path d="M435.469 76.3244L440.263 46.0327C440.263 46.0327 446.775 70.8544 435.242 81.7944L435.469 76.3244Z" fill="#6C63FF"/>
<path d="M434.536 46.2147C434.536 46.2147 446.839 25.8497 446.588 23.5869C446.588 23.5869 445.279 44.9308 429.801 55.5609L434.536 46.2147Z" fill="#6C63FF"/>
<path d="M433.094 40.1988C433.094 40.1988 444.707 11.2746 449.96 8.93311C449.96 8.93311 433.371 17.3349 432.126 39.3724L433.094 40.1988Z" fill="#6C63FF"/>
<path d="M439.537 96.4238L440.332 96.1828C430.532 64.3415 428.088 44.0405 433.445 38.9492L432.877 38.3491C427.194 43.7208 429.5 63.8005 439.537 96.4238Z" fill="#444053"/>
<path d="M466.524 170.977L467.699 170.559C466.657 167.642 465.537 164.681 464.362 161.764C454.132 136.362 445.422 112.731 439.838 94.589L438.816 94.097C444.41 112.273 452.966 136.809 463.206 162.246C464.376 165.109 465.492 168.055 466.524 170.977Z" fill="#444053"/>
<path d="M441.798 346.234C441.956 346.062 457.84 328.24 468.914 297.816C475.403 280.004 479.014 261.278 479.613 242.339C480.373 218.663 475.386 192.228 466.845 168.213L465.917 169.295C485.093 223.193 477.475 269.379 467.368 297.191C456.413 327.34 440.707 344.965 440.554 345.142L441.798 346.234Z" fill="#444053"/>
<path d="M193.594 308.397C193.594 308.397 204.787 322.008 195.9 342.584L285.263 381.199L293.839 382.99L297.789 365.773L295.148 344.045V332.171L193.594 308.397Z" fill="#D5D6DB"/>
<path d="M475.791 299.602L352.104 277.136L188.212 303.148L290.008 339.663L475.791 299.602Z" fill="#6C63FF"/>
<path d="M475.791 299.602L352.104 277.136L188.212 303.148L290.008 339.663L475.791 299.602Z" fill="#6C63FF"/>
<path d="M475.791 299.597C475.791 299.597 487.359 321.432 474.029 341.601L290.611 381.199C290.611 381.199 301.996 363.805 290.023 339.663L475.791 299.597Z" fill="#6C63FF"/>
<path opacity="0.1" d="M475.791 299.597C475.791 299.597 487.359 321.432 474.029 341.601L290.611 381.199C290.611 381.199 301.996 363.805 290.023 339.663L475.791 299.597Z" fill="black"/>
<path opacity="0.1" d="M470.326 307.167C470.326 307.167 476.937 323.144 470.326 333.484V307.167Z" fill="black"/>
<path d="M290.611 381.199L188.212 337.666C188.212 337.666 182.485 338.895 186.188 343.077C189.891 347.258 288.636 385.381 288.636 385.381L474.029 341.601L290.611 381.199Z" fill="#6C63FF"/>
<path opacity="0.1" d="M290.611 381.199L188.212 337.666C188.212 337.666 182.485 338.895 186.188 343.077C189.891 347.258 288.636 385.381 288.636 385.381L474.029 341.601L290.611 381.199Z" fill="black"/>
<path opacity="0.1" d="M299.004 344.06C299.004 344.06 308.878 355.866 299.004 373.575V344.06Z" fill="black"/>
<path opacity="0.1" d="M251.198 343.861L295.489 358.583L295.333 359.05L251.042 344.327L251.198 343.861Z" fill="black"/>
<path opacity="0.1" d="M242.327 342.395L295.503 362.542L295.328 363.002L242.151 342.855L242.327 342.395Z" fill="black"/>
<path opacity="0.1" d="M234.179 342.325L295.207 367.212L295.02 367.668L233.992 342.78L234.179 342.325Z" fill="black"/>
<path opacity="0.1" d="M225.32 340.194L294.494 371.327L294.291 371.775L225.116 340.642L225.32 340.194Z" fill="black"/>
<path opacity="0.1" d="M217.877 340.204L293.947 373.332L293.749 373.783L217.679 340.655L217.877 340.204Z" fill="black"/>
<path opacity="0.1" d="M201.596 337.449L292.8 376.696L292.604 377.148L201.4 337.901L201.596 337.449Z" fill="black"/>
<path opacity="0.3" d="M429.84 302.002L342.945 283.802L290.008 293.886L361.213 316.759L429.84 302.002Z" fill="white"/>
<path d="M188.212 303.148C188.212 303.148 183.719 304.954 186.356 307.743C188.992 310.532 290.023 339.663 290.023 339.663L188.212 303.148Z" fill="#6C63FF"/>
<path d="M144.572 261.085C144.572 261.085 155.76 274.691 146.873 295.273L236.237 333.888L244.813 335.688L248.763 318.471L246.082 296.748V284.859L144.572 261.085Z" fill="#D5D6DB"/>
<path d="M426.765 252.285L303.082 229.824L139.186 255.836L240.981 292.351L426.765 252.285Z" fill="#3A3768"/>
<path d="M426.784 252.285C426.784 252.285 438.357 274.121 425.027 294.289L241.608 333.888C241.608 333.888 252.989 316.479 241.001 292.346L426.784 252.285Z" fill="#3A3768"/>
<path opacity="0.1" d="M426.784 252.285C426.784 252.285 438.357 274.121 425.027 294.289L241.608 333.888C241.608 333.888 252.989 316.479 241.001 292.346L299.004 279.837L426.784 252.285Z" fill="black"/>
<path opacity="0.1" d="M421.304 259.855C421.304 259.855 427.91 275.828 421.304 286.173V259.855Z" fill="black"/>
<path d="M241.589 333.888L139.186 290.354C139.186 290.354 133.463 291.584 137.166 295.765C140.869 299.946 239.614 338.069 239.614 338.069L425.007 294.289L241.589 333.888Z" fill="#3A3768"/>
<path opacity="0.1" d="M241.589 333.888L139.186 290.354C139.186 290.354 133.463 291.584 137.166 295.765C140.869 299.946 239.614 338.069 239.614 338.069L425.007 294.289L241.589 333.888Z" fill="black"/>
<path opacity="0.1" d="M249.982 296.749C249.982 296.749 259.856 308.554 249.982 326.263V296.749Z" fill="black"/>
<path opacity="0.1" d="M202.172 296.554L246.464 311.276L246.308 311.743L202.016 297.021L202.172 296.554Z" fill="black"/>
<path opacity="0.1" d="M193.295 295.087L246.472 315.234L246.296 315.693L193.119 295.547L193.295 295.087Z" fill="black"/>
<path opacity="0.1" d="M185.155 295.009L246.182 319.897L245.995 320.352L184.968 295.464L185.155 295.009Z" fill="black"/>
<path opacity="0.1" d="M176.289 292.879L245.464 324.012L245.261 324.461L176.086 293.327L176.289 292.879Z" fill="black"/>
<path opacity="0.1" d="M168.853 292.883L244.923 326.011L244.726 326.462L168.655 293.334L168.853 292.883Z" fill="black"/>
<path opacity="0.1" d="M152.569 290.128L243.773 329.375L243.577 329.827L152.373 290.58L152.569 290.128Z" fill="black"/>
<path opacity="0.45" d="M380.814 254.69L293.918 236.49L240.981 246.574L312.186 269.448L380.814 254.69Z" fill="white"/>
<path d="M139.186 255.837C139.186 255.837 134.698 257.642 137.329 260.426C139.961 263.21 240.981 292.346 240.981 292.346L139.186 255.837Z" fill="#3A3768"/>
<path d="M139.931 206.961C139.931 206.961 151.124 231.394 142.237 251.97L231.601 279.763L240.157 281.568L244.107 264.351L241.465 242.624V230.734L139.931 206.961Z" fill="#D5D6DB"/>
<path d="M422.109 198.165L298.421 175.7L134.525 201.712L236.326 238.226L422.109 198.165Z" fill="#6C63FF"/>
<path d="M422.109 198.16C422.109 198.16 433.696 219.996 420.366 240.164L236.948 279.763C236.948 279.763 248.333 262.354 236.345 238.226L422.109 198.16Z" fill="#6C63FF"/>
<path opacity="0.1" d="M422.109 198.16C422.109 198.16 433.696 219.996 420.366 240.164L236.948 279.763C236.948 279.763 248.333 262.354 236.345 238.226L422.109 198.16Z" fill="black"/>
<path opacity="0.1" d="M416.643 205.731C416.643 205.731 423.254 221.708 416.643 232.048V205.731Z" fill="black"/>
<path d="M236.928 279.763L134.53 247.051C134.53 247.051 128.803 248.281 132.506 252.462C136.208 256.643 234.953 283.944 234.953 283.944L420.346 240.164L236.928 279.763Z" fill="#6C63FF"/>
<path opacity="0.1" d="M236.928 279.763L134.53 247.051C134.53 247.051 128.803 248.281 132.506 252.462C136.208 256.643 234.953 283.944 234.953 283.944L420.346 240.164L236.928 279.763Z" fill="black"/>
<path opacity="0.1" d="M245.321 242.624C245.321 242.624 255.196 254.43 245.321 272.138V242.624Z" fill="black"/>
<path opacity="0.1" d="M197.51 242.428L241.802 257.151L241.645 257.618L197.354 242.895L197.51 242.428Z" fill="black"/>
<path opacity="0.1" d="M188.636 240.964L241.813 261.11L241.637 261.57L188.46 241.423L188.636 240.964Z" fill="black"/>
<path opacity="0.1" d="M180.501 240.888L241.528 265.776L241.341 266.231L180.314 241.344L180.501 240.888Z" fill="black"/>
<path opacity="0.1" d="M171.628 238.754L240.803 269.887L240.6 270.335L171.425 239.202L171.628 238.754Z" fill="black"/>
<path opacity="0.1" d="M164.19 238.763L240.26 271.89L240.062 272.341L163.992 239.213L164.19 238.763Z" fill="black"/>
<path opacity="0.1" d="M147.907 236.011L239.111 275.258L238.915 275.71L147.711 236.463L147.907 236.011Z" fill="black"/>
<path opacity="0.3" d="M376.158 200.566L289.263 182.365L236.326 192.449L307.53 215.323L376.158 200.566Z" fill="white"/>
<path d="M134.53 201.712C134.53 201.712 130.037 203.517 132.673 206.306C135.31 209.095 236.326 238.226 236.326 238.226L134.53 201.712Z" fill="#6C63FF"/>
<path d="M351.738 52.3882C351.738 52.3882 370.5 51.2618 368.308 64.376C368.308 64.376 368.747 66.6929 366.639 67.7456C366.639 67.7456 366.604 66.7618 364.713 67.1012C364.039 67.2167 363.352 67.2497 362.669 67.1996C361.749 67.1368 360.874 66.7777 360.176 66.1764C360.176 66.1764 354.898 64.0022 352.844 55.4036C352.844 55.4036 351.324 53.5295 351.363 53.0474L354.543 54.3952C354.543 54.3952 353.461 56.6727 354.311 58.5666C354.311 58.5666 354.414 54.4788 355.027 54.5723C355.15 54.5723 356.671 55.3643 356.671 55.3643C356.671 55.3643 354.809 59.334 356.216 62.2166C356.216 62.2166 355.683 57.327 357.253 55.6496L359.485 56.9482C359.485 56.9482 357.308 61.0458 358.784 64.3908C358.784 64.3908 358.404 59.2602 359.954 57.263L361.978 58.8371C361.978 58.8371 359.929 62.8757 361.178 65.6501C361.178 65.6501 361.341 59.6783 362.413 59.2258C362.413 59.2258 364.185 60.7802 364.452 61.4197C364.452 61.4197 363.05 64.3711 363.923 65.901C363.923 65.901 364.452 61.9214 364.911 61.9017C364.911 61.9017 366.673 64.5384 366.856 66.3289C366.771 64.6596 366.248 63.0417 365.34 61.6361C366.356 61.8276 367.293 62.3116 368.036 63.0282C368.036 63.0282 367.765 61.1639 364.901 61.0015C364.901 61.0015 363.445 58.9995 363.054 58.8814C363.054 58.8814 365.903 58.6404 367.626 59.4028C367.626 59.4028 366.106 57.6467 362.536 58.419L360.561 56.7957C360.561 56.7957 364.304 56.3038 365.893 56.8498C365.893 56.8498 364.062 55.2954 360.023 56.4268L357.846 55.1331C357.846 55.1331 361.04 54.4493 362.941 54.6953C362.941 54.6953 360.936 53.618 357.209 54.7838L355.658 54.0902C355.658 54.0902 357.994 53.6328 358.68 53.559C359.366 53.4852 359.401 53.2983 359.401 53.2983C357.919 53.0557 356.398 53.226 355.007 53.7902C355.007 53.7902 351.674 52.5948 351.738 52.3882Z" fill="#6C63FF"/>
<path opacity="0.1" d="M87.7939 106.292C87.7939 106.292 106.555 105.165 104.363 118.279C104.363 118.279 104.803 120.596 102.694 121.649C102.694 121.649 102.66 120.665 100.769 121.005C100.094 121.117 99.4077 121.15 98.7249 121.103C97.8128 121.036 96.9469 120.677 96.2563 120.08C96.2563 120.08 90.9735 117.905 88.9245 109.307C88.9245 109.307 87.4039 107.433 87.4434 106.951L90.613 108.299C90.613 108.299 89.5318 110.576 90.381 112.47C90.381 112.47 90.4847 108.382 91.092 108.476C91.2154 108.476 92.741 109.268 92.741 109.268C92.741 109.268 90.8797 113.237 92.2818 116.12C92.2818 116.12 91.7486 111.23 93.3236 109.553L95.5552 110.852C95.5552 110.852 93.3779 114.949 94.8541 118.294C94.8541 118.294 94.474 113.163 96.0242 111.166L98.0436 112.74C98.0436 112.74 95.9996 116.779 97.2487 119.553C97.2487 119.553 97.4116 113.582 98.483 113.129C98.483 113.129 100.251 114.683 100.522 115.323C100.522 115.323 99.1199 118.274 99.9888 119.804C99.9888 119.804 100.522 115.825 100.976 115.805C100.976 115.805 102.739 118.442 102.922 120.232C102.836 118.562 102.312 116.944 101.401 115.539C102.418 115.731 103.357 116.215 104.102 116.932C104.102 116.932 103.825 115.067 100.966 114.905C100.966 114.905 99.5099 112.903 99.1199 112.78C99.1199 112.78 101.964 112.544 103.692 113.306C103.692 113.306 102.171 111.55 98.6015 112.322L96.6266 110.699C96.6266 110.699 100.374 110.207 101.959 110.753C101.959 110.753 100.132 109.199 96.0884 110.33L93.916 109.036C93.916 109.036 97.1104 108.353 99.0113 108.599C99.0113 108.599 97.0068 107.521 93.2792 108.687L91.7239 107.994C91.7239 107.994 94.0642 107.536 94.7504 107.462C95.4367 107.389 95.4713 107.202 95.4713 107.202C93.9891 106.956 92.4676 107.126 91.0771 107.693C91.0771 107.693 87.7347 106.498 87.7939 106.292Z" fill="#6C63FF"/>
<path opacity="0.1" d="M320.14 133.406C320.14 133.406 328.316 116.518 338.724 124.841C338.724 124.841 340.97 125.589 340.862 127.936C340.862 127.936 339.998 127.488 339.38 129.298C339.15 129.938 338.845 130.549 338.472 131.118C337.967 131.89 337.223 132.477 336.354 132.791C336.354 132.791 331.876 136.323 323.339 133.912C323.339 133.912 320.955 134.32 320.565 134.035L323.29 131.935C323.29 131.935 324.771 133.986 326.835 134.168C326.835 134.168 323.3 132.087 323.68 131.605C323.759 131.507 325.161 130.557 325.161 130.557C325.161 130.557 327.733 134.114 330.943 134.296C330.943 134.296 326.4 132.377 325.699 130.188L327.921 128.88C327.921 128.88 330.454 132.776 334.103 133.12C334.103 133.12 329.422 130.951 328.43 128.629L330.79 127.645C330.79 127.645 333.332 131.394 336.374 131.664C336.374 131.664 331.219 128.609 331.348 127.453C331.348 127.453 333.574 126.676 334.265 126.75C334.265 126.75 336.151 129.401 337.929 129.401C337.929 129.401 334.705 126.996 334.902 126.607C334.902 126.607 338.072 126.361 339.741 127.099C338.237 126.355 336.564 126.015 334.888 126.115C335.553 125.325 336.435 124.746 337.425 124.448C337.425 124.448 335.658 123.779 334.122 126.184C334.122 126.184 331.654 126.475 331.362 126.755C331.362 126.755 332.542 124.168 334.048 123.041C334.048 123.041 331.767 123.499 330.725 126.976L328.331 127.921C328.331 127.921 329.708 124.418 330.977 123.312C330.977 123.312 328.726 124.143 327.743 128.231L325.551 129.49C325.551 129.49 326.504 126.376 327.65 124.846C327.65 124.846 325.729 126.066 324.934 129.874L323.566 130.887C323.566 130.887 324.307 128.629 324.554 127.999C324.801 127.37 324.677 127.242 324.677 127.242C323.738 128.41 323.143 129.815 322.959 131.3C322.959 131.3 320.318 133.553 320.14 133.406Z" fill="#6C63FF"/>
<path opacity="0.1" d="M130.659 82.434C130.659 82.434 138.83 65.5468 149.243 73.8699C149.243 73.8699 151.484 74.6176 151.381 76.964C151.381 76.964 150.512 76.5213 149.899 78.3266C149.669 78.9691 149.363 79.5818 148.986 80.1515C148.483 80.9218 147.741 81.5073 146.873 81.8191C146.873 81.8191 142.39 85.351 133.858 82.9456C133.858 82.9456 131.474 83.3489 131.079 83.0636L133.789 80.9583C133.789 80.9583 135.27 83.0145 137.329 83.1965C137.329 83.1965 133.799 81.1108 134.179 80.6287C134.258 80.5303 135.66 79.5809 135.66 79.5809C135.66 79.5809 138.228 83.1374 141.442 83.3194C141.442 83.3194 136.895 81.401 136.194 79.2169L138.45 77.9183C138.45 77.9183 140.978 81.8093 144.631 82.1585C144.631 82.1585 139.951 79.9843 138.954 77.6625L141.318 76.6787C141.318 76.6787 143.861 80.4319 146.898 80.6976C146.898 80.6976 141.748 77.6428 141.876 76.4917C141.876 76.4917 144.098 75.7096 144.789 75.7883C144.789 75.7883 146.675 78.4348 148.458 78.4348C148.458 78.4348 145.229 76.0294 145.426 75.6407C145.426 75.6407 148.596 75.3948 150.27 76.1327C148.766 75.3878 147.093 75.0486 145.416 75.1488C146.079 74.3583 146.959 73.7785 147.949 73.4813C147.949 73.4813 146.182 72.8123 144.646 75.2177C144.646 75.2177 142.178 75.5128 141.886 75.7932C141.886 75.7932 143.066 73.2009 144.577 72.0744C144.577 72.0744 142.296 72.5368 141.254 76.0343L138.855 76.9787C138.855 76.9787 140.232 73.4714 141.501 72.3646C141.501 72.3646 139.25 73.196 138.272 77.2837L136.075 78.543C136.075 78.543 137.033 75.4341 138.178 73.8994C138.178 73.8994 136.253 75.1193 135.463 78.9267L134.095 79.94C134.095 79.94 134.831 77.6822 135.083 77.0525C135.335 76.4229 135.206 76.2999 135.206 76.2999C134.27 77.4689 133.677 78.8736 133.493 80.3581C133.493 80.3581 130.812 82.5914 130.659 82.434Z" fill="#6C63FF"/>
<path opacity="0.1" d="M104.546 165.965C104.546 165.965 112.717 149.073 123.144 157.396C123.144 157.396 125.386 158.144 125.282 160.49C125.282 160.49 124.413 160.047 123.801 161.853C123.573 162.495 123.268 163.108 122.893 163.678C122.389 164.448 121.647 165.033 120.78 165.345C120.78 165.345 116.296 168.882 107.76 166.472C107.76 166.472 105.38 166.88 104.985 166.59L107.711 164.489C107.711 164.489 109.192 166.545 111.256 166.727C111.256 166.727 107.725 164.642 108.106 164.16C108.185 164.061 109.587 163.112 109.587 163.112C109.587 163.112 112.154 166.668 115.368 166.855C115.368 166.855 110.821 164.932 110.12 162.748L112.347 161.439C112.347 161.439 114.875 165.335 118.528 165.68C118.528 165.68 113.848 163.505 112.85 161.184L115.215 160.2C115.215 160.2 117.758 163.948 120.794 164.219C120.794 164.219 115.64 161.164 115.768 160.008C115.768 160.008 117.995 159.226 118.686 159.304C118.686 159.304 120.572 161.951 122.354 161.951C122.354 161.951 119.126 159.545 119.323 159.157C119.323 159.157 122.493 158.911 124.166 159.649C122.661 158.904 120.986 158.565 119.308 158.665C119.972 157.873 120.854 157.293 121.846 156.997C121.846 156.997 120.078 156.323 118.543 158.734C118.543 158.734 116.074 159.024 115.783 159.304C115.783 159.304 116.963 156.717 118.469 155.586C118.469 155.586 116.188 156.048 115.146 159.546L112.752 160.49C112.752 160.49 114.129 156.983 115.398 155.881C115.398 155.881 113.147 156.707 112.169 160.8L109.972 162.054C109.972 162.054 110.93 158.945 112.075 157.411C112.075 157.411 110.15 158.631 109.355 162.443L107.987 163.427C107.987 163.427 108.728 161.169 108.975 160.539C109.221 159.91 109.098 159.787 109.098 159.787C108.159 160.954 107.566 162.36 107.385 163.845C107.385 163.845 104.699 166.112 104.546 165.965Z" fill="#6C63FF"/>
<path opacity="0.1" d="M405.293 385.735C399.024 385.735 393.942 385.169 393.942 384.471C393.942 383.772 399.024 383.206 405.293 383.206C411.561 383.206 416.643 383.772 416.643 384.471C416.643 385.169 411.561 385.735 405.293 385.735Z" fill="#6C63FF"/>
<path opacity="0.1" d="M479.702 364.248C473.433 364.248 468.351 363.682 468.351 362.984C468.351 362.286 473.433 361.72 479.702 361.72C485.97 361.72 491.052 362.286 491.052 362.984C491.052 363.682 485.97 364.248 479.702 364.248Z" fill="#6C63FF"/>
<path opacity="0.1" d="M348.574 400.005C342.305 400.005 337.223 399.439 337.223 398.741C337.223 398.043 342.305 397.477 348.574 397.477C354.842 397.477 359.924 398.043 359.924 398.741C359.924 399.439 354.842 400.005 348.574 400.005Z" fill="#6C63FF"/>
<path opacity="0.1" d="M57.9187 368.921C51.6499 368.921 46.568 368.355 46.568 367.657C46.568 366.959 51.6499 366.393 57.9187 366.393C64.1875 366.393 69.2694 366.959 69.2694 367.657C69.2694 368.355 64.1875 368.921 57.9187 368.921Z" fill="#6C63FF"/>
<path opacity="0.1" d="M152.373 362.787C146.104 362.787 141.022 362.221 141.022 361.523C141.022 360.825 146.104 360.259 152.373 360.259C158.642 360.259 163.724 360.825 163.724 361.523C163.724 362.221 158.642 362.787 152.373 362.787Z" fill="#6C63FF"/>
<path opacity="0.1" d="M213.476 392.705C206.062 392.705 200.052 391.677 200.052 390.408C200.052 389.139 206.062 388.111 213.476 388.111C220.89 388.111 226.9 389.139 226.9 390.408C226.9 391.677 220.89 392.705 213.476 392.705Z" fill="#6C63FF"/>
<path d="M207.487 367.318C207.487 367.318 226.18 376.939 216.522 388.273C216.522 388.273 215.614 390.732 212.987 390.56C212.987 390.56 213.511 389.606 211.506 388.843C210.793 388.569 210.115 388.21 209.487 387.776C208.638 387.191 208.004 386.347 207.68 385.371C207.68 385.371 203.858 380.274 206.821 370.845C206.821 370.845 206.436 368.178 206.771 367.746L209.042 370.85C209.042 370.85 206.697 372.419 206.426 374.726C206.426 374.726 208.894 370.854 209.388 371.282C209.497 371.371 210.514 372.979 210.514 372.979C210.514 372.979 206.445 375.729 206.144 379.3C206.144 379.3 208.435 374.298 210.909 373.585L212.326 376.103C212.326 376.103 207.882 378.799 207.389 382.852C207.389 382.852 209.971 377.712 212.607 376.674L213.649 379.335C213.649 379.335 209.363 382.05 208.968 385.425C208.968 385.425 212.553 379.783 213.841 379.96C213.841 379.96 214.651 382.458 214.543 383.231C214.543 383.231 211.516 385.248 211.462 387.23C211.462 387.23 214.256 383.713 214.686 383.944C214.686 383.944 214.864 387.481 214.004 389.321C214.004 389.321 215.486 386.694 215.244 383.944C216.11 384.707 216.733 385.706 217.036 386.817C217.036 386.817 217.841 384.874 215.189 383.083C215.189 383.083 214.938 380.333 214.631 379.994C214.631 379.994 217.5 381.391 218.719 383.103C218.719 383.103 218.27 380.55 214.38 379.281L213.392 376.585C213.392 376.585 217.283 378.228 218.482 379.674C218.482 379.674 217.618 377.141 213.086 375.926L211.743 373.466C211.743 373.466 215.199 374.627 216.888 375.926C216.888 375.926 215.579 373.747 211.328 372.743L210.237 371.194C210.237 371.194 212.745 372.084 213.447 372.404C214.148 372.724 214.286 372.566 214.286 372.566C213.004 371.486 211.447 370.781 209.788 370.53C209.788 370.53 207.314 367.485 207.487 367.318Z" fill="#6C63FF"/>
<path d="M36.2493 304.103C36.2493 304.103 33.3215 307.915 37.6021 313.675C41.8826 319.435 45.4078 324.295 43.9859 327.886C43.9859 327.886 37.528 317.192 32.2748 317.04C27.0215 316.887 30.4776 310.532 36.2493 304.103Z" fill="#6C63FF"/>
<path opacity="0.1" d="M36.2491 304.103C35.9942 304.471 35.793 304.873 35.6517 305.298C30.5269 311.299 27.7916 316.902 32.7239 317.04C37.3156 317.172 42.8206 325.353 44.1388 327.414C44.0966 327.581 44.0455 327.745 43.9857 327.906C43.9857 327.906 37.5278 317.212 32.2746 317.059C27.0214 316.907 30.4775 310.532 36.2491 304.103Z" fill="black"/>
<path d="M30.8183 308.963C30.8183 310.306 30.9714 311.393 31.1541 311.393C31.3367 311.393 31.4947 310.306 31.4947 308.963C31.4947 307.62 31.3071 308.254 31.1195 308.254C30.9319 308.254 30.8183 307.62 30.8183 308.963Z" fill="#FFD037"/>
<path d="M28.947 310.567C30.127 311.206 31.1589 311.595 31.2478 311.433C31.3366 311.27 30.4529 310.616 29.2729 309.956C28.0929 309.297 28.557 309.779 28.4681 309.956C28.3793 310.134 27.7621 309.922 28.947 310.567Z" fill="#FFD037"/>
<path d="M51.7224 304.103C51.7224 304.103 54.6502 307.915 50.3696 313.675C46.089 319.435 42.5638 324.295 43.9906 327.886C43.9906 327.886 50.4437 317.192 55.7019 317.04C60.9601 316.887 57.4793 310.532 51.7224 304.103Z" fill="#6C63FF"/>
<path opacity="0.1" d="M51.7225 304.103C51.9775 304.471 52.1786 304.873 52.3199 305.298C57.4448 311.299 60.18 316.902 55.2477 317.04C50.661 317.172 45.151 325.353 43.8328 327.414C43.8742 327.581 43.927 327.746 43.9908 327.906C43.9908 327.906 50.4438 317.212 55.7019 317.059C60.9601 316.907 57.4793 310.532 51.7225 304.103Z" fill="black"/>
<path d="M57.1633 308.963C57.1633 310.306 57.0152 311.393 56.8276 311.393C56.64 311.393 56.487 310.306 56.487 308.963C56.487 307.62 56.6795 308.254 56.8622 308.254C57.0449 308.254 57.1633 307.62 57.1633 308.963Z" fill="#FFD037"/>
<path d="M59.0297 310.567C57.8497 311.206 56.8178 311.595 56.7289 311.433C56.64 311.27 57.5238 310.616 58.7038 309.956C59.8838 309.297 59.4197 309.779 59.5086 309.956C59.5974 310.134 60.2146 309.922 59.0297 310.567Z" fill="#FFD037"/>
<path opacity="0.1" d="M43.9858 357.066C27.0799 357.066 13.3749 354.972 13.3749 352.388C13.3749 349.805 27.0799 347.71 43.9858 347.71C60.8917 347.71 74.5966 349.805 74.5966 352.388C74.5966 354.972 60.8917 357.066 43.9858 357.066Z" fill="#6C63FF"/>
<path d="M28.2311 322.746L28.3793 323.936L28.5866 325.619L28.6705 326.322L28.8779 328.004L28.9668 328.708L29.1692 330.385L31.5144 349.52C31.7217 351.227 34.5211 352.56 37.9031 352.56H50.0734C53.4554 352.56 56.2499 351.227 56.4622 349.52L58.8074 330.385L59.0147 328.708L59.0987 328.004L59.306 326.322L59.3949 325.619L59.5973 323.936L59.7455 322.746C59.859 321.762 58.3482 320.965 56.4326 320.965H31.539C29.6283 320.965 28.1126 321.777 28.2311 322.746Z" fill="#65617D"/>
<path d="M28.3793 323.936L28.5817 325.619H59.39L59.5974 323.936H28.3793Z" fill="#9D9CB5"/>
<path d="M28.6705 326.322L28.873 328.005H59.0987L59.3061 326.322H28.6705Z" fill="#9D9CB5"/>
<path d="M28.9619 328.708L29.1692 330.391H58.8075L59.0099 328.708H28.9619Z" fill="#9D9CB5"/>
<path d="M189.774 99.5476C189.774 99.5476 181.982 131.133 170.337 139.945C158.315 149.04 145.841 131.565 145.841 131.565L138.897 144.079C138.897 144.079 151.739 164.748 164.684 165.227C177.63 165.706 188.992 154.15 188.992 154.15L189.774 99.5476Z" fill="#5660F2"/>
<path d="M123.229 77.8551L124.991 77.0753L160.906 86.1789L171.694 158.707H170.347L123.229 77.8551Z" fill="#3F3D56"/>
<path opacity="0.2" d="M244.769 221.511C240.519 226.603 235.027 231.723 232.85 232.86C220.47 239.361 206.13 244.341 198.866 256.272C189.671 271.304 195.616 290.967 191.395 308.084C190.622 311.204 189.426 314.388 187.004 316.54C184.583 318.691 180.692 319.424 178.12 317.479C175.858 315.779 175.293 312.697 174.869 309.907C171.156 283.568 171.017 256.85 174.455 230.474C160.322 236.768 150.759 250.053 143.212 263.487C135.665 276.922 129.334 291.324 118.82 302.607C115.833 305.802 111.904 308.93 107.57 308.31C102.36 301.734 105.092 292.123 108.051 284.25C113.977 268.391 119.922 252.514 127.591 237.482C130.06 232.597 132.801 227.693 136.947 224.104C138.081 223.124 139.305 222.253 140.602 221.502L244.769 221.511Z" fill="#3F3D56"/>
<path d="M100.494 280.511L95.9907 288.308L106.449 292.846L110.773 285.424L100.494 280.511Z" fill="url(#paint0_linear)"/>
<path d="M170.808 301.452L170.318 310.142L181.719 309.484L182.199 301.452H170.808Z" fill="url(#paint1_linear)"/>
<path d="M98.0447 286.58C97.8174 286.105 97.497 285.68 97.1025 285.33C96.64 285.022 96.1101 284.829 95.5574 284.766L77.4583 281.14C76.8052 280.979 76.1334 280.907 75.4609 280.924C73.7273 281.037 72.3046 282.305 71.1646 283.611C70.5119 284.228 70.0926 285.051 69.9775 285.941C70.0435 286.499 70.2249 287.038 70.5103 287.523C70.7957 288.008 71.1789 288.429 71.6357 288.759C72.9074 289.935 74.2443 291.039 75.6399 292.066C78.3222 293.941 81.1128 295.657 83.997 297.205C85.9378 298.295 87.8787 299.385 89.8666 300.381C93.136 302.015 96.5278 303.387 99.9384 304.721C100.163 304.861 100.435 304.905 100.693 304.845C100.951 304.786 101.174 304.626 101.314 304.402C103.782 301.836 105.727 298.818 107.042 295.514C107.372 294.697 107.985 292.902 107.042 292.226C106.713 291.991 105.78 292.029 105.365 291.935C103.85 291.572 102.421 290.912 101.163 289.995C99.9045 289.077 98.8415 287.919 98.0353 286.589L98.0447 286.58Z" fill="#3F3D56"/>
<path d="M171.477 306.196C171.04 305.904 170.551 305.696 170.036 305.585C169.481 305.556 168.927 305.652 168.415 305.867L150.947 311.814C150.286 311.997 149.652 312.269 149.063 312.622C147.622 313.562 147.028 315.441 146.698 317.104C146.443 317.963 146.5 318.884 146.858 319.706C147.194 320.151 147.618 320.522 148.105 320.795C148.591 321.068 149.129 321.238 149.685 321.294C151.375 321.679 153.086 321.961 154.81 322.139C158.072 322.421 161.347 322.506 164.618 322.393C166.851 322.393 169.075 322.336 171.298 322.196C174.954 321.97 178.581 321.453 182.19 320.899C182.452 320.909 182.707 320.817 182.901 320.641C183.095 320.465 183.211 320.22 183.226 319.96C184.063 316.503 184.226 312.918 183.707 309.4C183.575 308.526 183.17 306.685 182.03 306.581C181.624 306.534 180.842 307.042 180.437 307.164C179.822 307.352 179.192 307.484 178.553 307.558C176.109 307.857 173.634 307.381 171.477 306.196Z" fill="#3F3D56"/>
<path d="M242.197 189.005C242.197 189.005 239.238 216.616 213.715 221.511C196.435 224.809 175.303 223.634 163.469 222.535C160.671 222.278 157.855 222.797 155.335 224.035C152.814 225.274 150.686 227.184 149.186 229.553L112.441 287.914L101.795 282.784H101.71L97.941 280.98L128.533 209.758C130.33 205.336 133.09 201.366 136.613 198.136C140.135 194.907 144.333 192.497 148.903 191.081L184.055 180.23L192.271 177.694C192.271 177.694 225.181 174.387 242.197 189.005Z" fill="#3F3D56"/>
<path opacity="0.24" d="M184.121 180.174L186.43 185.05C186.43 185.05 145.916 196.887 140.942 202.646C134.299 210.35 101.832 282.737 101.832 282.737H101.747L97.9788 280.933L128.533 209.758C130.331 205.336 133.09 201.366 136.613 198.137C140.135 194.907 144.333 192.497 148.903 191.081L184.121 180.174Z" fill="white"/>
<path d="M198.48 184.214C198.48 184.214 165.937 215.874 164.882 232.785C163.827 249.696 168.378 302.72 168.378 302.72H184.168C184.168 302.72 183.386 238.347 189.821 237.896C196.256 237.445 225.426 218.693 230.109 213.338C234.791 207.983 242.262 188.986 242.262 188.986L198.48 184.214Z" fill="#3F3D56"/>
<path d="M242.196 189.005C242.196 189.005 216.155 202.28 189.02 186.75C186.657 185.397 184.388 183.888 182.227 182.231C182.227 182.231 193.647 161.892 184.555 132.345C180.663 119.709 180.579 95.5831 199.846 92.1445H199.94C219.104 88.753 218.02 93.4692 218.02 93.4692L226.688 101.868C243.355 115.35 245.183 136.018 242.196 189.005Z" fill="#5660F2"/>
<path opacity="0.24" d="M199.94 92.1259C199.14 93.8655 197.895 95.3653 196.332 96.4757C196.332 96.4757 184.875 101.539 187.164 118.29C189.454 135.041 193.647 167.256 193.647 167.256L189.02 186.75C186.657 185.398 184.388 183.888 182.227 182.232C182.227 182.232 193.647 161.892 184.555 132.345C180.663 119.709 180.579 95.5832 199.846 92.1446L199.94 92.1259Z" fill="white"/>
<path d="M217.172 91.0547C216.162 92.2583 214.924 93.2517 213.529 93.9782C212.134 94.7047 210.609 95.15 209.041 95.2888C207.473 95.4275 205.893 95.2569 204.392 94.7867C202.89 94.3165 201.496 93.5559 200.289 92.5485L199.874 92.1915C199.874 92.1915 185.742 106.284 200.025 107.984C207.562 108.924 216.843 99.8294 219.528 94.6905L217.172 91.0547Z" fill="#3F3D56"/>
<path d="M221.412 77.8551C221.356 78.043 218.699 86.1507 216.701 91.9473C215.219 96.4656 212.075 100.256 207.902 102.554C205.453 104.029 202.728 104.988 199.893 105.373C199.41 105.416 198.923 105.365 198.46 105.221C197.996 105.077 197.566 104.844 197.193 104.534C196.821 104.224 196.513 103.845 196.287 103.416C196.062 102.988 195.923 102.519 195.879 102.037C195.806 101.267 195.981 100.494 196.379 99.8296C197.038 98.674 197.754 97.34 198.414 95.9214C199.789 92.9714 200.939 89.6926 200.75 87.0996V86.8178C200.581 85.4649 201.467 84.2718 202.955 83.2289C205.056 81.7727 208.363 80.6266 211.595 79.7623C214.829 78.9435 218.106 78.3068 221.412 77.8551Z" fill="url(#paint2_linear)"/>
<path d="M200.468 95.8085C199.82 95.9398 199.158 95.9872 198.499 95.9495C199.874 92.9995 201.024 89.7207 200.835 87.1277L203.021 83.257L204.651 80.3822L211.661 79.7904L218.746 79.1985C214.073 90.2186 206.224 94.7845 200.468 95.8085Z" fill="url(#paint3_linear)"/>
<path d="M213.63 40.7829C208.699 39.7543 203.56 40.7203 199.343 43.4685C195.125 46.2168 192.175 50.5224 191.14 55.4388C191.046 55.918 190.961 56.3783 190.895 56.895C189.447 64.4878 189.386 72.2792 190.716 79.8935C193.948 91.684 211.312 87.4094 214.836 83.83C218.36 80.2505 232.52 63.7532 230.203 57.3366C228.724 52.9774 223.542 43.0095 213.63 40.7829Z" fill="url(#paint4_linear)"/>
<path d="M199.639 29.2839L202.314 31.7359C200.476 31.1946 198.534 31.0972 196.65 31.4517C194.766 31.8062 192.994 32.6024 191.48 33.7746C187.891 35.8283 185.25 39.2 184.121 43.1694L190.066 42.1078C190.066 42.1078 187.899 48.4869 197.754 51.6718C207.609 54.8566 218.039 58.1354 218.039 58.1354L215.929 52.4985C215.929 52.4985 221.459 56.651 221.921 59.244C221.904 63.1766 221.589 67.1023 220.979 70.9875C220.979 70.9875 225.2 65.2567 225.84 66.9289C226.481 68.6012 222.807 73.8341 221.13 74.7642C219.453 75.6943 218.661 79.5556 218.454 79.8374C218.247 80.1193 225.991 76.6056 226.754 74.877C227.518 73.1483 238.767 56.698 235.677 51.7751L238.211 52.2542C237.005 50.8715 235.505 49.774 233.821 49.0412C233.821 49.0412 223.297 23.2806 199.639 29.2839Z" fill="#3F3D56"/>
<path d="M195.908 168.008C194.485 166.589 193.081 164.898 191.093 164.56C190.396 166.213 191.819 167.914 192.422 169.596C192.515 169.782 192.563 169.988 192.563 170.197C192.563 170.405 192.515 170.611 192.422 170.798C192.139 171.249 191.48 171.277 190.961 171.24C188.448 171.061 185.981 170.471 183.66 169.492C181.511 168.553 179.448 167.341 177.121 167.106C176.872 167.057 176.614 167.09 176.386 167.2C175.821 167.557 176.15 168.421 176.556 168.947C177.42 170.083 178.402 171.126 179.486 172.057C177.844 171.332 176.093 170.884 174.304 170.732C173.804 170.732 173.126 170.836 173.135 171.334C173.168 171.538 173.267 171.727 173.418 171.869C174.742 173.381 176.341 174.63 178.129 175.552C176.829 175.278 175.5 175.168 174.172 175.223C173.597 175.223 172.834 175.524 172.919 176.087C172.955 176.273 173.047 176.443 173.183 176.576C174.776 178.495 176.93 179.871 179.344 180.512L175.576 180.597C175.338 180.587 175.102 180.636 174.888 180.738C174.21 181.17 174.803 182.232 175.463 182.692C178.365 184.712 182.058 185.069 185.61 185.322C192.403 185.811 199.554 186.074 205.678 183.087C206.121 182.861 206.62 182.56 206.705 182.072C206.724 181.816 206.686 181.559 206.592 181.32C205.848 178.849 205.471 174.368 203.219 172.865C202.126 172.142 200.779 171.728 199.658 170.986C198.536 170.244 197.189 168.647 195.908 168.008Z" fill="url(#paint5_linear)"/>
<path d="M247.727 162.765C245.598 183.631 207.675 186.187 207.675 186.187L203.765 172.78L203.078 170.422C203.078 170.422 223.391 167.867 227.273 161.525C231.154 155.184 215.175 133.923 224.832 122.067C234.49 110.211 236.685 113.856 236.685 113.856C236.685 113.856 249.837 141.899 247.727 162.765Z" fill="#5660F2"/>
<path d="M145.86 131.575C145.849 132.229 145.795 132.881 145.7 133.529C145.379 136.45 144.465 141.796 142.035 143.741C138.615 146.475 138.143 142.491 138.219 140.922C138.293 140.061 138.435 139.207 138.643 138.367C139.434 134.966 143.627 132.636 145.238 131.866L145.86 131.575Z" fill="url(#paint6_linear)"/>
<path d="M145.7 133.529C145.379 136.451 144.465 141.796 142.035 143.741C140.979 142.98 139.623 141.965 138.219 140.923C136.334 139.513 134.328 138.029 132.905 136.996C131.639 136.149 130.486 135.145 129.475 134.008C128.589 132.853 127.855 131.591 127.29 130.25L124.369 123.918C123.427 121.842 122.485 119.098 124.162 117.492C124.586 117.079 128.449 116.327 128.703 115.782C129.41 114.223 124.934 110.925 125.217 109.206C125.357 108.737 125.657 108.333 126.065 108.062C126.472 107.791 126.962 107.67 127.45 107.721C128.392 107.768 131.068 110.22 131.906 110.718C133.564 111.658 132.17 112.992 133.791 113.969C135.893 115.046 137.803 116.462 139.444 118.159C141.271 120.292 142.195 123.025 143.071 125.675C143.712 127.62 144.569 129.724 145.229 131.819C145.408 132.42 145.568 132.975 145.7 133.529Z" fill="url(#paint7_linear)"/>
<path d="M131.84 118.553L125.556 88.8376L123.229 77.8551L159.747 87.6163L170.347 158.707L136.41 148.391L131.84 118.553Z" fill="#5660F2"/>
<path d="M139.444 118.196L124.991 86.1788L136.41 148.391L170.347 158.707L166.71 134.327L139.444 118.196Z" fill="url(#paint8_linear)"/>
<path d="M133.922 131.368C135.072 130.795 137.427 129.752 138.021 128.615C138.162 128.343 138.37 127.986 138.19 127.741C137.371 126.614 133.998 128.051 133.037 127.741C133.696 126.661 139.575 123.382 136.806 122.64C136.212 122.48 132.528 124.341 131.934 124.171C132.396 123.796 136.184 121.109 136.834 120.414C137.021 120.206 137.133 119.942 137.15 119.663C137.167 119.385 137.089 119.109 136.928 118.88C136.767 118.652 136.533 118.485 136.264 118.407C135.995 118.329 135.708 118.344 135.449 118.45C133.443 119.369 131.385 120.172 129.287 120.855C129.692 120.188 135.166 117.097 135.383 116.308C135.505 116.01 135.525 115.679 135.439 115.368C135.364 115.201 135.253 115.052 135.115 114.93C134.977 114.809 134.814 114.718 134.639 114.664C133.112 114.072 131.397 114.664 129.871 115.275L126.253 116.703C125.094 117.154 123.813 117.736 123.427 118.901C123.258 119.491 123.229 120.111 123.342 120.714C123.783 124.518 125.144 128.158 127.308 131.321C128.383 132.88 131.774 136.648 133.725 137.014C135.458 137.343 132.302 132.26 133.922 131.368Z" fill="url(#paint9_linear)"/>
<path opacity="0.24" d="M171.704 227.674C171.704 227.674 184.159 199.217 198.555 191.119L193.647 189.137C193.647 189.137 168.368 215.94 165.382 229.732C162.395 243.523 168.387 302.701 168.387 302.701H172.533C172.533 302.701 165.683 233.48 171.704 227.674Z" fill="white"/>
<path opacity="0.24" d="M228.328 166.082C220.31 169.37 206.658 172.235 203.718 172.837L203.153 172.949L203.031 170.479C203.031 170.479 223.344 167.923 227.226 161.582C231.107 155.24 215.128 133.98 224.785 122.123C224.785 122.123 223.56 132.608 226.736 140.359C229.911 148.109 237.335 162.324 228.328 166.082Z" fill="white"/>
</g>
<defs>
<linearGradient id="paint0_linear" x1="112.403" y1="287.416" x2="90.6589" y2="285.611" gradientUnits="userSpaceOnUse">
<stop stop-color="#ECC4D7"/>
<stop offset="0.42" stop-color="#EFD4D1"/>
<stop offset="1" stop-color="#F2EAC9"/>
</linearGradient>
<linearGradient id="paint1_linear" x1="9037.34" y1="-7906.99" x2="8784.2" y2="-7812.46" gradientUnits="userSpaceOnUse">
<stop stop-color="#ECC4D7"/>
<stop offset="0.42" stop-color="#EFD4D1"/>
<stop offset="1" stop-color="#F2EAC9"/>
</linearGradient>
<linearGradient id="paint2_linear" x1="10804.3" y1="-12544.8" x2="10387.1" y2="-12549.3" gradientUnits="userSpaceOnUse">
<stop stop-color="#ECC4D7"/>
<stop offset="0.42" stop-color="#EFD4D1"/>
<stop offset="1" stop-color="#F2EAC9"/>
</linearGradient>
<linearGradient id="paint3_linear" x1="8405.9" y1="-7587.8" x2="7563.52" y2="-7159.37" gradientUnits="userSpaceOnUse">
<stop stop-color="#ECC4D7"/>
<stop offset="0.42" stop-color="#EFD4D1"/>
<stop offset="1" stop-color="#F2EAC9"/>
</linearGradient>
<linearGradient id="paint4_linear" x1="17496.9" y1="-23326.4" x2="15990.3" y2="-23167.7" gradientUnits="userSpaceOnUse">
<stop stop-color="#ECC4D7"/>
<stop offset="0.42" stop-color="#EFD4D1"/>
<stop offset="1" stop-color="#F2EAC9"/>
</linearGradient>
<linearGradient id="paint5_linear" x1="12591.5" y1="8170.01" x2="13803.8" y2="8170.01" gradientUnits="userSpaceOnUse">
<stop stop-color="#ECC4D7"/>
<stop offset="0.42" stop-color="#EFD4D1"/>
<stop offset="1" stop-color="#F2EAC9"/>
</linearGradient>
<linearGradient id="paint6_linear" x1="138.209" y1="138.123" x2="145.86" y2="138.123" gradientUnits="userSpaceOnUse">
<stop stop-color="#183866"/>
<stop offset="1" stop-color="#1A7FC1"/>
</linearGradient>
<linearGradient id="paint7_linear" x1="7192.57" y1="12021.7" x2="7728.04" y2="12021.7" gradientUnits="userSpaceOnUse">
<stop stop-color="#ECC4D7"/>
<stop offset="0.42" stop-color="#EFD4D1"/>
<stop offset="1" stop-color="#F2EAC9"/>
</linearGradient>
<linearGradient id="paint8_linear" x1="14960.5" y1="22565.3" x2="19518.7" y2="29458.3" gradientUnits="userSpaceOnUse">
<stop stop-color="white" stop-opacity="0"/>
<stop offset="0.99" stop-color="white"/>
</linearGradient>
<linearGradient id="paint9_linear" x1="4839.35" y1="7531.12" x2="5078.52" y2="7531.12" gradientUnits="userSpaceOnUse">
<stop stop-color="#ECC4D7"/>
<stop offset="0.42" stop-color="#EFD4D1"/>
<stop offset="1" stop-color="#F2EAC9"/>
</linearGradient>
<clipPath id="clip0">
<rect width="505" height="400" fill="white" transform="matrix(-1 0 0 1 505 0)"/>
</clipPath>
</defs>
</svg>
