<svg width="31" height="32" viewBox="0 0 31 32" fill="none" xmlns="http://www.w3.org/2000/svg">
<path fill-rule="evenodd" clip-rule="evenodd" d="M22.811 6.02824C24.8237 6.02963 26.7472 6.88956 28.13 8.40617C29.5153 9.92318 30.2278 11.9706 30.096 14.0554C29.7838 18.11 26.4872 21.2151 22.5655 21.1482H19.203C18.7888 21.1482 18.453 20.8 18.453 20.3705C18.453 19.9409 18.7888 19.5927 19.203 19.5927H22.5655C25.6938 19.6601 28.3346 17.1959 28.599 13.9626C28.6987 12.3085 28.1345 10.6852 27.0402 9.47739C25.9458 8.26956 24.4187 7.58461 22.8205 7.58483C21.9241 7.58419 21.1165 7.02307 20.775 6.16357C19.6522 3.37154 17.0201 1.55404 14.103 1.55654C11.9766 1.56803 9.94377 2.46479 8.46101 4.04542C7.29608 5.26949 6.67663 6.9422 6.75201 8.66024C6.78549 9.65539 6.19606 10.5593 5.29301 10.8976C3.49583 11.5995 2.36238 13.4488 2.51251 15.4342C2.75028 17.8344 4.72484 19.6434 7.05101 19.5922H10.746C11.1602 19.5922 11.496 19.9404 11.496 20.3699C11.496 20.7995 11.1602 21.1477 10.746 21.1477H7.05101C3.93993 21.1963 1.31417 18.7596 1.01651 15.5477C0.814854 12.8758 2.34102 10.3875 4.76001 9.44424C5.05501 9.3431 5.25418 9.05712 5.25401 8.73491C5.15152 6.5913 5.92097 4.50144 7.37501 2.97417C9.14223 1.0872 11.5665 0.0158654 14.103 0.000980237C17.6244 -0.00230029 20.8021 2.19133 22.158 5.56157C22.2651 5.83935 22.5226 6.02331 22.811 6.02824ZM15.725 28.2758L19.689 24.1738V24.1718C19.9836 23.8773 20.4513 23.8819 20.7404 24.1822C21.0294 24.4826 21.033 24.9677 20.7485 25.2726L15.502 30.7051C15.4317 30.7775 15.3483 30.8348 15.2565 30.8736L15.246 30.8772C15.1588 30.9131 15.0658 30.9317 14.972 30.9322C14.8787 30.9317 14.7862 30.9131 14.6995 30.8772L14.687 30.8731C14.5954 30.8341 14.5121 30.7766 14.442 30.7041L9.20751 25.2638C8.91494 24.9596 8.9155 24.4671 9.20876 24.1637C9.50202 23.8603 9.97694 23.8609 10.2695 24.165L14.225 28.2758L14.2385 15.2092C14.2385 14.7796 14.5743 14.4314 14.9885 14.4314C15.4027 14.4314 15.7385 14.7796 15.7385 15.2092L15.725 28.2758Z" fill="#2E2842"/>
<mask id="mask0" mask-type="alpha" maskUnits="userSpaceOnUse" x="0" y="0" width="31" height="31">
<path fill-rule="evenodd" clip-rule="evenodd" d="M22.811 6.02824C24.8237 6.02963 26.7472 6.88956 28.13 8.40617C29.5153 9.92318 30.2278 11.9706 30.096 14.0554C29.7838 18.11 26.4872 21.2151 22.5655 21.1482H19.203C18.7888 21.1482 18.453 20.8 18.453 20.3705C18.453 19.9409 18.7888 19.5927 19.203 19.5927H22.5655C25.6938 19.6601 28.3346 17.1959 28.599 13.9626C28.6987 12.3085 28.1345 10.6852 27.0402 9.47739C25.9458 8.26956 24.4187 7.58461 22.8205 7.58483C21.9241 7.58419 21.1165 7.02307 20.775 6.16357C19.6522 3.37154 17.0201 1.55404 14.103 1.55654C11.9766 1.56803 9.94377 2.46479 8.46101 4.04542C7.29608 5.26949 6.67663 6.9422 6.75201 8.66024C6.78549 9.65539 6.19606 10.5593 5.29301 10.8976C3.49583 11.5995 2.36238 13.4488 2.51251 15.4342C2.75028 17.8344 4.72484 19.6434 7.05101 19.5922H10.746C11.1602 19.5922 11.496 19.9404 11.496 20.3699C11.496 20.7995 11.1602 21.1477 10.746 21.1477H7.05101C3.93993 21.1963 1.31417 18.7596 1.01651 15.5477C0.814854 12.8758 2.34102 10.3875 4.76001 9.44424C5.05501 9.3431 5.25418 9.05712 5.25401 8.73491C5.15152 6.5913 5.92097 4.50144 7.37501 2.97417C9.14223 1.0872 11.5665 0.0158654 14.103 0.000980237C17.6244 -0.00230029 20.8021 2.19133 22.158 5.56157C22.2651 5.83935 22.5226 6.02331 22.811 6.02824ZM15.725 28.2758L19.689 24.1738V24.1718C19.9836 23.8773 20.4513 23.8819 20.7404 24.1822C21.0294 24.4826 21.033 24.9677 20.7485 25.2726L15.502 30.7051C15.4317 30.7775 15.3483 30.8348 15.2565 30.8736L15.246 30.8772C15.1588 30.9131 15.0658 30.9317 14.972 30.9322C14.8787 30.9317 14.7862 30.9131 14.6995 30.8772L14.687 30.8731C14.5954 30.8341 14.5121 30.7766 14.442 30.7041L9.20751 25.2638C8.91494 24.9596 8.9155 24.4671 9.20876 24.1637C9.50202 23.8603 9.97694 23.8609 10.2695 24.165L14.225 28.2758L14.2385 15.2092C14.2385 14.7796 14.5743 14.4314 14.9885 14.4314C15.4027 14.4314 15.7385 14.7796 15.7385 15.2092L15.725 28.2758Z" fill="white"/>
</mask>
<g mask="url(#mask0)">
<rect x="1" width="30" height="31.1111" fill="white"/>
</g>
</svg>
