<svg width="20" height="20" viewBox="0 0 20 20" fill="none" xmlns="http://www.w3.org/2000/svg">
<g clip-path="url(#clip0)">
<path d="M19.9588 4.12129C19.9608 4.03568 19.9355 3.96661 19.8931 3.91368C19.8678 3.86554 19.8306 3.82056 19.777 3.78267C16.9393 1.77796 12.8867 0.717839 10.0588 3.20056C7.23071 0.717839 3.17819 1.77796 0.340484 3.78267C0.286903 3.82056 0.250019 3.86554 0.224474 3.91368C0.18219 3.96661 0.156687 4.03548 0.158556 4.12129C0.230912 7.46686 0.123125 10.8121 0.117767 14.1579C0.117767 14.2164 0.130519 14.2667 0.152367 14.3099C0.0927626 14.551 0.277225 14.8381 0.58264 14.7246C3.57844 13.6125 6.96675 13.3664 9.6985 15.159C9.76093 15.2999 9.90024 15.4017 10.0591 15.3667C10.2178 15.4015 10.3571 15.2997 10.4192 15.159C13.1511 13.3664 16.5393 13.6125 19.5352 14.7246C19.8406 14.838 20.0249 14.551 19.9654 14.3099C19.987 14.2667 20 14.2164 20 14.1579C19.9943 10.8121 19.8865 7.46686 19.9588 4.12129ZM10.0588 14.5516C7.32508 12.7576 3.89743 12.8668 0.853414 13.8903C0.863549 10.6785 0.95983 7.46717 0.894868 4.25535C3.49138 2.47609 7.21875 1.42451 9.7709 3.90364C9.86003 3.99019 9.96263 4.01634 10.0588 4.00415C10.1549 4.01649 10.2575 3.99019 10.3467 3.90364C12.8985 1.42451 16.6261 2.47589 19.2225 4.25535C19.1576 7.46717 19.2541 10.6785 19.2641 13.8905C16.2201 12.8668 12.7922 12.7576 10.0588 14.5516Z" fill="#4A4E57"/>
<path d="M19.7009 15.251C16.5966 14.0608 12.2532 13.6122 9.97237 16.1877C7.69158 13.6124 3.34802 14.0608 0.243685 15.251C-0.30451 15.4609 0.168795 16.1696 0.711922 15.9615C3.52126 14.8844 7.71322 14.4047 9.56054 17.0993C9.66339 17.2493 9.82018 17.3028 9.97237 17.2927C10.1249 17.3028 10.2815 17.2493 10.3842 17.0993C12.2314 14.4045 16.4234 14.8844 19.2327 15.9615C19.7758 16.1698 20.2489 15.4609 19.7009 15.251Z" fill="#4A4E57"/>
<path d="M2.12131 7.24641C2.19225 7.40109 2.37464 7.50603 2.56591 7.38732C3.05886 7.08189 3.58434 6.85929 4.16248 6.74984C4.35168 6.71407 4.41514 6.56803 4.38997 6.42874C4.39599 6.40433 4.40031 6.37822 4.40031 6.34962V4.60118C4.40031 4.39591 4.22798 4.29733 4.06105 4.30398C4.03247 4.29694 4.00252 4.29223 3.96834 4.29263C3.30413 4.30346 2.66875 4.46969 2.13103 4.84905C2.02557 4.92327 1.98656 5.02802 1.99259 5.12877C1.98204 5.15619 1.97361 5.18534 1.97053 5.21829C1.91894 5.80024 1.91653 6.38317 1.91653 6.9667C1.91653 7.11587 2.00742 7.20895 2.12131 7.24641ZM2.61413 5.28056C2.96362 5.06971 3.3416 4.95562 3.75235 4.92129V6.2067C3.33661 6.30844 2.93957 6.46774 2.56529 6.66759C2.56732 6.20476 2.57596 5.74236 2.61413 5.28056Z" fill="#4A4E57"/>
<path d="M5.67435 5.00185C6.4711 4.74181 7.24022 4.81253 7.9625 5.22802C8.32116 5.43441 8.64651 4.90046 8.28943 4.69507C7.42896 4.2001 6.45399 4.09598 5.50202 4.4068C5.10921 4.53495 5.27785 5.13138 5.67435 5.00185Z" fill="#4A4E57"/>
<path d="M5.62034 6.339C6.42016 6.17872 7.16831 6.29186 7.85453 6.71951C8.2053 6.93804 8.52949 6.40338 8.18146 6.18655C7.34949 5.66816 6.41214 5.55051 5.44805 5.74391C5.03917 5.82587 5.21283 6.42092 5.62034 6.339Z" fill="#4A4E57"/>
<path d="M8.50541 8.14037C6.34146 6.98201 3.7999 7.43075 1.807 8.70625C1.46204 8.92704 1.78602 9.46205 2.13393 9.23921C3.93244 8.08829 6.20954 7.61929 8.17844 8.67333C8.54329 8.86867 8.8696 8.3352 8.50541 8.14037Z" fill="#4A4E57"/>
<path d="M8.50541 9.58028C6.34146 8.42196 3.79991 8.8707 1.807 10.1462C1.46208 10.367 1.78607 10.902 2.13397 10.6791C3.93249 9.5282 6.20958 9.05916 8.17848 10.1132C8.54329 10.3086 8.8696 9.77519 8.50541 9.58028Z" fill="#4A4E57"/>
<path d="M8.50541 11.0203C6.34146 9.86189 3.7999 10.3106 1.807 11.5862C1.46204 11.807 1.78602 12.342 2.13393 12.1191C3.93244 10.9682 6.20954 10.4992 8.17844 11.5532C8.54329 11.7485 8.8696 11.2152 8.50541 11.0203Z" fill="#4A4E57"/>
<path d="M11.3432 8.91672C13.2135 7.71028 15.5232 7.99684 17.4163 9.00133C17.7822 9.19556 18.0583 8.63688 17.6955 8.44427C15.5981 7.33115 13.0262 7.08551 10.9708 8.4115C10.6246 8.63463 10.9967 9.1402 11.3432 8.91672Z" fill="#4A4E57"/>
<path d="M11.4689 10.3517C13.3391 9.14513 15.6489 9.43181 17.5419 10.4363C17.9079 10.6307 18.184 10.0718 17.821 9.87928C15.7234 8.76616 13.1516 8.52048 11.0963 9.84652C10.7505 10.0696 11.1224 10.5752 11.4689 10.3517Z" fill="#4A4E57"/>
<path d="M11.3432 6.03691C13.2135 4.83047 15.5232 5.11703 17.4163 6.12152C17.7822 6.31576 18.0583 5.75712 17.6955 5.56447C15.5981 4.45134 13.0262 4.20566 10.9708 5.5317C10.6246 5.75478 10.9967 6.26039 11.3432 6.03691Z" fill="#4A4E57"/>
<path d="M11.0964 6.96668C10.7505 7.18996 11.1224 7.69538 11.4689 7.4719C13.3391 6.26534 15.6489 6.55202 17.5419 7.55643C17.9079 7.75074 18.184 7.19198 17.821 6.99945C15.7238 5.88649 13.1518 5.64084 11.0964 6.96668Z" fill="#4A4E57"/>
<path d="M17.9471 11.314C15.8498 10.2011 13.2776 9.95533 11.2224 11.2814C10.8765 11.5048 11.2485 12.0101 11.5949 11.7865C13.4651 10.5801 15.7751 10.8667 17.6679 11.8711C18.0338 12.0656 18.3099 11.5067 17.9471 11.314Z" fill="#4A4E57"/>
</g>
<defs>
<clipPath id="clip0">
<rect width="20" height="19.0477" fill="white"/>
</clipPath>
</defs>
</svg>
