<svg width="30" height="30" viewBox="0 0 30 30" fill="none" xmlns="http://www.w3.org/2000/svg">
<path fill-rule="evenodd" clip-rule="evenodd" d="M22.228 11.7096C21.231 11.7102 20.2644 11.3662 19.492 10.736C19.2472 10.5365 19.0247 10.3111 18.8285 10.0638L16.2825 11.4497C15.9187 11.6477 15.4631 11.5135 15.265 11.1498C15.0669 10.7861 15.2012 10.3308 15.565 10.1327L18.111 8.74682C18.0073 8.4417 17.9376 8.1261 17.903 7.80571C17.6537 5.41378 19.3914 3.27267 21.7843 3.02328C24.1772 2.77389 26.3194 4.51064 26.569 6.90254C26.8187 9.29444 25.0814 11.4358 22.6885 11.6856C22.5355 11.7015 22.3818 11.7095 22.228 11.7096ZM24.038 5.13599C23.4495 4.65896 22.6955 4.43524 21.942 4.5141L21.9425 4.5181C20.9947 4.61818 20.159 5.18374 19.7141 6.02629C19.2691 6.86884 19.2734 7.8776 19.7255 8.71633L19.73 8.72333C20.3822 9.91842 21.7876 10.4872 23.0879 10.0823C24.3882 9.67744 25.2217 8.41142 25.0795 7.05753C25.0011 6.30427 24.6264 5.61303 24.038 5.13599ZM17.373 22.447C17.373 20.0418 19.3237 18.0919 21.73 18.0919C24.1353 18.0944 26.0845 20.0428 26.087 22.447C26.087 24.8523 24.1363 26.8022 21.73 26.8022C19.3237 26.8022 17.373 24.8523 17.373 22.447ZM19.0904 23.5393C19.5326 24.6065 20.5744 25.3023 21.73 25.3023C23.3071 25.301 24.5854 24.0235 24.587 22.447C24.5872 21.2919 23.8913 20.2505 22.8237 19.8083C21.7561 19.3661 20.5272 19.6103 19.71 20.427C18.8928 21.2437 18.6483 22.4721 19.0904 23.5393ZM15.83 18.6017L12.88 16.732C13.0409 16.3411 13.1445 15.929 13.1875 15.5085C13.4319 13.1159 11.6896 10.9783 9.29603 10.734C6.90245 10.4898 4.76396 12.2313 4.51957 14.6239C4.27518 17.0164 6.01744 19.154 8.41101 19.3983C8.5605 19.4139 8.71071 19.4216 8.86101 19.4213C9.8616 19.4221 10.8315 19.0761 11.6055 18.4422C11.7716 18.3038 11.9274 18.1535 12.0715 17.9924L15.0215 19.8651C15.2478 20.0087 15.5334 20.0207 15.7709 19.8966C16.0084 19.7726 16.1617 19.5313 16.1729 19.2637C16.1842 18.996 16.0518 18.7427 15.8255 18.5992L15.83 18.6017ZM8.56551 17.907C7.41597 17.7897 6.45031 16.9918 6.11893 15.8852C5.78756 14.7787 6.15574 13.5817 7.05175 12.8523C7.94777 12.123 9.19511 12.0051 10.212 12.5536C11.2289 13.1022 11.815 14.209 11.697 15.358C11.5341 16.9242 10.1349 18.0638 8.56751 17.907H8.56551Z" fill="#2E2842"/>
<mask id="mask0" mask-type="alpha" maskUnits="userSpaceOnUse" x="4" y="2" width="23" height="25">
<path fill-rule="evenodd" clip-rule="evenodd" d="M22.228 11.7096C21.231 11.7102 20.2644 11.3662 19.492 10.736C19.2472 10.5365 19.0247 10.3111 18.8285 10.0638L16.2825 11.4497C15.9187 11.6477 15.4631 11.5135 15.265 11.1498C15.0669 10.7861 15.2012 10.3308 15.565 10.1327L18.111 8.74682C18.0073 8.4417 17.9376 8.1261 17.903 7.80571C17.6537 5.41378 19.3914 3.27267 21.7843 3.02328C24.1772 2.77389 26.3194 4.51064 26.569 6.90254C26.8187 9.29444 25.0814 11.4358 22.6885 11.6856C22.5355 11.7015 22.3818 11.7095 22.228 11.7096ZM24.038 5.13599C23.4495 4.65896 22.6955 4.43524 21.942 4.5141L21.9425 4.5181C20.9947 4.61818 20.159 5.18374 19.7141 6.02629C19.2691 6.86884 19.2734 7.8776 19.7255 8.71633L19.73 8.72333C20.3822 9.91842 21.7876 10.4872 23.0879 10.0823C24.3882 9.67744 25.2217 8.41142 25.0795 7.05753C25.0011 6.30427 24.6264 5.61303 24.038 5.13599ZM17.373 22.447C17.373 20.0418 19.3237 18.0919 21.73 18.0919C24.1353 18.0944 26.0845 20.0428 26.087 22.447C26.087 24.8523 24.1363 26.8022 21.73 26.8022C19.3237 26.8022 17.373 24.8523 17.373 22.447ZM19.0904 23.5393C19.5326 24.6065 20.5744 25.3023 21.73 25.3023C23.3071 25.301 24.5854 24.0235 24.587 22.447C24.5872 21.2919 23.8913 20.2505 22.8237 19.8083C21.7561 19.3661 20.5272 19.6103 19.71 20.427C18.8928 21.2437 18.6483 22.4721 19.0904 23.5393ZM15.83 18.6017L12.88 16.732C13.0409 16.3411 13.1445 15.929 13.1875 15.5085C13.4319 13.1159 11.6896 10.9783 9.29603 10.734C6.90245 10.4898 4.76396 12.2313 4.51957 14.6239C4.27518 17.0164 6.01744 19.154 8.41101 19.3983C8.5605 19.4139 8.71071 19.4216 8.86101 19.4213C9.8616 19.4221 10.8315 19.0761 11.6055 18.4422C11.7716 18.3038 11.9274 18.1535 12.0715 17.9924L15.0215 19.8651C15.2478 20.0087 15.5334 20.0207 15.7709 19.8966C16.0084 19.7726 16.1617 19.5313 16.1729 19.2637C16.1842 18.996 16.0518 18.7427 15.8255 18.5992L15.83 18.6017ZM8.56551 17.907C7.41597 17.7897 6.45031 16.9918 6.11893 15.8852C5.78756 14.7787 6.15574 13.5817 7.05175 12.8523C7.94777 12.123 9.19511 12.0051 10.212 12.5536C11.2289 13.1022 11.815 14.209 11.697 15.358C11.5341 16.9242 10.1349 18.0638 8.56751 17.907H8.56551Z" fill="white"/>
</mask>
<g mask="url(#mask0)">
<rect x="3.20001" y="2.99872" width="24" height="23.9899" fill="#5660F2"/>
</g>
</svg>
