<svg width="20" height="20" viewBox="0 0 20 20" fill="none" xmlns="http://www.w3.org/2000/svg">
<path d="M4.0625 0.892969L4.375 0.892969V0.595349C4.375 0.516416 4.40792 0.440715 4.46653 0.3849C4.52513 0.329086 4.60462 0.297729 4.6875 0.297729L6.5625 0.297729C6.64538 0.297729 6.72487 0.329086 6.78347 0.3849C6.84208 0.440715 6.875 0.516416 6.875 0.595349V0.892969L15.9375 0.892969C16.2689 0.893383 16.5866 1.01894 16.8209 1.24211C17.0552 1.46528 17.1871 1.76784 17.1875 2.08345L17.1875 17.5597C17.1871 17.8753 17.0552 18.1779 16.8209 18.401C16.5866 18.6242 16.2689 18.7498 15.9375 18.7502L4.0625 18.7502C3.73111 18.7498 3.41342 18.6242 3.1791 18.401C2.94477 18.1779 2.81293 17.8753 2.8125 17.5597L2.8125 2.08345C2.81293 1.76784 2.94477 1.46528 3.1791 1.24211C3.41342 1.01894 3.73111 0.893383 4.0625 0.892969ZM6.25 0.892969L5 0.892969L5 3.61061L5.45156 3.32378C5.50296 3.29127 5.5633 3.27393 5.625 3.27393C5.6867 3.27393 5.74704 3.29127 5.79844 3.32378L6.25 3.61061L6.25 0.892969ZM15.3125 18.1549H15.9375C16.1032 18.1547 16.262 18.0919 16.3792 17.9804C16.4964 17.8688 16.5623 17.7175 16.5625 17.5597L16.5625 2.08345C16.5623 1.92565 16.4964 1.77436 16.3792 1.66278C16.262 1.5512 16.1032 1.48842 15.9375 1.48821L15.3125 1.48821L15.3125 18.1549ZM3.4375 17.5597C3.43772 17.7175 3.50363 17.8688 3.6208 17.9804C3.73796 18.0919 3.89681 18.1547 4.0625 18.1549L14.6875 18.1549L14.6875 1.48821L6.875 1.48821L6.875 4.16679C6.87492 4.22064 6.85951 4.27346 6.83043 4.31964C6.80134 4.36581 6.75966 4.40362 6.70981 4.42904C6.65996 4.45445 6.60381 4.46653 6.54734 4.46398C6.49086 4.46143 6.43616 4.44435 6.38906 4.41456L5.625 3.92944L4.86094 4.41456C4.80954 4.44707 4.7492 4.46441 4.6875 4.46441C4.60467 4.46426 4.52527 4.43286 4.4667 4.37708C4.40813 4.32129 4.37515 4.24568 4.375 4.16679L4.375 1.48821H4.0625C3.89681 1.48842 3.73796 1.5512 3.6208 1.66278C3.50363 1.77436 3.43772 1.92565 3.4375 2.08345L3.4375 17.5597Z" fill="#4A4E57"/>
<path d="M9.625 11.7858C9.59589 11.8227 9.55815 11.8527 9.51475 11.8734C9.47136 11.894 9.42351 11.9048 9.375 11.9048C9.32649 11.9048 9.27864 11.894 9.23525 11.8734C9.19185 11.8527 9.15411 11.8227 9.125 11.7858L7.25 9.4048C7.21518 9.36058 7.19397 9.308 7.18876 9.25295C7.18355 9.1979 7.19454 9.14256 7.22049 9.09312C7.24645 9.04369 7.28634 9.00211 7.33571 8.97305C7.38508 8.94399 7.44197 8.9286 7.5 8.9286H8.125V7.4405C8.125 7.36157 8.15792 7.28587 8.21653 7.23005C8.27513 7.17424 8.35462 7.14288 8.4375 7.14288H10.3125C10.3954 7.14288 10.4749 7.17424 10.5335 7.23005C10.5921 7.28587 10.625 7.36157 10.625 7.4405V8.9286H11.25C11.308 8.9286 11.3649 8.94399 11.4143 8.97305C11.4637 9.00211 11.5036 9.04369 11.5295 9.09312C11.5555 9.14256 11.5664 9.1979 11.5612 9.25295C11.556 9.308 11.5348 9.36058 11.5 9.4048L9.625 11.7858ZM10.3125 9.52384C10.2296 9.52384 10.1501 9.49249 10.0915 9.43667C10.0329 9.38086 10 9.30516 10 9.22622V7.73812H8.75V9.22622C8.75 9.30516 8.71708 9.38086 8.65847 9.43667C8.59987 9.49249 8.52038 9.52384 8.4375 9.52384H8.125L9.375 11.1112L10.625 9.52384H10.3125Z" fill="#4A4E57"/>
<path d="M6.875 11.3096C6.95788 11.3096 7.03737 11.3409 7.09597 11.3968C7.15458 11.4526 7.1875 11.5283 7.1875 11.6073V12.2028L11.5625 12.2028V11.6073C11.5625 11.5283 11.5954 11.4526 11.654 11.3968C11.7126 11.3409 11.7921 11.3096 11.875 11.3096C11.9579 11.3096 12.0374 11.3409 12.096 11.3968C12.1546 11.4526 12.1875 11.5283 12.1875 11.6073V12.5005C12.1875 12.5795 12.1546 12.6552 12.096 12.7111C12.0374 12.7669 11.9579 12.7983 11.875 12.7983L6.875 12.7983C6.79212 12.7983 6.71263 12.7669 6.65403 12.7111C6.59542 12.6552 6.5625 12.5795 6.5625 12.5005L6.5625 11.6073C6.5625 11.5283 6.59542 11.4526 6.65403 11.3968C6.71263 11.3409 6.79212 11.3096 6.875 11.3096Z" fill="#4A4E57"/>
<path d="M6.5625 5.95239L12.1875 5.95239C12.5189 5.95275 12.8366 6.07829 13.071 6.30147C13.3053 6.52465 13.4371 6.82725 13.4375 7.14287L13.4375 12.5C13.4371 12.8157 13.3053 13.1183 13.071 13.3414C12.8366 13.5646 12.5189 13.6902 12.1875 13.6905L6.5625 13.6905C6.23109 13.6902 5.91337 13.5646 5.67903 13.3414C5.44469 13.1183 5.31287 12.8157 5.3125 12.5L5.3125 7.14287C5.31287 6.82725 5.44469 6.52465 5.67903 6.30147C5.91337 6.07829 6.23109 5.95275 6.5625 5.95239ZM5.9375 12.5C5.9377 12.6578 6.00361 12.8091 6.12077 12.9207C6.23794 13.0323 6.3968 13.0951 6.5625 13.0953L12.1875 13.0953C12.3532 13.0951 12.5121 13.0323 12.6292 12.9207C12.7464 12.8091 12.8123 12.6578 12.8125 12.5L12.8125 7.14287C12.8123 6.98506 12.7464 6.83377 12.6292 6.72218C12.5121 6.61059 12.3532 6.54782 12.1875 6.54763L6.5625 6.54763C6.3968 6.54782 6.23794 6.61059 6.12077 6.72218C6.00361 6.83377 5.9377 6.98506 5.9375 7.14287L5.9375 12.5Z" fill="#4A4E57"/>
</svg>
