<svg xmlns="http://www.w3.org/2000/svg" viewBox="0 0 275 361.98"><defs><style>.cls-1{fill:#fff;}.cls-2{fill:#3ce5b7;}.cls-3{fill:#f8f8f8;}.cls-4{fill:#242423;opacity:0.25;isolation:isolate;}</style></defs><title>card_2</title><g id="Layer_2" data-name="Layer 2"><g id="Layer_1-2" data-name="Layer 1"><g id="Layer_2-2" data-name="Layer 2"><g id="Layer_1-2-2" data-name="Layer 1-2"><g id="BG"><rect class="cls-1" width="275" height="361.98"/><rect id="Rectangle_406" data-name="Rectangle 406" class="cls-2" width="275" height="5"/><g id="Right"><path class="cls-3" d="M275,124.74v21h-.5a10.5,10.5,0,1,1,0-21Z"/></g><g id="Left"><path class="cls-3" d="M11,135.23A10.5,10.5,0,0,1,.5,145.73H0v-21H.5A10.5,10.5,0,0,1,11,135.23Z"/></g></g></g></g><path id="pattern" class="cls-4" d="M40.14,82.33a1.5,1.5,0,1,1,1.5,1.5A1.5,1.5,0,0,1,40.14,82.33Zm-7,0a1.5,1.5,0,1,1,1.5,1.5A1.5,1.5,0,0,1,33.14,82.33Zm14-7a1.5,1.5,0,1,1,1.5,1.5A1.5,1.5,0,0,1,47.14,75.33Zm-7,0a1.5,1.5,0,1,1,1.5,1.5A1.5,1.5,0,0,1,40.14,75.33Zm-7,0a1.5,1.5,0,1,1,1.5,1.5A1.5,1.5,0,0,1,33.14,75.33Zm14-7a1.5,1.5,0,1,1,1.5,1.5A1.5,1.5,0,0,1,47.14,68.33Zm-7,0a1.5,1.5,0,1,1,1.5,1.5A1.5,1.5,0,0,1,40.14,68.33Zm-7,0a1.5,1.5,0,1,1,1.5,1.5A1.5,1.5,0,0,1,33.14,68.33Zm28-8a1.5,1.5,0,1,1,1.5,1.5A1.5,1.5,0,0,1,61.14,60.33Zm-7,0a1.5,1.5,0,1,1,1.5,1.5A1.5,1.5,0,0,1,54.14,60.33Zm-7,0a1.5,1.5,0,1,1,1.5,1.5A1.5,1.5,0,0,1,47.14,60.33Zm-7,0a1.5,1.5,0,1,1,1.5,1.5A1.5,1.5,0,0,1,40.14,60.33Zm-7,0a1.5,1.5,0,1,1,1.5,1.5A1.5,1.5,0,0,1,33.14,60.33Zm7-7a1.5,1.5,0,1,1,1.5,1.5A1.5,1.5,0,0,1,40.14,53.33Zm-7,0a1.5,1.5,0,1,1,1.5,1.5A1.5,1.5,0,0,1,33.14,53.33Z"/></g></g></svg>