<svg id="account" xmlns="http://www.w3.org/2000/svg" width="18" height="18" viewBox="0 0 18 18">
  <rect id="Rectangle_177" data-name="Rectangle 177" width="18" height="18" rx="3" fill="#f8f7fb"/>
  <path id="Path_127" data-name="Path 127" d="M2107.034,23260.27a2.038,2.038,0,0,1-2.036-2.039v-.211a2.032,2.032,0,0,1,2.036-2.035h4.929a2.018,2.018,0,0,1,2.035,2.035v.211a2.038,2.038,0,0,1-2.035,2.039Zm-1.372-2.25v.211a1.39,1.39,0,0,0,1.394,1.395h4.929a1.39,1.39,0,0,0,1.392-1.395v-.211a1.387,1.387,0,0,0-1.392-1.391h-4.929A1.387,1.387,0,0,0,2105.662,23258.02Zm.986-6.148a2.861,2.861,0,1,1,2.85,2.848A2.854,2.854,0,0,1,2106.649,23251.871Zm.622-.02a2.229,2.229,0,0,0,4.458.02,2.229,2.229,0,0,0-4.458-.02Z" transform="translate(-2100.609 -23245.486)" fill="#e3b505"/>
</svg>
