<svg xmlns="http://www.w3.org/2000/svg" width="1183.728" height="447.895" viewBox="0 0 1183.728 447.895">
  <g id="Group_3266" data-name="Group 3266" transform="translate(-95.603 -323.992)">
    <path id="Path_664" data-name="Path 664" d="M-2964.547-881.917s-150.3-121.987-87.969-239.965,232.542-65.806,232.542-65.806,143.8,34.525,221.689-23.2,210.045-112.721,300.828,30.061,143.362,239.7,273.2,303.69" transform="translate(3233.364 1648.578)" fill="none" stroke="#e7ecf8" stroke-width="1" opacity="0.75"/>
    <path id="Path_666" data-name="Path 666" d="M-2950.751-829.814s-170.407-138.309-99.739-272.072,263.656-74.61,263.656-74.61,163.044,39.145,251.351-26.306,238.148-127.8,341.078,34.083S-2031.863-896.944-1884.65-824.4" transform="translate(3163.76 1595.835)" fill="none" stroke="#e7ecf8" stroke-width="1" opacity="0.396"/>
    <path id="Path_665" data-name="Path 665" d="M-2976.9-928.568s-132.292-107.373-77.431-211.218,204.685-57.923,204.685-57.923,126.576,30.389,195.132-20.422,184.882-99.217,264.79,26.46,126.187,210.988,240.473,267.309" transform="translate(3298.941 1695.419)" fill="none" stroke="#e7ecf8" stroke-width="1" opacity="0.398"/>
  </g>
</svg>
